<?xml version="1.0" standalone="no"?>
<!DOCTYPE svg PUBLIC "-//W3C//DTD SVG 20010904//EN"
 "http://www.w3.org/TR/2001/REC-SVG-20010904/DTD/svg10.dtd">
<svg version="1.0" xmlns="http://www.w3.org/2000/svg"
 width="669.000000pt" height="654.000000pt" viewBox="0 0 669.000000 654.000000"
 preserveAspectRatio="xMidYMid meet">

<g transform="translate(0.000000,654.000000) scale(0.100000,-0.100000)"
fill="#000000" stroke="none">
<path d="M215 3350 c0 -1757 1 -2476 2 -1597 2 878 2 2316 0 3195 -1 878 -2
159 -2 -1598z"/>
<path d="M6455 3350 c0 -1757 1 -2476 2 -1597 2 878 2 2316 0 3195 -1 878 -2
159 -2 -1598z"/>
<path d="M660 5750 l0 -450 30 0 30 0 0 450 0 450 -30 0 -30 0 0 -450z"/>
<path d="M2580 5910 c0 -73 3 -90 15 -90 12 0 15 17 15 90 0 73 -3 90 -15 90
-12 0 -15 -17 -15 -90z"/>
<path d="M990 5905 l0 -85 40 0 c51 0 85 16 99 47 31 68 -13 123 -99 123 l-40
0 0 -85z m107 29 c15 -24 15 -29 2 -53 -10 -18 -24 -27 -47 -29 l-32 -3 0 55
c0 55 0 56 30 56 21 0 35 -8 47 -26z"/>
<path d="M1447 5971 c-7 -27 4 -124 15 -138 14 -18 58 -17 58 1 0 7 -9 16 -20
19 -15 4 -20 14 -20 41 0 29 4 36 20 36 11 0 20 7 20 15 0 8 -9 15 -20 15 -11
0 -20 7 -20 15 0 21 -27 19 -33 -4z"/>
<path d="M2000 5986 c0 -3 -13 -41 -30 -85 -28 -77 -29 -81 -10 -81 11 0 20 7
20 15 0 21 66 20 78 -1 5 -9 16 -14 24 -13 23 6 -39 169 -64 169 -10 0 -18 -2
-18 -4z m30 -65 c0 -5 3 -16 6 -25 4 -12 0 -16 -16 -16 -16 0 -20 4 -16 16 3
9 6 20 6 25 0 5 5 9 10 9 6 0 10 -4 10 -9z"/>
<path d="M2790 5976 c0 -8 -6 -16 -12 -19 -10 -4 -10 -7 0 -18 6 -7 12 -31 12
-54 0 -46 13 -65 47 -65 28 0 30 20 3 27 -16 4 -20 14 -20 43 0 29 4 39 20 43
11 3 20 10 20 16 0 6 -9 11 -20 11 -11 0 -20 7 -20 15 0 8 -7 15 -15 15 -8 0
-15 -6 -15 -14z"/>
<path d="M3410 5976 c0 -8 -6 -16 -12 -19 -10 -4 -10 -7 0 -18 6 -7 12 -31 12
-54 0 -46 13 -65 47 -65 28 0 30 20 3 27 -16 4 -20 14 -20 43 0 29 4 39 20 43
11 3 20 10 20 16 0 6 -9 11 -20 11 -11 0 -20 7 -20 15 0 8 -7 15 -15 15 -8 0
-15 -6 -15 -14z"/>
<path d="M5604 5969 c-3 -6 6 -23 20 -38 l26 -27 -25 -24 c-29 -27 -31 -38 -9
-47 8 -3 25 4 40 17 l24 23 24 -23 c15 -13 32 -20 40 -17 22 9 20 20 -9 47
l-25 24 26 27 c42 44 11 69 -33 27 l-23 -21 -23 21 c-26 24 -42 28 -53 11z"/>
<path d="M1170 5940 c-41 -41 -12 -120 45 -120 31 0 75 41 75 70 0 29 -44 70
-75 70 -14 0 -34 -9 -45 -20z m80 -30 c22 -40 -26 -80 -58 -48 -25 25 -6 68
30 68 9 0 22 -9 28 -20z"/>
<path d="M1320 5940 c-60 -60 18 -153 88 -104 27 19 28 34 2 34 -11 0 -20 -4
-20 -10 0 -5 -11 -10 -24 -10 -27 0 -41 27 -31 60 7 21 55 29 55 10 0 -5 9
-10 20 -10 26 0 25 15 -2 34 -31 22 -64 20 -88 -4z"/>
<path d="M1552 5944 c-31 -21 -31 -87 0 -108 49 -35 111 -4 111 54 0 58 -62
89 -111 54z m73 -54 c0 -32 -2 -35 -30 -35 -24 0 -31 5 -33 23 -6 38 5 54 35
50 25 -3 28 -7 28 -38z"/>
<path d="M1680 5889 c0 -62 2 -69 20 -69 17 0 20 7 20 51 0 42 3 52 20 56 36
10 23 30 -20 30 l-40 0 0 -68z"/>
<path d="M1780 5945 c-19 -23 -8 -49 28 -64 17 -8 32 -18 32 -23 0 -12 -38
-10 -42 3 -2 6 -12 10 -21 8 -30 -7 7 -49 42 -49 59 0 68 55 13 79 -36 16 -42
31 -12 31 11 0 20 -4 20 -10 0 -5 7 -10 15 -10 22 0 19 27 -4 40 -28 14 -56
13 -71 -5z"/>
<path d="M2110 5858 c0 -88 2 -98 18 -98 15 0 17 6 14 35 -4 34 -4 35 27 29
48 -10 81 17 81 66 0 50 -26 69 -92 68 l-48 -1 0 -99z m104 50 c15 -25 -4 -53
-35 -53 -25 0 -37 30 -25 61 8 20 46 14 60 -8z"/>
<path d="M2270 5858 c0 -80 3 -98 15 -98 10 0 15 10 15 34 0 34 1 35 34 29 42
-7 76 23 76 67 0 47 -30 69 -89 68 l-51 -1 0 -99z m100 57 c26 -32 -13 -81
-47 -59 -35 22 -23 74 17 74 10 0 23 -7 30 -15z"/>
<path d="M2442 5937 c-27 -29 -28 -71 -2 -97 42 -42 120 -10 120 50 0 63 -75
93 -118 47z m78 -22 c26 -32 -13 -81 -47 -59 -35 22 -23 74 17 74 10 0 23 -7
30 -15z"/>
<path d="M2640 5889 c0 -54 3 -69 14 -69 11 0 16 15 18 53 3 48 5 52 28 52 23
0 25 -4 28 -52 2 -38 7 -53 18 -53 10 0 14 13 14 53 0 67 -18 86 -78 85 l-42
0 0 -69z"/>
<path d="M2870 5890 c0 -56 3 -70 15 -70 11 0 15 11 15 43 0 51 11 70 36 65
15 -2 20 -14 22 -56 3 -44 6 -52 23 -52 16 0 19 7 19 55 0 51 2 55 24 55 28 0
36 -16 36 -71 0 -28 4 -39 15 -39 11 0 15 12 15 50 0 62 -27 96 -68 86 -15 -4
-31 -6 -37 -6 -5 0 -34 3 -62 5 l-53 4 0 -69z"/>
<path d="M3121 5934 c-12 -15 -21 -34 -21 -44 0 -10 9 -29 21 -44 24 -30 69
-35 93 -10 30 30 14 45 -23 22 -20 -12 -51 -5 -51 12 0 5 22 10 50 10 43 0 50
3 50 20 0 57 -83 80 -119 34z m74 -14 c4 -6 -7 -10 -25 -10 -18 0 -29 4 -25
10 3 6 15 10 25 10 10 0 22 -4 25 -10z"/>
<path d="M3260 5889 c0 -54 3 -69 14 -69 11 0 16 15 18 53 3 48 5 52 28 52 23
0 25 -4 28 -52 2 -38 7 -53 18 -53 10 0 14 13 14 53 0 67 -18 86 -78 85 l-42
0 0 -69z"/>
<path d="M1460 5615 c0 -49 1 -51 29 -33 24 15 51 4 51 -22 0 -26 -27 -37 -52
-21 -27 16 -38 3 -14 -15 26 -18 51 -18 70 2 33 32 13 78 -33 76 -24 0 -31 4
-31 19 0 15 7 19 35 19 19 0 35 5 35 10 0 6 -20 10 -45 10 l-45 0 0 -45z"/>
<path d="M1660 5585 c0 -80 17 -104 22 -32 3 37 6 42 28 42 22 0 25 -5 28 -42
4 -56 22 -55 22 1 0 50 -18 71 -55 64 -21 -4 -25 -1 -25 18 0 13 -4 24 -10 24
-6 0 -10 -32 -10 -75z"/>
<path d="M2112 5648 c-14 -14 -16 -38 -3 -38 5 0 11 7 15 15 3 8 15 15 26 15
32 0 25 -41 -15 -80 -19 -19 -35 -38 -35 -42 0 -4 24 -7 53 -6 35 1 42 2 20 5
-18 2 -33 7 -33 10 0 3 11 18 25 35 40 47 29 98 -20 98 -12 0 -26 -5 -33 -12z"/>
<path d="M2270 5645 c-7 -9 -9 -19 -5 -23 4 -4 10 -1 12 6 3 6 16 12 29 12 30
0 32 -25 2 -41 l-22 -12 22 -8 c31 -12 30 -49 -2 -49 -13 0 -26 6 -29 13 -2 6
-8 9 -12 5 -14 -13 18 -39 43 -36 33 4 51 32 36 56 -8 12 -8 24 -1 39 19 43
-43 74 -73 38z"/>
<path d="M2392 5648 c-17 -17 -15 -113 2 -128 22 -18 59 -8 74 20 14 28 10 84
-9 106 -14 17 -51 18 -67 2z m62 -24 c17 -45 2 -94 -29 -94 -27 0 -40 45 -25
85 11 28 44 34 54 9z"/>
<path d="M990 5580 c0 -40 4 -70 10 -70 6 0 10 19 11 43 l0 42 22 -42 c11 -24
24 -43 28 -43 3 0 16 21 27 48 l20 47 1 -47 c1 -27 6 -48 11 -48 6 0 10 30 10
70 0 42 -4 70 -11 70 -5 0 -19 -22 -31 -50 -11 -27 -24 -50 -28 -50 -4 0 -17
23 -29 50 -12 28 -26 50 -31 50 -6 0 -10 -31 -10 -70z"/>
<path d="M1588 5633 c-2 -10 -1 -40 2 -68 4 -44 8 -50 30 -53 23 -2 24 -1 8
11 -10 8 -18 28 -18 45 0 19 7 35 18 41 16 10 16 10 0 11 -10 0 -18 7 -18 15
0 21 -18 19 -22 -2z"/>
<path d="M1978 5633 c-3 -10 -2 -40 1 -68 5 -44 9 -50 31 -53 23 -2 24 -1 8
11 -10 8 -18 28 -18 45 0 19 7 35 18 41 16 10 16 10 0 11 -10 0 -18 7 -18 15
0 21 -17 19 -22 -2z"/>
<path d="M1163 5594 c-15 -24 -15 -29 -2 -53 13 -22 22 -26 62 -27 l47 -1 0
51 0 52 -45 2 c-38 1 -47 -2 -62 -24z m77 -9 c23 -28 -9 -72 -45 -59 -36 14
-24 74 15 74 10 0 23 -7 30 -15z"/>
<path d="M1304 5568 c16 -36 21 -60 15 -73 -10 -27 -11 -35 0 -35 5 0 13 12
19 28 5 15 19 51 31 80 11 28 17 52 12 52 -5 0 -17 -19 -26 -42 l-17 -43 -16
43 c-9 23 -22 42 -29 42 -8 0 -5 -17 11 -52z"/>
<path d="M1843 5594 c-15 -24 -15 -29 -2 -53 13 -22 22 -26 62 -27 l47 -1 0
51 0 52 -45 2 c-38 1 -47 -2 -62 -24z m77 -9 c23 -28 -9 -72 -45 -59 -36 14
-24 74 15 74 10 0 23 -7 30 -15z"/>
<path d="M2210 5610 c0 -5 7 -10 16 -10 8 0 12 5 9 10 -3 6 -10 10 -16 10 -5
0 -9 -4 -9 -10z"/>
<path d="M2500 5538 c0 -45 4 -78 10 -78 6 0 10 13 10 30 0 27 2 29 28 24 35
-7 65 15 65 49 0 42 -19 57 -69 55 l-44 -2 0 -78z m89 44 c13 -24 -4 -52 -33
-52 -26 0 -40 23 -31 51 8 24 51 25 64 1z"/>
<path d="M2640 5563 c0 -29 5 -53 10 -53 6 0 10 20 10 44 0 31 5 46 16 50 26
10 44 -13 44 -55 0 -22 5 -39 10 -39 6 0 10 20 10 44 0 32 5 46 17 50 23 9 43
-19 43 -61 0 -18 5 -33 10 -33 11 0 13 42 4 78 -7 25 -49 41 -66 24 -7 -7 -17
-8 -28 -2 -9 5 -31 8 -48 8 -32 -1 -32 -1 -32 -55z"/>
<path d="M2210 5520 c0 -5 4 -10 9 -10 6 0 13 5 16 10 3 6 -1 10 -9 10 -9 0
-16 -4 -16 -10z"/>
<path d="M660 4790 l0 -450 30 0 30 0 0 450 0 450 -30 0 -30 0 0 -450z"/>
<path d="M1570 4940 c0 -73 3 -90 15 -90 12 0 15 17 15 90 0 73 -3 90 -15 90
-12 0 -15 -17 -15 -90z"/>
<path d="M2580 4940 c0 -73 3 -90 15 -90 11 0 15 11 15 43 0 51 11 70 36 65
15 -2 20 -14 22 -56 3 -45 6 -52 24 -52 19 0 20 5 16 56 -6 65 -26 89 -70 80
-25 -5 -28 -2 -28 19 0 16 -6 25 -15 25 -12 0 -15 -17 -15 -90z"/>
<path d="M3030 4940 c0 -73 3 -90 15 -90 12 0 15 17 15 90 0 73 -3 90 -15 90
-12 0 -15 -17 -15 -90z"/>
<path d="M990 4935 c0 -69 3 -85 15 -85 11 0 15 12 15 48 l1 47 25 -47 c13
-27 29 -48 35 -48 5 0 18 19 29 43 l19 42 0 -42 c1 -36 4 -43 21 -43 18 0 20
7 20 85 0 76 -2 85 -18 85 -13 0 -27 -18 -46 -62 l-26 -62 -30 62 c-43 91 -60
84 -60 -23z"/>
<path d="M1490 5005 c0 -8 -4 -15 -10 -15 -5 0 -10 -7 -10 -15 0 -8 5 -15 10
-15 6 0 10 -22 10 -49 0 -35 4 -51 16 -55 27 -10 44 -7 44 9 0 8 -7 15 -15 15
-11 0 -15 11 -15 40 0 29 4 40 15 40 8 0 15 7 15 15 0 8 -7 15 -15 15 -8 0
-15 7 -15 15 0 8 -7 15 -15 15 -8 0 -15 -7 -15 -15z"/>
<path d="M2160 5005 c0 -8 -4 -15 -10 -15 -5 0 -10 -7 -10 -15 0 -8 5 -15 10
-15 6 0 10 -22 10 -49 0 -35 4 -51 16 -55 27 -10 44 -7 44 9 0 8 -7 15 -15 15
-11 0 -15 11 -15 40 0 29 4 40 15 40 8 0 15 7 15 15 0 8 -7 15 -15 15 -8 0
-15 7 -15 15 0 8 -7 15 -15 15 -8 0 -15 -7 -15 -15z"/>
<path d="M2316 5007 c-29 -21 -17 -59 27 -80 20 -10 37 -25 37 -33 0 -16 -36
-19 -45 -4 -9 15 -35 12 -35 -5 0 -39 82 -47 106 -11 20 32 7 56 -38 72 -36
12 -52 44 -21 44 11 0 24 -5 30 -11 6 -6 19 -9 29 -7 17 3 17 5 -4 26 -25 25
-59 28 -86 9z"/>
<path d="M5604 5009 c-3 -6 6 -23 20 -38 l26 -27 -25 -24 c-29 -27 -31 -38 -9
-47 8 -3 25 4 40 17 l24 23 24 -23 c15 -13 32 -20 40 -17 22 9 20 20 -9 47
l-25 24 26 27 c42 44 11 69 -33 27 l-23 -21 -23 21 c-26 24 -42 28 -53 11z"/>
<path d="M1212 4974 c-16 -11 -22 -25 -22 -54 0 -65 67 -93 112 -48 21 21 22
23 4 26 -10 2 -22 -1 -26 -8 -9 -15 -52 -9 -58 8 -2 8 11 12 47 12 44 0 51 3
51 20 0 27 -35 60 -63 60 -12 0 -33 -7 -45 -16z m73 -24 c4 -6 -8 -10 -30 -10
-22 0 -34 4 -30 10 3 6 17 10 30 10 13 0 27 -4 30 -10z"/>
<path d="M1350 4970 c-43 -43 -11 -120 48 -120 16 0 37 9 47 20 22 24 12 39
-15 22 -26 -16 -45 -15 -60 3 -11 13 -5 15 44 15 63 0 70 10 35 54 -25 32 -70
35 -99 6z m75 -20 c4 -6 -7 -10 -25 -10 -18 0 -29 4 -25 10 3 6 15 10 25 10
10 0 22 -4 25 -10z"/>
<path d="M1630 4919 c0 -54 3 -69 14 -69 11 0 16 15 18 53 3 48 5 52 28 52 23
0 25 -4 28 -52 2 -38 7 -53 18 -53 10 0 14 13 14 53 0 67 -18 86 -78 85 l-42
0 0 -69z"/>
<path d="M1789 4969 c-25 -25 -24 -74 2 -100 16 -16 29 -20 56 -16 36 6 41 -7
10 -27 -12 -8 -22 -7 -37 2 -26 16 -40 15 -40 -3 0 -36 78 -47 110 -15 17 17
20 33 20 98 l0 79 -51 1 c-37 1 -55 -4 -70 -19z m81 -29 c23 -42 -30 -81 -60
-45 -7 8 -10 25 -6 40 8 31 50 35 66 5z"/>
<path d="M2009 4969 c-10 -10 -19 -32 -19 -49 0 -47 30 -69 89 -68 l51 1 0 67
0 67 -51 1 c-37 1 -55 -4 -70 -19z m81 -29 c15 -28 -4 -60 -35 -60 -18 0 -26
7 -31 25 -12 48 44 77 66 35z"/>
<path d="M2450 4970 c-43 -43 -11 -120 48 -120 29 0 71 34 59 47 -4 3 -19 0
-33 -7 -31 -17 -59 -3 -59 30 0 33 28 47 59 30 33 -17 45 -6 21 20 -23 26 -69
26 -95 0z"/>
<path d="M2745 4965 c-30 -30 -31 -54 -4 -89 40 -50 119 -21 119 44 0 64 -70
91 -115 45z m79 -27 c15 -25 -4 -53 -35 -53 -25 0 -37 30 -25 61 8 20 46 14
60 -8z"/>
<path d="M2895 4965 c-30 -30 -31 -54 -4 -89 40 -50 119 -21 119 44 0 64 -70
91 -115 45z m79 -27 c15 -25 -4 -53 -35 -53 -25 0 -37 30 -25 61 8 20 46 14
60 -8z"/>
<path d="M1476 4668 c-22 -32 -20 -91 3 -112 39 -35 90 -4 77 47 -5 23 -12 27
-41 27 -25 0 -35 4 -35 15 0 21 29 31 51 16 15 -9 19 -8 19 3 0 14 -21 26 -45
26 -8 0 -21 -10 -29 -22z m59 -78 c0 -18 -6 -26 -23 -28 -13 -2 -25 3 -28 12
-10 26 4 48 28 44 17 -2 23 -10 23 -28z"/>
<path d="M1660 4615 c0 -80 17 -104 22 -32 3 37 6 42 28 42 22 0 25 -5 28 -42
4 -56 22 -55 22 1 0 50 -18 71 -55 64 -21 -4 -25 -1 -25 18 0 13 -4 24 -10 24
-6 0 -10 -32 -10 -75z"/>
<path d="M2112 4678 c-14 -14 -16 -38 -3 -38 5 0 11 7 15 15 3 8 15 15 26 15
32 0 25 -41 -15 -80 -19 -19 -35 -38 -35 -42 0 -4 24 -7 53 -6 35 1 42 2 20 5
-18 2 -33 7 -33 10 0 3 11 18 25 35 40 47 29 98 -20 98 -12 0 -26 -5 -33 -12z"/>
<path d="M2270 4675 c-7 -9 -9 -19 -5 -23 4 -4 10 -1 12 6 3 6 16 12 29 12 30
0 32 -25 2 -41 l-22 -12 22 -8 c31 -12 30 -49 -2 -49 -13 0 -26 6 -29 13 -2 6
-8 9 -12 5 -14 -13 18 -39 43 -36 33 4 51 32 36 56 -8 12 -8 24 -1 39 19 43
-43 74 -73 38z"/>
<path d="M2390 4671 c-5 -11 -10 -36 -10 -56 0 -49 16 -75 45 -75 30 0 55 34
55 75 0 62 -65 103 -90 56z m65 -56 c0 -47 -2 -50 -25 -50 -22 0 -25 5 -28 39
-4 52 3 68 30 64 20 -3 23 -9 23 -53z"/>
<path d="M990 4610 c0 -40 4 -70 10 -70 6 0 10 19 11 43 l0 42 22 -42 c11 -24
24 -43 28 -43 3 0 16 21 27 48 l20 47 1 -47 c1 -27 6 -48 11 -48 6 0 10 30 10
70 0 42 -4 70 -11 70 -5 0 -19 -22 -31 -50 -11 -27 -24 -50 -28 -50 -4 0 -17
23 -29 50 -12 28 -26 50 -31 50 -6 0 -10 -31 -10 -70z"/>
<path d="M1588 4663 c-2 -10 -1 -40 2 -68 4 -44 8 -50 30 -53 23 -2 24 -1 8
11 -10 8 -18 28 -18 45 0 19 7 35 18 41 16 10 16 10 0 11 -10 0 -18 7 -18 15
0 21 -18 19 -22 -2z"/>
<path d="M1978 4663 c-2 -10 -1 -40 2 -68 4 -44 8 -50 30 -53 23 -2 24 -1 8
11 -10 8 -18 28 -18 45 0 19 7 35 18 41 16 10 16 10 0 11 -10 0 -18 7 -18 15
0 21 -18 19 -22 -2z"/>
<path d="M1163 4624 c-15 -24 -15 -29 -2 -53 13 -22 22 -26 62 -27 l47 -1 0
51 0 52 -45 2 c-38 1 -47 -2 -62 -24z m77 -9 c23 -28 -9 -72 -45 -59 -36 14
-24 74 15 74 10 0 23 -7 30 -15z"/>
<path d="M1304 4598 c16 -36 21 -60 15 -73 -10 -27 -11 -35 0 -35 5 0 13 12
19 28 5 15 19 51 31 80 11 28 17 52 12 52 -5 0 -17 -19 -26 -42 l-17 -43 -16
43 c-9 23 -22 42 -29 42 -8 0 -5 -17 11 -52z"/>
<path d="M1858 4639 c-24 -14 -24 -75 0 -88 9 -5 34 -9 55 -8 l37 1 0 51 0 51
-37 1 c-21 1 -46 -3 -55 -8z m66 -25 c9 -24 8 -31 -10 -48 -12 -12 -20 -13
-35 -6 -18 10 -26 50 -12 63 12 13 51 7 57 -9z"/>
<path d="M2210 4640 c0 -5 7 -10 16 -10 8 0 12 5 9 10 -3 6 -10 10 -16 10 -5
0 -9 -4 -9 -10z"/>
<path d="M2512 4565 c0 -44 3 -66 5 -48 4 30 6 31 38 26 28 -4 36 -1 51 22 16
25 16 30 3 54 -12 21 -22 26 -57 26 l-42 1 2 -81z m83 46 c9 -28 -5 -51 -31
-51 -29 0 -46 28 -33 52 13 24 56 23 64 -1z"/>
<path d="M2640 4593 c0 -29 5 -53 10 -53 6 0 10 17 10 39 0 46 22 70 45 51 9
-7 15 -29 15 -51 0 -22 5 -39 10 -39 6 0 10 17 10 39 0 46 22 70 45 51 9 -7
15 -29 15 -51 0 -22 5 -39 10 -39 16 0 12 77 -6 94 -18 18 -50 21 -59 6 -5 -8
-11 -8 -19 -1 -7 6 -29 10 -49 9 l-37 -1 0 -54z"/>
<path d="M2210 4550 c0 -5 4 -10 9 -10 6 0 13 5 16 10 3 6 -1 10 -9 10 -9 0
-16 -4 -16 -10z"/>
<path d="M660 3830 l0 -450 30 0 30 0 0 450 0 450 -30 0 -30 0 0 -450z"/>
<path d="M1510 4046 c0 -22 -3 -24 -34 -19 -42 7 -76 -23 -76 -67 0 -47 30
-69 89 -68 l51 1 0 89 c0 72 -3 88 -15 88 -9 0 -15 -9 -15 -24z m-6 -68 c23
-38 -36 -77 -64 -43 -10 12 -10 21 -1 41 13 29 47 30 65 2z"/>
<path d="M1770 3980 c0 -72 3 -90 14 -90 11 0 16 15 18 53 3 48 5 52 28 52 23
0 25 -4 28 -52 2 -38 7 -53 18 -53 10 0 14 13 14 53 0 63 -23 93 -65 85 -21
-4 -25 -1 -25 18 0 15 -6 24 -15 24 -12 0 -15 -17 -15 -90z"/>
<path d="M2381 3981 c-1 -76 1 -91 14 -91 12 0 15 15 17 75 0 41 1 81 2 87 1
7 -6 14 -15 16 -14 3 -17 -10 -18 -87z"/>
<path d="M990 3975 c0 -69 3 -85 15 -85 10 0 15 11 15 35 0 32 2 35 30 35 20
0 30 5 30 15 0 10 -10 15 -30 15 -23 0 -30 4 -30 20 0 16 7 20 35 20 24 0 35
5 35 15 0 11 -12 15 -50 15 l-50 0 0 -85z"/>
<path d="M1640 4040 c-11 -11 -20 -23 -20 -27 1 -19 22 -38 52 -49 41 -14 51
-44 14 -44 -14 0 -26 5 -26 10 0 6 -9 10 -20 10 -18 0 -19 -3 -10 -20 14 -26
55 -36 86 -21 20 9 25 17 22 43 -2 26 -9 33 -38 43 -39 13 -54 45 -21 45 11 0
23 -4 26 -10 9 -15 35 -12 35 5 0 35 -69 46 -100 15z"/>
<path d="M5605 4049 c-4 -6 2 -21 14 -33 26 -28 27 -48 1 -71 -24 -22 -25 -34
-4 -42 8 -3 25 4 40 17 l24 23 24 -23 c15 -13 32 -20 40 -17 21 8 20 20 -4 42
-11 10 -20 26 -20 35 0 9 9 25 20 35 24 22 25 34 4 42 -8 3 -25 -4 -40 -17
l-24 -23 -23 21 c-26 24 -42 28 -52 11z"/>
<path d="M1122 4007 c-27 -29 -28 -71 -2 -97 42 -42 120 -10 120 50 0 63 -75
93 -118 47z m78 -22 c26 -32 -13 -81 -47 -59 -35 22 -23 74 17 74 10 0 23 -7
30 -15z"/>
<path d="M1272 4007 c-27 -29 -28 -71 -2 -97 42 -42 120 -10 120 50 0 63 -75
93 -118 47z m78 -22 c26 -32 -13 -81 -47 -59 -35 22 -23 74 17 74 10 0 23 -7
30 -15z"/>
<path d="M1930 4010 c-41 -41 -12 -120 45 -120 31 0 75 41 75 70 0 29 -44 70
-75 70 -14 0 -34 -9 -45 -20z m80 -30 c22 -40 -26 -80 -58 -48 -25 25 -6 68
30 68 9 0 22 -9 28 -20z"/>
<path d="M2070 3928 c0 -80 3 -98 15 -98 10 0 15 10 15 33 0 32 1 33 34 29 27
-3 37 1 55 23 26 34 27 55 1 88 -18 22 -28 26 -70 25 l-50 -1 0 -99z m98 38
c4 -36 -10 -50 -42 -42 -19 4 -26 13 -26 29 0 53 62 65 68 13z"/>
<path d="M2220 3928 c0 -88 2 -98 18 -98 15 0 17 6 14 35 -4 34 -4 35 27 29
48 -10 81 17 81 66 0 50 -26 69 -92 68 l-48 -1 0 -99z m104 50 c15 -25 -4 -53
-35 -53 -25 0 -37 30 -25 61 8 20 46 14 60 -8z"/>
<path d="M2440 3959 c0 -54 3 -69 14 -69 11 0 16 15 18 53 3 48 5 52 28 52 23
0 25 -4 28 -52 2 -38 7 -53 18 -53 10 0 14 14 14 54 0 69 -15 86 -75 84 l-45
-1 0 -68z"/>
<path d="M2599 4009 c-25 -25 -24 -74 2 -100 17 -17 29 -20 56 -16 28 5 34 3
29 -9 -3 -9 -6 -18 -6 -20 0 -9 -41 -3 -60 8 -27 17 -37 2 -15 -22 23 -26 69
-26 95 0 17 17 20 33 20 98 l0 79 -51 1 c-37 1 -55 -4 -70 -19z m85 -31 c14
-23 -3 -52 -32 -56 -29 -4 -51 40 -32 63 16 20 49 16 64 -7z"/>
<path d="M1455 3720 c3 -5 19 -10 36 -10 35 0 36 -5 4 -75 -14 -32 -19 -55
-13 -53 9 3 68 128 68 145 0 1 -23 3 -51 3 -31 0 -48 -4 -44 -10z"/>
<path d="M1640 3655 c0 -80 17 -104 22 -32 3 38 6 42 31 45 26 3 27 2 27 -42
0 -25 5 -46 10 -46 6 0 10 20 10 44 0 51 -18 71 -55 62 -22 -6 -25 -3 -25 19
0 14 -4 25 -10 25 -6 0 -10 -32 -10 -75z"/>
<path d="M2080 3720 c0 -5 5 -10 10 -10 6 0 10 -28 10 -65 0 -37 4 -65 10 -65
6 0 10 32 10 75 0 68 -2 75 -20 75 -11 0 -20 -4 -20 -10z"/>
<path d="M2162 3718 c-7 -7 -12 -19 -12 -27 1 -13 3 -13 15 2 16 22 48 19 53
-5 2 -9 -13 -34 -32 -56 -20 -22 -36 -42 -36 -46 0 -3 20 -6 45 -6 25 0 45 4
45 9 0 4 -11 6 -25 3 -27 -5 -33 9 -11 27 25 21 39 67 26 90 -12 23 -49 28
-68 9z"/>
<path d="M2323 3723 c-7 -2 -13 -11 -13 -19 0 -11 4 -12 19 -3 20 13 51 6 51
-12 0 -6 -9 -13 -20 -16 -11 -3 -20 -9 -20 -13 0 -4 9 -10 20 -13 29 -8 27
-47 -3 -47 -13 0 -28 5 -35 12 -6 6 -14 9 -17 6 -12 -12 28 -39 53 -36 35 4
51 32 34 59 -10 15 -10 24 -2 34 26 32 -22 67 -67 48z"/>
<path d="M2441 3716 c-19 -22 -23 -78 -9 -106 15 -28 52 -38 74 -20 17 15 19
111 2 128 -16 16 -53 15 -67 -2z m59 -36 c13 -53 -27 -107 -51 -68 -10 15 -12
60 -3 83 10 25 47 14 54 -15z"/>
<path d="M990 3650 c0 -40 4 -70 10 -70 6 0 10 19 11 43 l0 42 22 -42 c11 -24
24 -43 28 -43 3 0 16 21 27 48 l20 47 1 -47 c1 -27 6 -48 11 -48 6 0 10 30 10
70 0 42 -4 70 -11 70 -5 0 -19 -22 -31 -50 -11 -27 -24 -50 -28 -50 -4 0 -17
23 -29 50 -12 28 -26 50 -31 50 -6 0 -10 -31 -10 -70z"/>
<path d="M1569 3703 c-2 -46 4 -99 13 -110 12 -15 38 -17 38 -3 0 6 -7 10 -15
10 -22 0 -20 66 3 79 16 10 16 10 0 11 -10 0 -18 7 -18 15 0 21 -20 19 -21 -2z"/>
<path d="M1959 3703 c-2 -46 4 -99 13 -110 12 -15 38 -17 38 -3 0 6 -7 10 -15
10 -22 0 -20 66 3 79 16 10 16 10 0 11 -10 0 -18 7 -18 15 0 21 -20 19 -21 -2z"/>
<path d="M1163 3664 c-15 -24 -15 -29 -2 -53 13 -22 22 -26 62 -27 l47 -1 0
51 0 52 -45 2 c-38 1 -47 -2 -62 -24z m77 -9 c23 -28 -9 -72 -45 -59 -36 14
-24 74 15 74 10 0 23 -7 30 -15z"/>
<path d="M1304 3638 c16 -36 21 -60 15 -73 -10 -27 -11 -35 0 -35 5 0 13 12
19 28 5 15 19 51 31 80 11 28 17 52 12 52 -5 0 -17 -19 -26 -42 l-17 -43 -16
43 c-9 23 -22 42 -29 42 -8 0 -5 -17 11 -52z"/>
<path d="M1835 3674 c-17 -17 -19 -52 -5 -74 5 -9 27 -15 55 -16 l45 -2 0 52
0 52 -40 1 c-24 1 -46 -4 -55 -13z m73 -33 c5 -32 -23 -54 -49 -40 -19 10 -26
49 -12 63 4 4 19 6 33 4 18 -2 26 -10 28 -27z"/>
<path d="M2260 3680 c0 -5 5 -10 10 -10 6 0 10 5 10 10 0 6 -4 10 -10 10 -5 0
-10 -4 -10 -10z"/>
<path d="M2550 3608 c0 -45 4 -78 10 -78 6 0 10 13 10 30 0 27 2 29 28 24 36
-7 62 16 62 56 0 35 -21 49 -73 47 l-37 -1 0 -78z m85 27 c0 -27 -3 -30 -30
-30 -21 0 -31 5 -33 18 -6 33 6 49 35 45 24 -3 28 -8 28 -33z"/>
<path d="M2691 3630 l1 -55 9 44 c15 76 59 79 59 5 0 -24 5 -44 10 -44 6 0 10
15 10 34 0 38 23 68 45 60 10 -4 15 -21 15 -50 0 -24 5 -44 10 -44 6 0 10 20
10 44 0 56 -19 74 -61 59 -17 -7 -31 -7 -35 -2 -3 5 -21 8 -40 6 l-34 -2 1
-55z"/>
<path d="M2260 3590 c0 -5 5 -10 10 -10 6 0 10 5 10 10 0 6 -4 10 -10 10 -5 0
-10 -4 -10 -10z"/>
<path d="M2420 3020 c0 -73 3 -90 15 -90 12 0 15 17 15 90 0 73 -3 90 -15 90
-12 0 -15 -17 -15 -90z"/>
<path d="M3000 3086 c0 -22 -3 -24 -34 -19 -42 7 -76 -23 -76 -67 0 -47 30
-69 89 -68 l51 1 0 89 c0 72 -3 88 -15 88 -9 0 -15 -9 -15 -24z m-6 -68 c23
-38 -36 -77 -64 -43 -10 12 -10 21 -1 41 13 29 47 30 65 2z"/>
<path d="M3147 3103 c-2 -4 -5 -45 -6 -90 -2 -79 -1 -83 19 -83 20 0 21 4 18
87 -2 54 -7 88 -15 90 -6 2 -13 0 -16 -4z"/>
<path d="M3300 3086 c0 -22 -3 -24 -33 -19 -28 4 -37 1 -55 -22 -27 -35 -28
-55 -1 -88 17 -23 27 -26 70 -26 l49 2 0 88 c0 72 -3 89 -15 89 -9 0 -15 -9
-15 -24z m-10 -60 c6 -8 10 -25 8 -38 -2 -18 -9 -23 -33 -23 -24 0 -31 5 -33
23 -2 13 -1 30 2 38 7 18 40 18 56 0z"/>
<path d="M930 3015 c0 -69 3 -85 15 -85 11 0 15 12 16 48 l1 47 20 -47 c11
-27 26 -48 32 -48 7 0 22 19 33 43 l22 42 0 -42 c1 -31 5 -43 16 -43 12 0 15
16 15 85 0 106 -15 112 -55 23 l-29 -63 -28 63 c-41 91 -58 84 -58 -23z"/>
<path d="M1440 3031 c0 -61 3 -72 22 -85 12 -9 32 -16 43 -16 11 0 31 7 43 16
19 13 22 24 22 85 0 54 -3 69 -15 69 -11 0 -15 -16 -17 -67 l-3 -68 -30 0 -30
0 -3 68 c-2 51 -6 67 -17 67 -12 0 -15 -15 -15 -69z"/>
<path d="M1970 3015 c0 -77 2 -85 19 -85 16 0 20 8 23 38 l3 37 24 -37 c13
-22 31 -38 42 -38 17 0 17 2 -3 36 -20 33 -20 37 -5 46 24 13 22 65 -2 78 -11
5 -38 10 -60 10 l-41 0 0 -85z m85 35 c0 -8 -10 -16 -22 -18 -18 -3 -23 2 -23
18 0 16 5 21 23 18 12 -2 22 -10 22 -18z"/>
<path d="M2540 3015 c0 -69 3 -85 15 -85 11 0 15 12 16 48 l1 47 20 -47 c11
-27 26 -48 32 -48 7 0 22 19 33 43 l22 42 0 -42 c1 -31 5 -43 16 -43 12 0 15
16 15 85 0 106 -15 112 -55 23 l-29 -63 -28 63 c-41 91 -58 84 -58 -23z"/>
<path d="M5604 3079 c-3 -6 6 -23 20 -38 l26 -27 -25 -24 c-29 -27 -31 -38 -9
-47 8 -3 25 4 40 17 l24 23 24 -23 c15 -13 32 -20 40 -17 22 9 20 20 -9 47
l-25 24 26 27 c42 44 11 69 -33 27 l-23 -21 -23 21 c-26 24 -42 28 -53 11z"/>
<path d="M1144 3045 c-29 -30 -30 -54 -3 -88 17 -23 27 -26 70 -26 l49 2 0 67
0 67 -46 1 c-36 0 -52 -5 -70 -23z m76 -19 c6 -8 10 -25 8 -38 -2 -18 -9 -23
-33 -23 -24 0 -31 5 -33 23 -2 13 -1 30 2 38 7 18 40 18 56 0z"/>
<path d="M1290 2999 c0 -54 3 -69 14 -69 11 0 16 15 18 53 3 48 5 52 28 52 23
0 25 -4 28 -52 2 -38 7 -53 18 -53 10 0 14 14 14 54 0 69 -15 86 -75 84 l-45
-1 0 -68z"/>
<path d="M1661 3018 c12 -29 24 -61 26 -70 3 -10 13 -18 22 -18 12 0 26 21 44
67 15 37 25 69 22 71 -12 12 -34 -11 -47 -50 l-15 -43 -17 39 c-9 21 -16 42
-16 47 0 5 -9 9 -20 9 -20 0 -19 -1 1 -52z"/>
<path d="M1796 3051 c-22 -25 -11 -48 30 -61 35 -12 46 -30 19 -30 -8 0 -24 5
-35 12 -27 17 -37 2 -15 -22 37 -41 117 -7 89 37 -6 10 -21 20 -34 23 -13 3
-25 11 -28 18 -4 14 24 16 33 2 8 -13 35 -13 35 -1 0 18 -31 41 -54 41 -13 0
-30 -8 -40 -19z"/>
<path d="M2130 3050 c-41 -41 -12 -120 44 -120 28 0 75 35 63 46 -4 5 -17 3
-27 -4 -27 -16 -57 -15 -64 3 -4 12 4 15 44 15 46 0 50 2 50 24 0 50 -73 73
-110 36z m75 -20 c4 -6 -8 -10 -30 -10 -22 0 -34 4 -30 10 3 6 17 10 30 10 13
0 27 -4 30 -10z"/>
<path d="M2274 3045 c-29 -30 -30 -54 -3 -88 17 -23 27 -26 70 -26 l49 2 0 67
0 67 -46 1 c-36 0 -52 -5 -70 -23z m76 -19 c6 -8 10 -25 8 -38 -2 -18 -9 -23
-33 -23 -24 0 -31 5 -33 23 -2 13 -1 30 2 38 7 18 40 18 56 0z"/>
<path d="M2754 3045 c-29 -30 -30 -54 -3 -88 17 -23 27 -26 70 -26 l49 2 0 67
0 67 -46 1 c-36 0 -52 -5 -70 -23z m76 -19 c6 -8 10 -25 8 -38 -2 -18 -9 -23
-33 -23 -24 0 -31 5 -33 23 -2 13 -1 30 2 38 7 18 40 18 56 0z"/>
<path d="M3060 2999 c0 -55 3 -69 15 -69 11 0 15 12 15 51 0 42 3 52 20 56 34
9 23 31 -15 31 l-35 0 0 -69z"/>
<path d="M1696 2748 c-33 -47 -9 -128 38 -128 31 0 48 22 44 57 -3 25 -7 28
-41 28 -38 0 -41 3 -31 29 7 18 39 22 49 6 12 -20 26 -10 15 10 -14 27 -55 26
-74 -2z m62 -81 c3 -23 0 -27 -23 -27 -30 0 -43 24 -25 46 19 22 45 13 48 -19z"/>
<path d="M1880 2695 c0 -80 17 -104 22 -32 3 38 6 42 31 45 26 3 27 2 27 -42
0 -25 5 -46 10 -46 6 0 10 20 10 44 0 51 -18 71 -55 62 -22 -6 -25 -3 -25 19
0 14 -4 25 -10 25 -6 0 -10 -32 -10 -75z"/>
<path d="M2336 2754 c-9 -8 -16 -20 -16 -25 0 -15 17 -10 24 6 3 8 15 15 26
15 34 0 26 -47 -15 -86 -19 -18 -35 -35 -35 -38 0 -3 24 -5 53 -4 35 1 42 2
20 5 -18 2 -33 7 -33 10 0 3 11 18 25 35 14 16 25 40 25 52 0 43 -44 61 -74
30z"/>
<path d="M2490 2755 c-15 -19 -5 -34 12 -17 7 7 20 12 30 12 26 0 23 -36 -4
-45 -17 -5 -19 -8 -8 -12 27 -10 39 -24 33 -39 -6 -17 -50 -19 -56 -1 -2 6 -8
9 -12 5 -11 -11 14 -38 35 -38 36 0 50 12 50 41 0 16 -5 29 -10 29 -6 0 -5 8
2 20 26 41 -41 82 -72 45z"/>
<path d="M2610 2751 c-5 -11 -10 -36 -10 -56 0 -49 16 -75 45 -75 30 0 55 34
55 75 0 62 -65 103 -90 56z m65 -56 c0 -47 -2 -50 -25 -50 -22 0 -25 5 -28 39
-4 52 3 68 30 64 20 -3 23 -9 23 -53z"/>
<path d="M965 2750 c-14 -22 -45 -124 -39 -129 3 -3 10 2 15 12 12 21 65 23
73 2 3 -8 10 -15 15 -15 8 0 -7 57 -34 123 -8 19 -21 22 -30 7z m29 -67 c6
-19 3 -23 -13 -23 -22 0 -25 10 -14 49 6 25 14 18 27 -26z"/>
<path d="M1558 2743 c-3 -10 -2 -40 1 -68 5 -44 9 -50 31 -53 23 -2 24 -1 8
11 -10 8 -18 28 -18 45 0 19 7 35 18 41 16 10 16 10 0 11 -10 0 -18 7 -18 15
0 21 -17 19 -22 -2z"/>
<path d="M1808 2743 c-2 -10 -1 -40 2 -68 4 -44 8 -50 30 -53 23 -2 24 -1 8
11 -10 8 -18 28 -18 45 0 19 7 35 18 41 16 10 16 10 0 11 -10 0 -18 7 -18 15
0 21 -18 19 -22 -2z"/>
<path d="M2198 2743 c-2 -10 -1 -40 2 -68 4 -44 8 -50 30 -53 23 -2 24 -1 8
11 -10 8 -18 28 -18 45 0 19 7 35 18 41 16 10 16 10 0 11 -10 0 -18 7 -18 15
0 21 -18 19 -22 -2z"/>
<path d="M1060 2686 c0 -52 14 -66 63 -64 l37 1 0 54 c0 29 -4 53 -10 53 -5 0
-10 -17 -10 -39 0 -46 -22 -70 -45 -51 -9 7 -15 29 -15 51 0 22 -4 39 -10 39
-5 0 -10 -20 -10 -44z"/>
<path d="M1196 2712 c-35 -40 -2 -99 49 -90 20 4 25 2 23 -11 -4 -20 -44 -27
-64 -11 -7 7 -14 8 -14 3 0 -17 24 -33 50 -33 40 0 50 18 50 90 l0 67 -39 1
c-26 1 -43 -4 -55 -16z m72 -40 c-2 -21 -9 -28 -30 -30 -23 -3 -29 2 -34 24
-5 20 -2 31 11 40 27 20 57 0 53 -34z"/>
<path d="M1320 2691 c0 -49 20 -71 65 -69 l35 1 0 54 c0 29 -4 53 -10 53 -5 0
-10 -17 -10 -39 0 -46 -22 -70 -45 -51 -9 7 -15 29 -15 51 0 22 -4 39 -10 39
-5 0 -10 -18 -10 -39z"/>
<path d="M1454 2715 c-9 -23 2 -43 27 -47 12 -2 25 -9 27 -17 4 -11 -2 -13
-27 -8 -34 7 -43 -8 -11 -18 55 -18 85 34 30 54 -41 14 -40 35 1 27 27 -5 30
-4 19 9 -16 19 -59 19 -66 0z"/>
<path d="M2078 2719 c-24 -14 -24 -75 0 -88 9 -5 34 -9 55 -8 l37 1 0 51 0 51
-37 1 c-21 1 -46 -3 -55 -8z m66 -25 c9 -24 8 -31 -10 -48 -12 -12 -20 -13
-35 -6 -18 10 -26 50 -12 63 12 13 51 7 57 -9z"/>
<path d="M2435 2720 c-3 -5 1 -10 9 -10 9 0 16 5 16 10 0 6 -4 10 -9 10 -6 0
-13 -4 -16 -10z"/>
<path d="M2732 2645 c0 -44 3 -66 5 -48 4 30 6 31 38 26 28 -4 36 -1 51 22 16
25 16 30 3 54 -12 21 -22 26 -57 26 l-42 1 2 -81z m83 46 c9 -28 -5 -51 -31
-51 -29 0 -46 28 -33 52 13 24 56 23 64 -1z"/>
<path d="M2860 2673 c0 -29 5 -53 10 -53 6 0 10 17 10 39 0 46 22 70 45 51 9
-7 15 -29 15 -51 0 -22 5 -39 10 -39 6 0 10 17 10 39 0 46 22 70 45 51 9 -7
15 -29 15 -51 0 -22 5 -39 10 -39 16 0 12 77 -6 94 -18 18 -50 21 -59 6 -5 -8
-11 -8 -19 -1 -7 6 -29 10 -49 9 l-37 -1 0 -54z"/>
<path d="M2435 2630 c3 -5 10 -10 16 -10 5 0 9 5 9 10 0 6 -7 10 -16 10 -8 0
-12 -4 -9 -10z"/>
<path d="M1900 2060 c0 -73 3 -90 15 -90 9 0 15 9 15 22 l0 21 23 -21 c13 -12
31 -22 41 -22 15 0 12 7 -14 36 l-32 36 33 34 c27 28 30 34 14 34 -10 0 -29
-10 -42 -22 l-23 -21 0 41 c0 31 -4 42 -15 42 -12 0 -15 -17 -15 -90z"/>
<path d="M930 2055 c0 -69 3 -85 15 -85 12 0 15 13 15 58 l0 57 38 -57 c21
-34 44 -58 55 -58 15 0 17 11 17 86 0 76 -2 85 -17 82 -14 -2 -19 -16 -23 -53
l-5 -50 -34 53 c-49 77 -61 70 -61 -33z"/>
<path d="M1480 2125 c0 -9 9 -15 25 -15 24 0 25 -2 25 -70 0 -56 3 -70 15 -70
12 0 15 14 15 70 0 63 2 70 20 70 11 0 20 7 20 15 0 12 -13 15 -60 15 -47 0
-60 -3 -60 -15z"/>
<path d="M5604 2119 c-3 -6 6 -23 20 -38 l26 -27 -25 -24 c-29 -27 -31 -38 -9
-47 8 -3 25 4 40 17 l24 23 24 -23 c15 -13 32 -20 40 -17 22 9 20 20 -9 47
l-25 24 26 27 c42 44 11 69 -33 27 l-23 -21 -23 21 c-26 24 -42 28 -53 11z"/>
<path d="M1112 2094 c-16 -11 -22 -25 -22 -54 0 -65 67 -93 112 -48 21 21 22
23 4 26 -10 2 -22 -1 -26 -8 -9 -15 -52 -9 -58 8 -2 8 11 12 47 12 44 0 51 3
51 20 0 27 -35 60 -63 60 -12 0 -33 -7 -45 -16z m73 -24 c4 -6 -8 -10 -30 -10
-22 0 -34 4 -30 10 3 6 17 10 30 10 13 0 27 -4 30 -10z"/>
<path d="M1243 2040 c15 -52 25 -70 38 -70 12 0 20 11 24 33 11 51 18 54 30
11 17 -61 41 -57 61 13 9 32 19 64 22 72 3 8 -1 12 -14 9 -12 -2 -22 -18 -29
-48 l-11 -45 -13 48 c-17 58 -41 60 -55 4 -12 -48 -23 -47 -31 3 -5 29 -12 40
-25 40 -17 0 -17 -4 3 -70z"/>
<path d="M1629 2089 c-10 -10 -19 -32 -19 -49 0 -47 30 -69 89 -68 l51 1 0 67
0 67 -51 1 c-37 1 -55 -4 -70 -19z m85 -31 c23 -38 -36 -77 -64 -43 -10 12
-10 21 -1 41 13 29 47 30 65 2z"/>
<path d="M1786 2094 c-26 -26 -18 -44 27 -63 34 -15 39 -20 24 -26 -10 -4 -23
-3 -30 4 -16 16 -37 14 -37 -4 0 -32 67 -46 94 -19 25 25 19 44 -19 60 -36 15
-47 34 -20 34 8 0 15 -4 15 -10 0 -5 9 -10 20 -10 25 0 26 12 2 33 -23 21 -56
22 -76 1z"/>
<path d="M1675 1800 c3 -5 21 -10 40 -10 l34 0 -25 -61 c-14 -34 -23 -64 -20
-67 4 -3 7 -3 9 -1 8 10 57 131 57 140 0 5 -23 9 -51 9 -31 0 -48 -4 -44 -10z"/>
<path d="M1860 1735 c0 -80 17 -104 22 -32 3 38 6 42 31 45 26 3 27 2 27 -42
0 -25 5 -46 10 -46 6 0 10 20 10 44 0 51 -18 71 -55 62 -22 -6 -25 -3 -25 19
0 14 -4 25 -10 25 -6 0 -10 -32 -10 -75z"/>
<path d="M2322 1798 c-7 -7 -12 -19 -12 -27 0 -12 3 -11 13 3 16 22 50 18 55
-6 2 -9 -16 -38 -39 -63 l-42 -45 54 2 c36 1 43 3 22 5 -40 5 -40 9 -7 44 41
43 32 98 -16 99 -9 0 -21 -5 -28 -12z"/>
<path d="M2475 1794 c-21 -21 -13 -29 13 -13 24 15 54 5 46 -15 -3 -8 -15 -17
-27 -21 -21 -6 -21 -7 6 -17 15 -5 27 -16 27 -24 0 -21 -29 -29 -52 -15 -27
16 -38 3 -14 -15 44 -32 100 0 77 44 -5 9 -7 30 -4 46 9 44 -38 63 -72 30z"/>
<path d="M2600 1800 c-10 -6 -15 -26 -15 -65 0 -57 11 -75 47 -75 29 0 48 29
48 75 0 62 -37 92 -80 65z m55 -65 c0 -47 -2 -50 -25 -50 -22 0 -25 5 -28 39
-4 52 3 68 30 64 20 -3 23 -9 23 -53z"/>
<path d="M965 1790 c-14 -22 -45 -124 -39 -129 3 -3 10 2 15 12 12 21 65 23
73 2 3 -8 10 -15 15 -15 8 0 -7 57 -34 123 -8 19 -21 22 -30 7z m29 -67 c6
-19 3 -23 -13 -23 -22 0 -25 10 -14 49 6 25 14 18 27 -26z"/>
<path d="M1558 1783 c-3 -10 -2 -40 1 -68 5 -44 9 -50 31 -53 23 -2 24 -1 8
11 -10 8 -18 28 -18 45 0 19 7 35 18 41 16 10 16 10 0 11 -10 0 -18 7 -18 15
0 21 -17 19 -22 -2z"/>
<path d="M1789 1783 c-2 -46 4 -99 13 -110 12 -15 38 -17 38 -3 0 6 -7 10 -15
10 -22 0 -20 66 3 79 16 10 16 10 0 11 -10 0 -18 7 -18 15 0 21 -20 19 -21 -2z"/>
<path d="M2179 1783 c-2 -46 4 -99 13 -110 12 -15 38 -17 38 -3 0 6 -7 10 -15
10 -22 0 -20 66 3 79 16 10 16 10 0 11 -10 0 -18 7 -18 15 0 21 -20 19 -21 -2z"/>
<path d="M1060 1726 c0 -52 14 -66 63 -64 l37 1 0 54 c0 29 -4 53 -10 53 -5 0
-10 -17 -10 -39 0 -22 -6 -44 -15 -51 -23 -19 -45 5 -45 51 0 22 -4 39 -10 39
-5 0 -10 -20 -10 -44z"/>
<path d="M1196 1752 c-35 -40 -2 -99 49 -90 20 4 25 2 23 -11 -4 -20 -44 -27
-64 -11 -7 7 -14 8 -14 3 0 -17 24 -33 50 -33 40 0 50 18 50 90 l0 67 -39 1
c-26 1 -43 -4 -55 -16z m72 -40 c-2 -21 -9 -28 -30 -30 -23 -3 -29 2 -34 24
-5 20 -2 31 11 40 27 20 57 0 53 -34z"/>
<path d="M1320 1731 c0 -49 20 -71 65 -69 l35 1 0 54 c0 29 -4 53 -10 53 -5 0
-10 -17 -10 -39 0 -22 -6 -44 -15 -51 -23 -19 -45 5 -45 51 0 22 -4 39 -10 39
-5 0 -10 -18 -10 -39z"/>
<path d="M1454 1755 c-9 -23 2 -43 27 -47 12 -2 25 -9 27 -17 4 -11 -2 -13
-27 -8 -34 7 -43 -8 -11 -18 55 -18 85 34 30 54 -41 14 -40 35 1 27 27 -5 30
-4 19 9 -16 19 -59 19 -66 0z"/>
<path d="M2055 1754 c-17 -17 -19 -52 -5 -74 5 -9 27 -15 55 -16 l45 -2 0 52
0 52 -40 1 c-24 1 -46 -4 -55 -13z m73 -33 c5 -32 -23 -54 -49 -40 -19 10 -26
49 -12 63 4 4 19 6 33 4 18 -2 26 -10 28 -27z"/>
<path d="M2420 1760 c0 -5 5 -10 10 -10 6 0 10 5 10 10 0 6 -4 10 -10 10 -5 0
-10 -4 -10 -10z"/>
<path d="M2710 1689 c0 -46 4 -79 10 -79 6 0 10 14 10 30 0 28 2 30 25 24 47
-12 82 44 55 86 -5 9 -27 15 -55 16 l-45 2 0 -79z m85 26 c0 -27 -3 -30 -30
-30 -21 0 -31 5 -33 18 -6 33 6 49 35 45 24 -3 28 -8 28 -33z"/>
<path d="M2840 1713 c0 -29 5 -53 10 -53 6 0 10 17 10 39 0 42 18 65 44 55 11
-4 16 -19 16 -50 0 -24 5 -44 10 -44 6 0 10 17 10 39 0 22 6 44 15 51 23 19
45 -5 45 -51 0 -22 5 -39 10 -39 14 0 12 84 -2 98 -15 15 -55 16 -63 2 -5 -8
-11 -8 -19 -1 -7 6 -29 10 -49 9 l-37 -1 0 -54z"/>
<path d="M2420 1670 c0 -5 5 -10 10 -10 6 0 10 5 10 10 0 6 -4 10 -10 10 -5 0
-10 -4 -10 -10z"/>
<path d="M2750 1000 c0 -5 5 -10 10 -10 6 0 10 5 10 10 0 6 -4 10 -10 10 -5 0
-10 -4 -10 -10z"/>
<path d="M2942 935 c0 -83 2 -87 13 -22 5 31 10 37 30 37 25 0 28 -7 38 -70 3
-14 5 -4 6 21 1 54 -16 74 -53 65 -21 -5 -25 -2 -29 21 -2 16 -4 -8 -5 -52z"/>
<path d="M3730 935 c0 -43 4 -75 10 -75 6 0 10 10 10 22 l0 21 25 -23 c14 -13
27 -21 30 -18 3 2 -4 13 -15 23 -25 23 -25 33 2 62 13 14 16 23 9 23 -7 0 -21
-10 -32 -22 l-18 -23 -1 43 c0 23 -4 42 -10 42 -6 0 -10 -32 -10 -75z"/>
<path d="M4092 998 c-15 -15 -16 -38 -2 -38 6 0 10 7 10 15 0 9 9 15 25 15 38
0 33 -41 -10 -83 -19 -19 -35 -37 -35 -41 0 -3 24 -5 53 -4 44 1 46 2 14 5
l-38 4 31 35 c44 51 37 104 -15 104 -12 0 -26 -5 -33 -12z"/>
<path d="M4212 998 c-17 -17 -15 -113 2 -128 22 -18 59 -8 74 20 14 28 10 84
-9 106 -14 17 -51 18 -67 2z m62 -24 c17 -45 2 -94 -29 -94 -27 0 -40 45 -25
85 11 28 44 34 54 9z"/>
<path d="M4336 994 c-9 -8 -16 -20 -16 -25 0 -15 17 -10 24 6 3 8 15 15 26 15
33 0 26 -46 -15 -87 -19 -19 -35 -37 -35 -39 0 -2 24 -3 53 -2 35 1 42 2 20 5
-18 2 -33 7 -33 10 0 3 11 18 25 35 14 16 25 40 25 52 0 43 -44 61 -74 30z"/>
<path d="M4452 998 c-7 -7 -12 -19 -12 -27 1 -13 3 -13 15 2 16 22 48 19 53
-5 2 -9 -13 -34 -32 -56 -20 -22 -36 -42 -36 -46 0 -3 21 -5 48 -4 36 1 39 2
15 5 -35 4 -43 17 -19 26 8 3 22 20 31 38 13 25 15 37 6 55 -12 26 -49 32 -69
12z"/>
<path d="M2160 980 c-43 -43 -11 -120 48 -120 16 0 37 9 47 20 10 11 13 20 7
20 -6 0 -14 -4 -17 -10 -9 -14 -58 -13 -73 2 -7 7 -12 24 -12 38 0 14 5 31 12
38 15 15 64 16 73 2 3 -5 11 -10 17 -10 6 0 3 9 -7 20 -10 11 -31 20 -47 20
-15 0 -37 -9 -48 -20z"/>
<path d="M3070 985 c0 -8 -5 -15 -12 -15 -9 0 -9 -3 0 -12 7 -7 12 -29 12 -50
0 -37 21 -61 38 -43 4 4 1 10 -5 12 -8 3 -13 21 -13 43 0 21 6 41 13 43 10 4
10 6 0 6 -7 1 -13 8 -13 16 0 8 -4 15 -10 15 -5 0 -10 -7 -10 -15z"/>
<path d="M3212 984 c-12 -8 -22 -23 -21 -32 0 -13 3 -11 9 5 17 42 93 42 110
0 7 -17 9 -18 9 -5 1 20 -36 48 -64 48 -11 0 -31 -7 -43 -16z"/>
<path d="M3412 988 c-22 -22 -13 -47 23 -62 41 -17 47 -46 11 -46 -13 0 -26 6
-29 13 -2 6 -8 9 -12 5 -12 -12 15 -38 39 -38 55 0 62 54 11 76 -49 20 -48 49
1 41 30 -5 34 -4 24 8 -15 18 -52 19 -68 3z"/>
<path d="M3226 964 c-32 -32 -10 -79 35 -72 12 2 25 10 27 18 5 13 3 13 -11 1
-23 -18 -47 -7 -47 23 0 28 17 37 43 24 10 -5 17 -5 17 1 0 9 -23 21 -40 21
-5 0 -16 -7 -24 -16z"/>
<path d="M2310 950 c-11 -11 -20 -27 -20 -35 0 -21 36 -55 58 -55 30 0 55 25
55 55 0 51 -56 72 -93 35z m71 -16 c17 -21 0 -48 -33 -52 -28 -3 -42 18 -33
49 8 23 48 25 66 3z"/>
<path d="M2430 888 c0 -45 4 -78 10 -78 6 0 10 14 10 30 0 28 2 30 25 24 51
-13 86 54 48 89 -11 9 -34 15 -55 14 l-38 -1 0 -78z m85 27 c0 -27 -3 -30 -30
-30 -21 0 -31 5 -33 18 -6 33 6 49 35 45 24 -3 28 -8 28 -33z"/>
<path d="M2567 933 c10 -21 17 -57 16 -81 0 -24 3 -40 7 -35 16 16 69 153 60
153 -5 0 -18 -19 -28 -42 l-18 -42 -17 42 c-9 23 -21 42 -27 42 -6 0 -3 -17 7
-37z"/>
<path d="M2681 910 c1 -30 3 -44 6 -30 9 56 14 70 28 70 8 0 15 4 15 9 0 5
-11 8 -25 7 -24 -1 -25 -4 -24 -56z"/>
<path d="M2750 915 c0 -30 5 -55 10 -55 6 0 10 25 10 55 0 30 -4 55 -10 55 -5
0 -10 -25 -10 -55z"/>
<path d="M2803 944 c-15 -24 -15 -29 -2 -53 13 -21 22 -26 53 -25 29 1 36 -2
32 -13 -3 -8 -6 -17 -6 -19 0 -9 -47 -3 -58 8 -6 6 -15 8 -19 4 -11 -11 26
-36 53 -36 34 0 54 36 54 100 l0 56 -45 2 c-38 1 -47 -2 -62 -24z m72 0 c19
-20 16 -43 -7 -58 -21 -13 -51 2 -56 26 -3 16 23 48 38 48 5 0 16 -7 25 -16z"/>
<path d="M3526 952 c-37 -42 -6 -93 57 -90 l37 1 0 52 0 52 -39 1 c-26 1 -43
-4 -55 -16z m72 -34 c4 -34 -26 -54 -53 -34 -13 9 -16 20 -11 40 5 22 11 27
34 24 21 -2 28 -9 30 -30z"/>
<path d="M3650 913 c0 -29 5 -53 10 -53 6 0 10 18 10 41 0 32 4 42 20 46 30 8
24 20 -10 20 -30 0 -30 -1 -30 -54z"/>
<path d="M3848 959 c-25 -14 -24 -75 1 -89 27 -14 56 -13 70 4 9 11 4 13 -25
12 -22 -1 -39 4 -41 12 -3 8 8 12 36 12 34 0 41 3 41 20 0 33 -47 50 -82 29z
m60 -26 c2 -9 -7 -13 -27 -13 -30 0 -39 9 -24 24 11 10 46 3 51 -11z"/>
<path d="M3961 910 c1 -30 3 -44 6 -30 9 56 14 70 28 70 8 0 15 4 15 9 0 5
-11 8 -25 7 -24 -1 -25 -4 -24 -56z"/>
<path d="M3191 908 c-1 -20 36 -48 64 -48 28 0 65 28 64 48 0 13 -2 12 -9 -5
-17 -42 -93 -42 -110 0 -6 16 -9 18 -9 5z"/>
<path d="M3191 640 l-1 -76 42 1 c35 0 45 5 57 26 13 24 13 29 -3 54 -15 23
-23 26 -51 22 -31 -5 -34 -3 -38 21 -2 15 -5 -7 -6 -48z m84 -9 c9 -31 -5 -52
-33 -49 -33 4 -50 31 -33 52 18 22 58 20 66 -3z"/>
<path d="M3068 633 c-26 -69 -27 -92 -4 -60 17 22 62 22 75 0 5 -10 12 -15 15
-12 9 9 -37 132 -50 136 -6 2 -22 -27 -36 -64z m40 -31 c-28 -5 -30 0 -16 39
l11 33 12 -34 c11 -32 10 -35 -7 -38z"/>
<path d="M3579 683 c-5 -82 7 -123 34 -123 20 1 20 2 5 11 -12 7 -18 22 -18
49 0 28 5 40 18 43 16 4 16 5 0 6 -10 0 -18 8 -18 16 0 21 -20 19 -21 -2z"/>
<path d="M3338 658 c-31 -24 -27 -74 7 -90 41 -18 75 3 75 46 0 49 -45 72 -82
44z m63 -24 c17 -21 0 -48 -33 -52 -28 -3 -42 18 -33 49 8 23 48 25 66 3z"/>
<path d="M3450 626 c0 -52 12 -65 63 -63 l37 1 0 53 c0 29 -4 53 -10 53 -5 0
-10 -17 -10 -39 0 -42 -18 -65 -44 -55 -11 4 -16 19 -16 50 0 24 -4 44 -10 44
-5 0 -10 -20 -10 -44z"/>
<path d="M3040 540 c0 -6 105 -10 295 -10 190 0 295 4 295 10 0 6 -105 10
-295 10 -190 0 -295 -4 -295 -10z"/>
<path d="M1808 93 c844 -2 2221 -2 3060 0 840 1 150 2 -1533 2 -1683 0 -2370
-1 -1527 -2z"/>
</g>
</svg>
