<?xml version="1.0" standalone="no"?>
<!DOCTYPE svg PUBLIC "-//W3C//DTD SVG 20010904//EN"
 "http://www.w3.org/TR/2001/REC-SVG-20010904/DTD/svg10.dtd">
<svg version="1.0" xmlns="http://www.w3.org/2000/svg"
 width="1904.000000pt" height="976.000000pt" viewBox="0 0 1904.000000 976.000000"
 preserveAspectRatio="xMidYMid meet">

<g transform="translate(0.000000,976.000000) scale(0.100000,-0.100000)"
fill="#000000" stroke="none">
<path d="M7998 9243 c844 -2 2221 -2 3060 0 840 1 150 2 -1533 2 -1683 0
-2370 -1 -1527 -2z"/>
<path d="M6405 4590 c0 -2527 1 -3561 2 -2298 2 1264 2 3332 0 4595 -1 1264
-2 230 -2 -2297z"/>
<path d="M12645 4590 c0 -2527 1 -3561 2 -2298 2 1264 2 3332 0 4595 -1 1264
-2 230 -2 -2297z"/>
<path d="M11200 8780 c-19 -19 -20 -33 -20 -250 0 -217 1 -231 20 -250 19 -19
33 -20 490 -20 457 0 471 1 490 20 19 19 20 33 20 250 0 217 -1 231 -20 250
-19 19 -33 20 -490 20 -457 0 -471 -1 -490 -20z m400 -245 c0 -43 -4 -75 -10
-75 -6 0 -10 32 -10 75 0 43 4 75 10 75 6 0 10 -32 10 -75z m-55 45 c16 -18
16 -20 2 -20 -10 0 -17 5 -17 10 0 6 -14 10 -30 10 -23 0 -33 -6 -42 -25 -17
-38 3 -75 42 -75 16 0 30 5 30 10 0 6 7 10 17 10 14 0 14 -2 -2 -20 -26 -29
-69 -26 -94 6 -12 15 -21 34 -21 44 0 10 9 29 21 44 25 32 68 35 94 6z m172
-36 c15 -24 15 -29 2 -53 -11 -19 -23 -26 -44 -26 -21 0 -33 7 -44 26 -13 24
-13 29 2 53 11 16 27 26 42 26 15 0 31 -10 42 -26z m101 9 c2 -9 -5 -11 -29
-6 -38 7 -33 -12 8 -28 37 -14 29 -54 -11 -54 -16 0 -31 6 -34 13 -3 9 3 11
21 7 36 -9 42 11 7 24 -29 9 -40 37 -23 55 11 11 56 3 61 -11z m106 1 c29 -28
20 -44 -25 -44 -28 0 -39 -4 -36 -12 2 -8 19 -12 42 -11 32 2 35 1 25 -12 -27
-33 -90 -4 -90 41 0 27 25 54 50 54 10 0 26 -7 34 -16z"/>
<path d="M11645 8531 c-9 -28 5 -51 31 -51 17 0 25 7 30 24 3 14 3 30 -1 35
-11 18 -53 13 -60 -8z"/>
<path d="M11867 8544 c-15 -15 -6 -24 24 -24 20 0 29 4 27 13 -5 14 -40 21
-51 11z"/>
<path d="M7510 8545 l0 -155 30 0 c28 0 30 3 30 37 l0 37 38 -37 c28 -28 46
-37 71 -37 l34 0 -52 54 c-28 30 -51 58 -51 62 0 3 23 33 51 65 l51 59 -35 0
c-29 0 -42 -7 -71 -42 l-36 -42 0 77 0 77 -30 0 -30 0 0 -155z"/>
<path d="M8710 8545 l0 -155 25 0 c23 0 25 4 25 42 l0 42 36 -42 c29 -35 42
-42 71 -42 l35 0 -52 60 -52 61 53 57 54 57 -35 3 c-30 3 -39 -2 -72 -40 l-37
-43 -1 78 c0 75 -1 77 -25 77 l-25 0 0 -155z"/>
<path d="M6800 8665 c0 -23 4 -25 40 -25 l40 0 0 -125 0 -125 25 0 25 0 0 125
0 125 41 0 c36 0 40 2 37 23 -3 21 -8 22 -105 25 l-103 3 0 -26z"/>
<path d="M7810 8665 c0 -23 4 -25 40 -25 l40 0 0 -125 0 -125 25 0 25 0 0 124
0 125 38 3 c29 2 37 7 37 23 0 19 -8 20 -102 23 l-103 3 0 -26z"/>
<path d="M7104 8623 c-32 -6 -74 -56 -80 -95 -15 -91 81 -168 159 -127 16 9
22 9 25 0 2 -6 15 -11 28 -11 l24 0 0 120 0 120 -25 0 c-16 0 -25 -6 -25 -16
0 -12 -3 -14 -12 -6 -16 12 -67 21 -94 15z m81 -68 c14 -13 25 -36 25 -50 0
-54 -71 -85 -112 -48 -24 22 -24 77 2 103 27 27 56 25 85 -5z"/>
<path d="M7344 8616 c-17 -8 -34 -21 -38 -31 -18 -48 5 -78 75 -98 53 -15 59
-41 11 -45 -22 -2 -34 2 -38 12 -4 9 -18 16 -34 16 -23 0 -27 -4 -23 -19 8
-32 39 -53 85 -58 54 -6 98 23 98 67 0 33 -11 43 -75 67 -55 20 -67 46 -23 51
19 2 30 -3 38 -17 12 -24 60 -29 60 -7 0 25 -43 66 -75 71 -16 3 -44 -1 -61
-9z"/>
<path d="M8047 8623 c-4 -3 -7 -57 -7 -120 l0 -113 30 0 30 0 0 78 c0 83 9
102 47 102 19 0 23 5 23 30 0 33 -5 35 -44 20 -16 -6 -27 -6 -31 0 -7 11 -38
13 -48 3z"/>
<path d="M8242 8613 c-58 -28 -79 -102 -47 -163 26 -51 99 -75 148 -49 16 9
22 9 25 0 2 -6 15 -11 28 -11 l24 0 0 120 0 120 -25 0 c-15 0 -25 -6 -25 -14
0 -13 -4 -13 -35 0 -43 18 -52 17 -93 -3z m99 -51 c45 -38 17 -122 -41 -122
-58 0 -86 84 -41 122 13 10 31 18 41 18 10 0 28 -8 41 -18z"/>
<path d="M8540 8623 c-61 -20 -90 -57 -90 -113 0 -73 60 -127 132 -117 45 6
63 19 84 59 14 27 14 28 -13 28 -17 0 -33 -8 -41 -20 -15 -24 -73 -27 -92 -5
-6 8 -12 30 -13 49 -2 65 62 101 100 56 10 -11 30 -20 45 -20 l29 0 -16 31
c-22 42 -82 67 -125 52z"/>
<path d="M8963 8615 c-67 -29 -85 -130 -34 -187 27 -30 35 -33 86 -33 50 0 60
3 81 28 13 15 24 35 24 43 0 22 -48 17 -60 -7 -16 -28 -77 -23 -98 9 l-14 22
91 0 91 0 0 28 c0 44 -34 89 -77 101 -47 13 -51 13 -90 -4z m88 -45 c34 -19
20 -30 -36 -30 -56 0 -69 11 -37 29 22 13 48 14 73 1z"/>
<path d="M9160 8510 l0 -120 25 0 c24 0 25 2 25 71 0 82 11 109 45 109 21 0
25 5 25 31 0 21 -4 30 -12 26 -42 -15 -58 -17 -58 -8 0 6 -11 11 -25 11 l-25
0 0 -120z"/>
<path d="M7150 7805 c0 -43 4 -75 10 -75 6 0 10 10 10 22 l0 21 25 -23 c14
-13 27 -21 30 -18 3 2 -4 13 -15 23 -11 10 -20 23 -20 30 0 7 9 20 20 30 11
10 18 21 15 23 -3 3 -16 -5 -30 -18 l-25 -23 0 41 c0 23 -4 42 -10 42 -6 0
-10 -32 -10 -75z"/>
<path d="M6808 7863 c20 -4 22 -10 22 -69 0 -36 4 -64 10 -64 6 0 10 27 10 60
0 54 3 62 23 70 17 7 9 9 -33 8 -30 0 -45 -3 -32 -5z"/>
<path d="M6913 7814 c-15 -24 -15 -29 -2 -53 13 -22 22 -26 62 -27 l47 -1 0
51 0 52 -45 2 c-38 1 -47 -2 -62 -24z m77 -9 c23 -28 -9 -72 -45 -59 -36 14
-24 74 15 74 10 0 23 -7 30 -15z"/>
<path d="M7050 7826 c-16 -20 -1 -41 35 -50 40 -10 30 -29 -11 -23 -31 5 -34
4 -23 -9 19 -23 63 -14 67 14 3 18 -3 25 -27 33 -41 14 -41 33 0 25 22 -4 29
-2 27 7 -7 18 -53 20 -68 3z"/>
<path d="M6855 7567 c-3 -7 -4 -118 -3 -247 l3 -235 2735 0 2735 0 0 245 0
245 -2733 3 c-2204 2 -2734 0 -2737 -11z m5465 -237 l0 -240 -2730 0 -2730 0
0 240 0 240 2730 0 2730 0 0 -240z"/>
<path d="M6980 7345 c0 -43 4 -75 10 -75 6 0 10 26 10 58 l0 57 38 -57 c51
-79 62 -76 62 17 0 87 -18 102 -22 18 l-3 -57 -38 57 c-20 31 -42 57 -47 57
-6 0 -10 -32 -10 -75z"/>
<path d="M7450 7410 c0 -5 11 -10 25 -10 24 0 25 -2 25 -65 0 -37 4 -65 10
-65 6 0 10 28 10 65 0 63 1 65 25 65 14 0 25 5 25 10 0 6 -27 10 -60 10 -33 0
-60 -4 -60 -10z"/>
<path d="M7790 7345 c0 -43 4 -75 10 -75 6 0 10 11 10 25 0 14 4 25 8 25 5 0
15 -11 22 -25 7 -14 20 -25 27 -25 11 0 9 7 -6 29 -25 35 -26 44 -6 61 9 7 13
15 10 18 -3 3 -16 -5 -30 -18 l-25 -23 0 41 c0 23 -4 42 -10 42 -6 0 -10 -32
-10 -75z"/>
<path d="M7134 7354 c-16 -24 -16 -29 -3 -53 17 -30 60 -39 79 -17 11 14 9 15
-20 10 -22 -5 -35 -3 -41 7 -7 11 1 15 36 19 44 5 44 5 32 30 -18 37 -61 39
-83 4z m66 -9 c0 -9 -9 -15 -25 -15 -16 0 -25 6 -25 15 0 9 9 15 25 15 16 0
25 -6 25 -15z"/>
<path d="M7240 7372 c0 -21 33 -102 41 -102 5 0 12 14 16 30 8 44 20 45 27 4
9 -47 26 -39 47 25 13 36 14 51 6 48 -6 -2 -16 -21 -21 -43 l-10 -39 -11 39
c-14 50 -31 56 -40 17 -9 -44 -22 -46 -29 -6 -4 19 -11 35 -16 35 -6 0 -10 -4
-10 -8z"/>
<path d="M7570 7365 c-10 -12 -6 -13 26 -8 29 5 36 3 32 -8 -3 -8 -18 -16 -34
-19 -23 -4 -29 -10 -29 -30 0 -23 4 -25 46 -26 l47 -1 -5 41 c-3 23 -6 47 -9
54 -5 17 -59 15 -74 -3z m60 -59 c0 -18 -30 -30 -43 -17 -5 5 -6 14 -3 20 10
16 46 13 46 -3z"/>
<path d="M7693 7373 c-27 -10 -13 -40 25 -55 32 -13 34 -16 18 -23 -11 -5 -26
-3 -37 4 -15 9 -19 8 -19 -4 0 -19 48 -31 69 -18 25 16 19 37 -16 53 -41 19
-43 34 -3 27 31 -7 42 6 14 17 -18 7 -33 7 -51 -1z"/>
<path d="M7555 6690 c-3 -5 1 -10 10 -10 9 0 13 5 10 10 -3 6 -8 10 -10 10 -2
0 -7 -4 -10 -10z"/>
<path d="M6800 6620 l0 -70 40 0 c49 0 80 27 80 70 0 43 -31 70 -80 70 l-40 0
0 -70z m88 37 c23 -18 10 -70 -21 -85 -15 -7 -32 -10 -37 -7 -11 7 -14 98 -3
108 8 8 42 -1 61 -16z"/>
<path d="M7264 6676 c-3 -8 -4 -21 -2 -28 3 -7 -2 -19 -9 -27 -36 -35 6 -83
57 -64 17 6 32 7 36 2 3 -5 10 -9 16 -9 7 0 6 5 -2 15 -6 8 -9 23 -5 35 7 21
-10 29 -18 8 -3 -9 -13 -5 -31 11 -35 32 -35 55 0 47 19 -5 25 -3 22 6 -7 19
-57 22 -64 4z m39 -74 c20 -22 13 -32 -20 -32 -16 0 -23 6 -23 18 0 35 19 41
43 14z"/>
<path d="M7458 6680 c19 -8 22 -16 22 -70 0 -33 4 -60 10 -60 6 0 10 28 10 64
0 53 3 65 18 69 9 3 -5 5 -33 5 -39 1 -45 -1 -27 -8z"/>
<path d="M6955 6644 c-17 -17 -19 -52 -5 -74 5 -9 27 -15 55 -16 l45 -2 0 52
0 52 -40 1 c-24 1 -46 -4 -55 -13z m73 -33 c5 -32 -23 -54 -49 -40 -19 10 -26
49 -12 63 4 4 19 6 33 4 18 -2 26 -10 28 -27z"/>
<path d="M7070 6656 c0 -2 9 -26 20 -52 17 -38 19 -53 11 -76 -7 -20 -7 -28 0
-26 10 3 69 133 69 150 0 13 -20 9 -20 -4 -1 -7 -7 -26 -14 -43 l-13 -30 -18
43 c-9 23 -21 42 -26 42 -5 0 -9 -2 -9 -4z"/>
<path d="M7563 6605 c0 -33 2 -45 4 -27 2 18 2 45 0 60 -2 15 -4 0 -4 -33z"/>
<path d="M7600 6603 c0 -29 5 -53 10 -53 6 0 10 17 10 39 0 42 18 65 44 55 11
-4 16 -19 16 -50 0 -24 5 -44 10 -44 6 0 10 17 10 39 0 42 18 65 44 55 11 -4
16 -19 16 -50 0 -24 5 -44 10 -44 14 0 12 84 -2 98 -15 15 -55 16 -63 2 -4 -7
-11 -8 -18 -1 -7 5 -29 9 -49 8 l-38 -1 0 -53z"/>
<path d="M7813 6634 c-15 -24 -15 -29 -2 -53 17 -31 55 -38 84 -16 19 14 17
15 -22 9 -36 -5 -43 -4 -43 10 0 12 10 16 40 16 44 0 52 16 24 44 -24 25 -61
20 -81 -10z m75 -11 c2 -9 -8 -13 -32 -13 -28 0 -34 3 -29 16 7 18 54 16 61
-3z"/>
<path d="M6855 6397 c-3 -7 -4 -118 -3 -247 l3 -235 2735 0 2735 0 0 245 0
245 -2733 3 c-2204 2 -2734 0 -2737 -11z m5455 -237 l0 -230 -2720 0 -2720 0
0 230 0 230 2720 0 2720 0 0 -230z"/>
<path d="M6992 6165 c-22 -53 -27 -75 -17 -75 7 0 15 9 18 20 4 15 14 20 40
20 27 0 37 -5 42 -20 6 -19 25 -29 25 -13 0 20 -57 143 -66 143 -6 0 -25 -34
-42 -75z m46 -13 c-27 -5 -30 1 -17 34 l11 29 12 -30 c11 -27 11 -30 -6 -33z"/>
<path d="M7690 6230 c0 -5 16 -10 35 -10 l36 0 -17 -32 c-10 -18 -21 -48 -25
-66 -11 -48 11 -36 26 15 7 22 20 51 29 64 24 35 21 39 -34 39 -27 0 -50 -4
-50 -10z"/>
<path d="M7870 6165 c0 -43 4 -75 10 -75 6 0 10 13 10 29 0 42 10 61 31 61 18
0 22 -9 33 -70 2 -14 3 0 2 30 l-1 55 -32 -1 c-29 -2 -33 1 -33 22 0 13 -4 24
-10 24 -6 0 -10 -32 -10 -75z"/>
<path d="M8300 6225 c-7 -9 -9 -19 -5 -23 4 -4 10 -1 12 6 3 6 16 12 29 12 34
0 31 -30 -7 -66 -17 -16 -35 -37 -40 -46 -9 -16 -4 -18 41 -18 27 0 50 5 50
10 0 6 -17 10 -37 10 l-38 0 38 31 c38 31 48 64 25 87 -17 17 -53 15 -68 -3z"/>
<path d="M8475 6224 c-9 -9 -13 -19 -10 -22 3 -3 11 0 17 6 17 17 48 15 48 -3
0 -9 -7 -18 -15 -21 -12 -5 -11 -9 7 -23 13 -11 19 -24 15 -34 -7 -20 -38 -22
-55 -5 -6 6 -15 8 -19 4 -10 -10 25 -36 48 -36 36 0 66 58 39 75 -6 4 -8 16
-5 26 13 41 -38 65 -70 33z"/>
<path d="M8597 6222 c-22 -24 -22 -95 -1 -116 22 -22 50 -20 68 6 46 66 -16
166 -67 110z m57 -18 c9 -22 7 -67 -3 -82 -5 -8 -17 -12 -27 -10 -14 2 -20 13
-22 42 -2 21 -1 44 2 52 7 19 42 18 50 -2z"/>
<path d="M7578 6213 c-2 -10 -1 -40 2 -68 4 -37 9 -51 23 -53 9 -2 17 1 17 7
0 6 -4 11 -10 11 -14 0 -12 64 2 78 9 9 9 12 0 12 -7 0 -12 7 -12 15 0 21 -18
19 -22 -2z"/>
<path d="M7818 6213 c-2 -10 -1 -40 2 -68 4 -37 9 -51 23 -53 9 -2 17 1 17 7
0 6 -4 11 -10 11 -15 0 -12 77 3 83 10 4 10 6 0 6 -7 1 -13 8 -13 16 0 21 -18
19 -22 -2z"/>
<path d="M8168 6213 c-2 -10 -1 -40 2 -68 4 -37 9 -51 23 -53 9 -2 17 1 17 7
0 6 -4 11 -10 11 -14 0 -12 64 2 78 9 9 9 12 0 12 -7 0 -12 7 -12 15 0 21 -18
19 -22 -2z"/>
<path d="M7120 6150 c0 -53 5 -57 68 -58 20 -1 22 4 22 54 0 64 -17 73 -22 12
-2 -36 -7 -44 -25 -46 -21 -3 -23 1 -23 42 0 25 -4 46 -10 46 -5 0 -10 -22
-10 -50z"/>
<path d="M7245 6184 c-34 -35 -5 -100 42 -91 27 5 31 -8 5 -22 -11 -6 -24 -6
-33 0 -22 14 -33 11 -19 -6 7 -8 23 -15 36 -15 38 0 54 25 54 89 l0 58 -35 1
c-19 1 -41 -5 -50 -14z m60 -39 c0 -25 -4 -30 -25 -30 -16 0 -26 6 -28 18 -6
30 6 49 30 45 18 -2 23 -9 23 -33z"/>
<path d="M7350 6164 c0 -55 15 -74 55 -71 l35 2 0 53 c0 28 -4 52 -10 52 -5 0
-10 -21 -10 -46 0 -41 -2 -45 -22 -42 -19 2 -24 10 -26 46 -4 51 -22 57 -22 6z"/>
<path d="M7480 6186 c-16 -20 -1 -41 35 -50 14 -4 25 -11 25 -16 0 -14 -44
-12 -58 2 -7 7 -12 8 -12 2 0 -32 58 -46 80 -19 18 22 6 42 -29 50 -41 9 -41
29 0 21 22 -4 29 -2 27 7 -7 18 -53 20 -68 3z"/>
<path d="M8061 6186 c-11 -13 -8 -14 23 -9 46 7 49 -13 4 -25 -26 -6 -33 -14
-33 -33 0 -22 4 -24 45 -25 l45 -1 -5 51 c-5 48 -7 51 -36 54 -18 2 -36 -3
-43 -12z m59 -56 c0 -15 -38 -32 -45 -20 -3 5 -3 15 0 20 8 13 45 13 45 0z"/>
<path d="M8410 6190 c0 -5 5 -10 10 -10 6 0 10 5 10 10 0 6 -4 10 -10 10 -5 0
-10 -4 -10 -10z"/>
<path d="M8700 6123 c0 -42 4 -73 10 -73 6 0 10 11 10 24 0 19 4 22 24 19 17
-4 28 2 40 18 33 47 9 89 -49 87 l-35 -1 0 -74z m70 53 c6 -8 10 -25 8 -38 -2
-17 -10 -23 -28 -23 -18 0 -26 6 -28 23 -3 22 13 52 28 52 4 0 13 -7 20 -14z"/>
<path d="M8820 6144 c0 -30 5 -54 10 -54 6 0 10 20 10 44 0 28 5 46 14 49 21
8 26 -2 26 -50 0 -23 5 -43 10 -43 6 0 10 15 10 33 0 38 22 73 38 63 7 -4 12
-27 12 -52 0 -24 5 -44 10 -44 15 0 12 87 -2 97 -7 4 -41 8 -75 9 l-63 2 0
-54z"/>
<path d="M8410 6100 c0 -5 5 -10 10 -10 6 0 10 5 10 10 0 6 -4 10 -10 10 -5 0
-10 -4 -10 -10z"/>
<path d="M10358 5523 c28 -2 76 -2 105 0 28 2 5 3 -53 3 -58 0 -81 -1 -52 -3z"/>
<path d="M10294 5405 c0 -66 1 -92 3 -57 2 34 2 88 0 120 -2 31 -3 3 -3 -63z"/>
<path d="M7620 5480 c0 -5 5 -10 10 -10 6 0 10 5 10 10 0 6 -4 10 -10 10 -5 0
-10 -4 -10 -10z"/>
<path d="M7890 5466 c0 -23 -3 -24 -34 -19 -29 4 -37 1 -52 -22 -16 -25 -16
-30 -3 -54 13 -22 22 -26 62 -27 l47 -1 0 74 c0 42 -4 73 -10 73 -5 0 -10 -11
-10 -24z m-10 -51 c23 -28 -9 -72 -45 -59 -36 14 -24 74 15 74 10 0 23 -7 30
-15z"/>
<path d="M6810 5465 c-18 -22 -8 -47 25 -58 50 -16 56 -47 10 -47 -13 0 -25 6
-28 13 -2 6 -8 9 -12 5 -11 -11 14 -38 35 -38 34 0 50 12 50 37 0 18 -9 28
-35 39 -49 20 -48 49 1 41 30 -5 34 -4 24 8 -16 19 -54 19 -70 0z"/>
<path d="M7048 5463 c-3 -10 -2 -40 1 -68 5 -44 9 -50 31 -53 23 -2 24 -1 8
11 -11 9 -18 28 -18 50 0 25 5 37 18 40 16 4 16 5 0 6 -10 0 -18 8 -18 16 0
21 -17 19 -22 -2z"/>
<path d="M7170 5410 c0 -40 4 -70 10 -70 6 0 10 14 10 30 0 17 4 30 9 30 6 0
18 -13 28 -30 9 -16 21 -30 25 -30 12 0 10 13 -7 37 -13 19 -13 22 0 27 20 7
20 62 -1 70 -9 3 -29 6 -45 6 l-29 0 0 -70z m65 44 c19 -19 4 -44 -26 -44 -14
0 -19 7 -19 30 0 34 19 40 45 14z"/>
<path d="M6923 5424 c-15 -24 -15 -29 -2 -53 17 -31 55 -38 84 -16 19 14 17
15 -22 9 -36 -5 -43 -4 -43 10 0 12 10 16 40 16 44 0 52 16 24 44 -24 25 -61
20 -81 -10z m75 -11 c2 -9 -8 -13 -32 -13 -28 0 -34 3 -29 16 7 18 54 16 61
-3z"/>
<path d="M7308 5439 c-25 -14 -24 -75 1 -89 27 -14 56 -13 70 4 9 11 4 13 -25
12 -22 -1 -39 4 -41 12 -3 8 8 12 36 12 34 0 41 3 41 20 0 33 -47 50 -82 29z
m60 -26 c2 -9 -7 -13 -27 -13 -30 0 -39 9 -24 24 11 10 46 3 51 -11z"/>
<path d="M7421 5390 l1 -55 9 44 c15 76 59 79 59 5 0 -24 5 -44 10 -44 6 0 10
15 10 34 0 38 23 68 45 60 10 -4 15 -21 15 -50 0 -24 5 -44 10 -44 6 0 10 20
10 44 0 56 -19 74 -61 59 -17 -7 -31 -7 -35 -2 -3 5 -21 8 -40 6 l-34 -2 1
-55z"/>
<path d="M7620 5395 c0 -30 5 -55 10 -55 6 0 10 25 10 55 0 30 -4 55 -10 55
-5 0 -10 -25 -10 -55z"/>
<path d="M7670 5393 c0 -29 5 -53 10 -53 6 0 10 17 10 39 0 22 6 44 15 51 23
19 45 -5 45 -51 0 -22 5 -39 10 -39 15 0 12 86 -3 99 -8 6 -30 10 -50 9 l-37
-1 0 -54z"/>
<path d="M7946 5434 c-34 -33 -9 -94 38 -94 13 0 29 6 35 14 9 11 4 13 -25 12
-22 -1 -39 4 -41 12 -3 8 9 12 41 12 50 0 54 4 30 38 -18 26 -56 29 -78 6z
m68 -19 c4 -12 -3 -15 -29 -15 -33 0 -43 8 -28 23 12 13 51 7 57 -8z"/>
<path d="M8060 5394 c0 -30 5 -54 10 -54 6 0 10 18 10 40 0 27 5 43 15 46 23
9 18 22 -10 22 -24 0 -25 -4 -25 -54z"/>
<path d="M10358 5283 c28 -2 76 -2 105 0 28 2 5 3 -53 3 -58 0 -81 -1 -52 -3z"/>
<path d="M6870 4950 c-19 -19 -20 -33 -20 -250 0 -217 1 -231 20 -250 20 -20
33 -20 2720 -20 2687 0 2700 0 2720 20 19 19 20 33 20 250 0 217 -1 231 -20
250 -20 20 -33 20 -2720 20 -2687 0 -2700 0 -2720 -20z m2578 -195 c3 -16 1
-18 -9 -7 -18 17 -49 15 -49 -4 0 -8 13 -20 30 -25 52 -18 48 -79 -5 -79 -25
0 -52 26 -40 38 4 4 10 1 12 -5 3 -7 16 -13 29 -13 36 0 30 27 -11 44 -37 16
-46 41 -23 64 19 19 62 11 66 -13z m132 -60 l0 -52 -37 -1 c-46 -2 -63 12 -63
52 0 42 16 56 62 54 l38 -1 0 -52z m53 13 c10 -28 17 -38 21 -28 3 8 10 27 15
43 6 15 15 27 21 27 5 0 1 -23 -10 -50 -11 -28 -20 -53 -20 -55 0 -3 -4 -5
-10 -5 -9 0 -29 39 -44 88 -14 42 12 22 27 -20z m161 26 c29 -28 20 -44 -25
-44 -28 0 -39 -4 -36 -12 2 -7 18 -12 36 -12 33 2 42 -10 15 -20 -25 -10 -42
-7 -58 10 -32 32 -10 94 34 94 10 0 26 -7 34 -16z"/>
<path d="M9501 4711 c-16 -30 -3 -53 28 -49 22 2 26 8 26 33 0 23 -5 31 -22
33 -14 2 -26 -4 -32 -17z"/>
<path d="M9737 4724 c-15 -15 -6 -24 24 -24 20 0 29 4 27 13 -5 14 -40 21 -51
11z"/>
<path d="M6850 3480 l0 -450 30 0 30 0 0 450 0 450 -30 0 -30 0 0 -450z"/>
<path d="M8770 3640 c0 -73 3 -90 15 -90 12 0 15 17 15 90 0 73 -3 90 -15 90
-12 0 -15 -17 -15 -90z"/>
<path d="M7180 3635 l0 -85 40 0 c51 0 85 16 99 47 31 68 -13 123 -99 123
l-40 0 0 -85z m107 29 c15 -24 15 -29 2 -53 -10 -18 -24 -27 -47 -29 l-32 -3
0 55 c0 55 0 56 30 56 21 0 35 -8 47 -26z"/>
<path d="M7637 3701 c-7 -27 4 -124 15 -138 14 -18 58 -17 58 1 0 7 -9 16 -20
19 -15 4 -20 14 -20 41 0 29 4 36 20 36 11 0 20 7 20 15 0 8 -9 15 -20 15 -11
0 -20 7 -20 15 0 21 -27 19 -33 -4z"/>
<path d="M8190 3716 c0 -3 -13 -41 -30 -85 -28 -77 -29 -81 -10 -81 11 0 20 7
20 15 0 21 66 20 78 -1 5 -9 16 -14 24 -13 23 6 -39 169 -64 169 -10 0 -18 -2
-18 -4z m30 -65 c0 -5 3 -16 6 -25 4 -12 0 -16 -16 -16 -16 0 -20 4 -16 16 3
9 6 20 6 25 0 5 5 9 10 9 6 0 10 -4 10 -9z"/>
<path d="M8980 3706 c0 -8 -6 -16 -12 -19 -10 -4 -10 -7 0 -18 6 -7 12 -31 12
-54 0 -46 13 -65 47 -65 28 0 30 20 3 27 -16 4 -20 14 -20 43 0 29 4 39 20 43
11 3 20 10 20 16 0 6 -9 11 -20 11 -11 0 -20 7 -20 15 0 8 -7 15 -15 15 -8 0
-15 -6 -15 -14z"/>
<path d="M9600 3706 c0 -8 -6 -16 -12 -19 -10 -4 -10 -7 0 -18 6 -7 12 -31 12
-54 0 -46 13 -65 47 -65 28 0 30 20 3 27 -16 4 -20 14 -20 43 0 29 4 39 20 43
11 3 20 10 20 16 0 6 -9 11 -20 11 -11 0 -20 7 -20 15 0 8 -7 15 -15 15 -8 0
-15 -6 -15 -14z"/>
<path d="M11794 3699 c-3 -6 6 -23 20 -38 l26 -27 -25 -24 c-29 -27 -31 -38
-9 -47 8 -3 25 4 40 17 l24 23 24 -23 c15 -13 32 -20 40 -17 22 9 20 20 -9 47
l-25 24 26 27 c42 44 11 69 -33 27 l-23 -21 -23 21 c-26 24 -42 28 -53 11z"/>
<path d="M7360 3670 c-41 -41 -12 -120 45 -120 31 0 75 41 75 70 0 29 -44 70
-75 70 -14 0 -34 -9 -45 -20z m80 -30 c22 -40 -26 -80 -58 -48 -25 25 -6 68
30 68 9 0 22 -9 28 -20z"/>
<path d="M7510 3670 c-60 -60 18 -153 88 -104 27 19 28 34 2 34 -11 0 -20 -4
-20 -10 0 -5 -11 -10 -24 -10 -27 0 -41 27 -31 60 7 21 55 29 55 10 0 -5 9
-10 20 -10 26 0 25 15 -2 34 -31 22 -64 20 -88 -4z"/>
<path d="M7742 3674 c-16 -11 -22 -25 -22 -54 0 -29 6 -43 22 -54 49 -35 111
-4 111 54 0 58 -62 89 -111 54z m73 -54 c0 -32 -2 -35 -30 -35 -24 0 -31 5
-33 23 -6 38 5 54 35 50 25 -3 28 -7 28 -38z"/>
<path d="M7870 3619 c0 -62 2 -69 20 -69 17 0 20 7 20 51 0 42 3 52 20 56 36
10 23 30 -20 30 l-40 0 0 -68z"/>
<path d="M7970 3675 c-19 -23 -8 -49 28 -64 17 -8 32 -18 32 -23 0 -12 -38
-10 -42 3 -2 6 -12 10 -21 8 -30 -7 7 -49 42 -49 59 0 68 55 13 79 -36 16 -42
31 -12 31 11 0 20 -4 20 -10 0 -5 7 -10 15 -10 22 0 19 27 -4 40 -28 14 -56
13 -71 -5z"/>
<path d="M8300 3588 c0 -88 2 -98 18 -98 15 0 17 6 14 35 -4 34 -4 35 27 29
48 -10 81 17 81 66 0 50 -26 69 -92 68 l-48 -1 0 -99z m104 50 c15 -25 -4 -53
-35 -53 -25 0 -37 30 -25 61 8 20 46 14 60 -8z"/>
<path d="M8460 3588 c0 -80 3 -98 15 -98 10 0 15 10 15 34 0 34 1 35 34 29 42
-7 76 23 76 67 0 47 -30 69 -89 68 l-51 -1 0 -99z m100 57 c26 -32 -13 -81
-47 -59 -35 22 -23 74 17 74 10 0 23 -7 30 -15z"/>
<path d="M8632 3667 c-27 -29 -28 -71 -2 -97 42 -42 120 -10 120 50 0 63 -75
93 -118 47z m78 -22 c26 -32 -13 -81 -47 -59 -35 22 -23 74 17 74 10 0 23 -7
30 -15z"/>
<path d="M8830 3619 c0 -54 3 -69 14 -69 11 0 16 15 18 53 3 48 5 52 28 52 23
0 25 -4 28 -52 2 -38 7 -53 18 -53 10 0 14 13 14 53 0 67 -18 86 -78 85 l-42
0 0 -69z"/>
<path d="M9060 3620 c0 -56 3 -70 15 -70 11 0 15 11 15 43 0 51 11 70 36 65
15 -2 20 -14 22 -56 3 -44 6 -52 23 -52 16 0 19 7 19 55 0 51 2 55 24 55 28 0
36 -16 36 -71 0 -28 4 -39 15 -39 11 0 15 12 15 50 0 62 -27 96 -68 86 -15 -4
-31 -6 -37 -6 -5 0 -34 3 -62 5 l-53 4 0 -69z"/>
<path d="M9311 3664 c-12 -15 -21 -34 -21 -44 0 -10 9 -29 21 -44 24 -30 69
-35 93 -10 30 30 14 45 -23 22 -20 -12 -51 -5 -51 12 0 5 22 10 50 10 43 0 50
3 50 20 0 57 -83 80 -119 34z m74 -14 c4 -6 -7 -10 -25 -10 -18 0 -29 4 -25
10 3 6 15 10 25 10 10 0 22 -4 25 -10z"/>
<path d="M9450 3619 c0 -54 3 -69 14 -69 11 0 16 15 18 53 3 48 5 52 28 52 23
0 25 -4 28 -52 2 -38 7 -53 18 -53 10 0 14 13 14 53 0 67 -18 86 -78 85 l-42
0 0 -69z"/>
<path d="M7650 3345 c0 -49 1 -51 29 -33 24 15 51 4 51 -22 0 -26 -27 -37 -52
-21 -27 16 -38 3 -14 -15 26 -18 51 -18 70 2 33 32 13 78 -33 76 -24 0 -31 4
-31 19 0 15 7 19 35 19 19 0 35 5 35 10 0 6 -20 10 -45 10 l-45 0 0 -45z"/>
<path d="M7850 3315 c0 -80 17 -104 22 -32 3 37 6 42 28 42 22 0 25 -5 28 -42
4 -56 22 -55 22 1 0 50 -18 71 -55 64 -21 -4 -25 -1 -25 18 0 13 -4 24 -10 24
-6 0 -10 -32 -10 -75z"/>
<path d="M8302 3378 c-14 -14 -16 -38 -3 -38 5 0 11 7 15 15 3 8 15 15 26 15
32 0 25 -41 -15 -80 -19 -19 -35 -38 -35 -42 0 -4 24 -7 53 -6 35 1 42 2 20 5
-18 2 -33 7 -33 10 0 3 11 18 25 35 40 47 29 98 -20 98 -12 0 -26 -5 -33 -12z"/>
<path d="M8460 3375 c-7 -9 -9 -19 -5 -23 4 -4 10 -1 12 6 3 6 16 12 29 12 30
0 32 -25 2 -41 l-22 -12 22 -8 c31 -12 30 -49 -2 -49 -13 0 -26 6 -29 13 -2 6
-8 9 -12 5 -14 -13 18 -39 43 -36 33 4 51 32 36 56 -8 12 -8 24 -1 39 19 43
-43 74 -73 38z"/>
<path d="M8582 3378 c-17 -17 -15 -113 2 -128 22 -18 59 -8 74 20 14 28 10 84
-9 106 -14 17 -51 18 -67 2z m62 -24 c17 -45 2 -94 -29 -94 -27 0 -40 45 -25
85 11 28 44 34 54 9z"/>
<path d="M7180 3310 c0 -40 4 -70 10 -70 6 0 10 19 11 43 l0 42 22 -42 c11
-24 24 -43 28 -43 3 0 16 21 27 48 l20 47 1 -47 c1 -27 6 -48 11 -48 6 0 10
30 10 70 0 42 -4 70 -11 70 -5 0 -19 -22 -31 -50 -11 -27 -24 -50 -28 -50 -4
0 -17 23 -29 50 -12 28 -26 50 -31 50 -6 0 -10 -31 -10 -70z"/>
<path d="M7778 3363 c-2 -10 -1 -40 2 -68 4 -44 8 -50 30 -53 23 -2 24 -1 8
11 -10 8 -18 28 -18 45 0 19 7 35 18 41 16 10 16 10 0 11 -10 0 -18 7 -18 15
0 21 -18 19 -22 -2z"/>
<path d="M8168 3363 c-3 -10 -2 -40 1 -68 5 -44 9 -50 31 -53 23 -2 24 -1 8
11 -10 8 -18 28 -18 45 0 19 7 35 18 41 16 10 16 10 0 11 -10 0 -18 7 -18 15
0 21 -17 19 -22 -2z"/>
<path d="M7353 3324 c-15 -24 -15 -29 -2 -53 13 -22 22 -26 62 -27 l47 -1 0
51 0 52 -45 2 c-38 1 -47 -2 -62 -24z m77 -9 c23 -28 -9 -72 -45 -59 -36 14
-24 74 15 74 10 0 23 -7 30 -15z"/>
<path d="M7494 3298 c16 -36 21 -60 15 -73 -10 -27 -11 -35 0 -35 5 0 13 12
19 28 5 15 19 51 31 80 11 28 17 52 12 52 -5 0 -17 -19 -26 -42 l-17 -43 -16
43 c-9 23 -22 42 -29 42 -8 0 -5 -17 11 -52z"/>
<path d="M8033 3324 c-15 -24 -15 -29 -2 -53 13 -22 22 -26 62 -27 l47 -1 0
51 0 52 -45 2 c-38 1 -47 -2 -62 -24z m77 -9 c23 -28 -9 -72 -45 -59 -36 14
-24 74 15 74 10 0 23 -7 30 -15z"/>
<path d="M8400 3340 c0 -5 7 -10 16 -10 8 0 12 5 9 10 -3 6 -10 10 -16 10 -5
0 -9 -4 -9 -10z"/>
<path d="M8690 3268 c0 -45 4 -78 10 -78 6 0 10 13 10 30 0 27 2 29 28 24 35
-7 65 15 65 49 0 42 -19 57 -69 55 l-44 -2 0 -78z m89 44 c13 -24 -4 -52 -33
-52 -26 0 -40 23 -31 51 8 24 51 25 64 1z"/>
<path d="M8830 3293 c0 -29 5 -53 10 -53 6 0 10 20 10 44 0 31 5 46 16 50 26
10 44 -13 44 -55 0 -22 5 -39 10 -39 6 0 10 20 10 44 0 32 5 46 17 50 23 9 43
-19 43 -61 0 -18 5 -33 10 -33 11 0 13 42 4 78 -7 25 -49 41 -66 24 -7 -7 -17
-8 -28 -2 -9 5 -31 8 -48 8 -32 -1 -32 -1 -32 -55z"/>
<path d="M8400 3250 c0 -5 4 -10 9 -10 6 0 13 5 16 10 3 6 -1 10 -9 10 -9 0
-16 -4 -16 -10z"/>
<path d="M6850 2520 l0 -450 30 0 30 0 0 450 0 450 -30 0 -30 0 0 -450z"/>
<path d="M7760 2670 c0 -73 3 -90 15 -90 12 0 15 17 15 90 0 73 -3 90 -15 90
-12 0 -15 -17 -15 -90z"/>
<path d="M8770 2670 c0 -73 3 -90 15 -90 11 0 15 11 15 43 0 51 11 70 36 65
15 -2 20 -14 22 -56 3 -45 6 -52 24 -52 19 0 20 5 16 56 -6 65 -26 89 -70 80
-25 -5 -28 -2 -28 19 0 16 -6 25 -15 25 -12 0 -15 -17 -15 -90z"/>
<path d="M9220 2670 c0 -73 3 -90 15 -90 12 0 15 17 15 90 0 73 -3 90 -15 90
-12 0 -15 -17 -15 -90z"/>
<path d="M7180 2665 c0 -69 3 -85 15 -85 11 0 15 12 15 48 l1 47 25 -47 c13
-27 29 -48 35 -48 5 0 18 19 29 43 l19 42 0 -42 c1 -36 4 -43 21 -43 18 0 20
7 20 85 0 76 -2 85 -18 85 -13 0 -27 -18 -46 -62 l-26 -62 -30 62 c-43 91 -60
84 -60 -23z"/>
<path d="M7680 2735 c0 -8 -4 -15 -10 -15 -5 0 -10 -7 -10 -15 0 -8 5 -15 10
-15 6 0 10 -22 10 -49 0 -35 4 -51 16 -55 27 -10 44 -7 44 9 0 8 -7 15 -15 15
-11 0 -15 11 -15 40 0 29 4 40 15 40 8 0 15 7 15 15 0 8 -7 15 -15 15 -8 0
-15 7 -15 15 0 8 -7 15 -15 15 -8 0 -15 -7 -15 -15z"/>
<path d="M8350 2735 c0 -8 -4 -15 -10 -15 -5 0 -10 -7 -10 -15 0 -8 5 -15 10
-15 6 0 10 -22 10 -49 0 -35 4 -51 16 -55 27 -10 44 -7 44 9 0 8 -7 15 -15 15
-11 0 -15 11 -15 40 0 29 4 40 15 40 8 0 15 7 15 15 0 8 -7 15 -15 15 -8 0
-15 7 -15 15 0 8 -7 15 -15 15 -8 0 -15 -7 -15 -15z"/>
<path d="M8506 2737 c-29 -21 -17 -59 27 -80 20 -10 37 -25 37 -33 0 -16 -36
-19 -45 -4 -9 15 -35 12 -35 -5 0 -39 82 -47 106 -11 20 32 7 56 -38 72 -36
12 -52 44 -21 44 11 0 24 -5 30 -11 6 -6 19 -9 29 -7 17 3 17 5 -4 26 -25 25
-59 28 -86 9z"/>
<path d="M11794 2739 c-3 -6 6 -23 20 -38 l26 -27 -25 -24 c-29 -27 -31 -38
-9 -47 8 -3 25 4 40 17 l24 23 24 -23 c15 -13 32 -20 40 -17 22 9 20 20 -9 47
l-25 24 26 27 c42 44 11 69 -33 27 l-23 -21 -23 21 c-26 24 -42 28 -53 11z"/>
<path d="M7402 2704 c-16 -11 -22 -25 -22 -54 0 -65 67 -93 112 -48 21 21 22
23 4 26 -10 2 -22 -1 -26 -8 -9 -15 -52 -9 -58 8 -2 8 11 12 47 12 44 0 51 3
51 20 0 27 -35 60 -63 60 -12 0 -33 -7 -45 -16z m73 -24 c4 -6 -8 -10 -30 -10
-22 0 -34 4 -30 10 3 6 17 10 30 10 13 0 27 -4 30 -10z"/>
<path d="M7540 2700 c-43 -43 -11 -120 48 -120 16 0 37 9 47 20 22 24 12 39
-15 22 -26 -16 -45 -15 -60 3 -11 13 -5 15 44 15 63 0 70 10 35 54 -25 32 -70
35 -99 6z m75 -20 c4 -6 -7 -10 -25 -10 -18 0 -29 4 -25 10 3 6 15 10 25 10
10 0 22 -4 25 -10z"/>
<path d="M7820 2649 c0 -54 3 -69 14 -69 11 0 16 15 18 53 3 48 5 52 28 52 23
0 25 -4 28 -52 2 -38 7 -53 18 -53 10 0 14 13 14 53 0 67 -18 86 -78 85 l-42
0 0 -69z"/>
<path d="M7979 2699 c-25 -25 -24 -74 2 -100 16 -16 29 -20 56 -16 36 6 41 -7
10 -27 -12 -8 -22 -7 -37 2 -26 16 -40 15 -40 -3 0 -36 78 -47 110 -15 17 17
20 33 20 98 l0 79 -51 1 c-37 1 -55 -4 -70 -19z m81 -29 c23 -42 -30 -81 -60
-45 -7 8 -10 25 -6 40 8 31 50 35 66 5z"/>
<path d="M8199 2699 c-10 -10 -19 -32 -19 -49 0 -47 30 -69 89 -68 l51 1 0 67
0 67 -51 1 c-37 1 -55 -4 -70 -19z m81 -29 c15 -28 -4 -60 -35 -60 -18 0 -26
7 -31 25 -12 48 44 77 66 35z"/>
<path d="M8640 2700 c-43 -43 -11 -120 48 -120 29 0 71 34 59 47 -4 3 -19 0
-33 -7 -31 -17 -59 -3 -59 30 0 33 28 47 59 30 33 -17 45 -6 21 20 -23 26 -69
26 -95 0z"/>
<path d="M8935 2695 c-30 -30 -31 -54 -4 -89 40 -50 119 -21 119 44 0 64 -70
91 -115 45z m79 -27 c15 -25 -4 -53 -35 -53 -25 0 -37 30 -25 61 8 20 46 14
60 -8z"/>
<path d="M9085 2695 c-30 -30 -31 -54 -4 -89 40 -50 119 -21 119 44 0 64 -70
91 -115 45z m79 -27 c15 -25 -4 -53 -35 -53 -25 0 -37 30 -25 61 8 20 46 14
60 -8z"/>
<path d="M7666 2398 c-22 -32 -20 -91 3 -112 39 -35 90 -4 77 47 -5 23 -12 27
-41 27 -25 0 -35 4 -35 15 0 21 29 31 51 16 15 -9 19 -8 19 3 0 14 -21 26 -45
26 -8 0 -21 -10 -29 -22z m59 -78 c0 -18 -6 -26 -23 -28 -13 -2 -25 3 -28 12
-10 26 4 48 28 44 17 -2 23 -10 23 -28z"/>
<path d="M7850 2345 c0 -80 17 -104 22 -32 3 37 6 42 28 42 22 0 25 -5 28 -42
4 -56 22 -55 22 1 0 50 -18 71 -55 64 -21 -4 -25 -1 -25 18 0 13 -4 24 -10 24
-6 0 -10 -32 -10 -75z"/>
<path d="M8302 2408 c-14 -14 -16 -38 -3 -38 5 0 11 7 15 15 3 8 15 15 26 15
32 0 25 -41 -15 -80 -19 -19 -35 -38 -35 -42 0 -4 24 -7 53 -6 35 1 42 2 20 5
-18 2 -33 7 -33 10 0 3 11 18 25 35 40 47 29 98 -20 98 -12 0 -26 -5 -33 -12z"/>
<path d="M8460 2405 c-7 -9 -9 -19 -5 -23 4 -4 10 -1 12 6 3 6 16 12 29 12 30
0 32 -25 2 -41 l-22 -12 22 -8 c31 -12 30 -49 -2 -49 -13 0 -26 6 -29 13 -2 6
-8 9 -12 5 -14 -13 18 -39 43 -36 33 4 51 32 36 56 -8 12 -8 24 -1 39 19 43
-43 74 -73 38z"/>
<path d="M8580 2401 c-5 -11 -10 -36 -10 -56 0 -49 16 -75 45 -75 30 0 55 34
55 75 0 62 -65 103 -90 56z m65 -56 c0 -47 -2 -50 -25 -50 -22 0 -25 5 -28 39
-4 52 3 68 30 64 20 -3 23 -9 23 -53z"/>
<path d="M7180 2340 c0 -40 4 -70 10 -70 6 0 10 19 11 43 l0 42 22 -42 c11
-24 24 -43 28 -43 3 0 16 21 27 48 l20 47 1 -47 c1 -27 6 -48 11 -48 6 0 10
30 10 70 0 42 -4 70 -11 70 -5 0 -19 -22 -31 -50 -11 -27 -24 -50 -28 -50 -4
0 -17 23 -29 50 -12 28 -26 50 -31 50 -6 0 -10 -31 -10 -70z"/>
<path d="M7778 2393 c-2 -10 -1 -40 2 -68 4 -44 8 -50 30 -53 23 -2 24 -1 8
11 -10 8 -18 28 -18 45 0 19 7 35 18 41 16 10 16 10 0 11 -10 0 -18 7 -18 15
0 21 -18 19 -22 -2z"/>
<path d="M8168 2393 c-2 -10 -1 -40 2 -68 4 -44 8 -50 30 -53 23 -2 24 -1 8
11 -10 8 -18 28 -18 45 0 19 7 35 18 41 16 10 16 10 0 11 -10 0 -18 7 -18 15
0 21 -18 19 -22 -2z"/>
<path d="M7353 2354 c-15 -24 -15 -29 -2 -53 13 -22 22 -26 62 -27 l47 -1 0
51 0 52 -45 2 c-38 1 -47 -2 -62 -24z m77 -9 c23 -28 -9 -72 -45 -59 -36 14
-24 74 15 74 10 0 23 -7 30 -15z"/>
<path d="M7494 2328 c16 -36 21 -60 15 -73 -10 -27 -11 -35 0 -35 5 0 13 12
19 28 5 15 19 51 31 80 11 28 17 52 12 52 -5 0 -17 -19 -26 -42 l-17 -43 -16
43 c-9 23 -22 42 -29 42 -8 0 -5 -17 11 -52z"/>
<path d="M8048 2369 c-24 -14 -24 -75 0 -88 9 -5 34 -9 55 -8 l37 1 0 51 0 51
-37 1 c-21 1 -46 -3 -55 -8z m66 -25 c9 -24 8 -31 -10 -48 -12 -12 -20 -13
-35 -6 -18 10 -26 50 -12 63 12 13 51 7 57 -9z"/>
<path d="M8400 2370 c0 -5 7 -10 16 -10 8 0 12 5 9 10 -3 6 -10 10 -16 10 -5
0 -9 -4 -9 -10z"/>
<path d="M8702 2295 c0 -44 3 -66 5 -48 4 30 6 31 38 26 28 -4 36 -1 51 22 16
25 16 30 3 54 -12 21 -22 26 -57 26 l-42 1 2 -81z m83 46 c9 -28 -5 -51 -31
-51 -29 0 -46 28 -33 52 13 24 56 23 64 -1z"/>
<path d="M8830 2323 c0 -29 5 -53 10 -53 6 0 10 17 10 39 0 22 6 44 15 51 23
19 45 -5 45 -51 0 -22 5 -39 10 -39 6 0 10 17 10 39 0 22 6 44 15 51 23 19 45
-5 45 -51 0 -22 5 -39 10 -39 16 0 12 77 -6 94 -18 18 -50 21 -59 6 -5 -8 -11
-8 -19 -1 -7 6 -29 10 -49 9 l-37 -1 0 -54z"/>
<path d="M8400 2280 c0 -5 4 -10 9 -10 6 0 13 5 16 10 3 6 -1 10 -9 10 -9 0
-16 -4 -16 -10z"/>
<path d="M6850 1560 l0 -450 30 0 30 0 0 450 0 450 -30 0 -30 0 0 -450z"/>
<path d="M7700 1776 c0 -22 -3 -24 -34 -19 -42 7 -76 -23 -76 -67 0 -47 30
-69 89 -68 l51 1 0 89 c0 72 -3 88 -15 88 -9 0 -15 -9 -15 -24z m-6 -68 c23
-38 -36 -77 -64 -43 -10 12 -10 21 -1 41 13 29 47 30 65 2z"/>
<path d="M7960 1710 c0 -72 3 -90 14 -90 11 0 16 15 18 53 3 48 5 52 28 52 23
0 25 -4 28 -52 2 -38 7 -53 18 -53 10 0 14 13 14 53 0 63 -23 93 -65 85 -21
-4 -25 -1 -25 18 0 15 -6 24 -15 24 -12 0 -15 -17 -15 -90z"/>
<path d="M8571 1711 c-1 -76 1 -91 14 -91 12 0 15 15 17 75 0 41 1 81 2 87 1
7 -6 14 -15 16 -14 3 -17 -10 -18 -87z"/>
<path d="M7180 1705 c0 -69 3 -85 15 -85 10 0 15 11 15 35 0 32 2 35 30 35 20
0 30 5 30 15 0 10 -10 15 -30 15 -23 0 -30 4 -30 20 0 16 7 20 35 20 24 0 35
5 35 15 0 11 -12 15 -50 15 l-50 0 0 -85z"/>
<path d="M7830 1770 c-11 -11 -20 -23 -20 -27 1 -19 22 -38 52 -49 41 -14 51
-44 14 -44 -14 0 -26 5 -26 10 0 6 -9 10 -20 10 -18 0 -19 -3 -10 -20 14 -26
55 -36 86 -21 20 9 25 17 22 43 -2 26 -9 33 -38 43 -39 13 -54 45 -21 45 11 0
23 -4 26 -10 9 -15 35 -12 35 5 0 35 -69 46 -100 15z"/>
<path d="M11795 1779 c-4 -6 2 -21 14 -33 26 -28 27 -48 1 -71 -24 -22 -25
-34 -4 -42 8 -3 25 4 40 17 l24 23 24 -23 c15 -13 32 -20 40 -17 21 8 20 20
-4 42 -11 10 -20 26 -20 35 0 9 9 25 20 35 24 22 25 34 4 42 -8 3 -25 -4 -40
-17 l-24 -23 -23 21 c-26 24 -42 28 -52 11z"/>
<path d="M7312 1737 c-27 -29 -28 -71 -2 -97 42 -42 120 -10 120 50 0 63 -75
93 -118 47z m78 -22 c26 -32 -13 -81 -47 -59 -35 22 -23 74 17 74 10 0 23 -7
30 -15z"/>
<path d="M7462 1737 c-27 -29 -28 -71 -2 -97 42 -42 120 -10 120 50 0 63 -75
93 -118 47z m78 -22 c26 -32 -13 -81 -47 -59 -35 22 -23 74 17 74 10 0 23 -7
30 -15z"/>
<path d="M8120 1740 c-41 -41 -12 -120 45 -120 31 0 75 41 75 70 0 29 -44 70
-75 70 -14 0 -34 -9 -45 -20z m80 -30 c22 -40 -26 -80 -58 -48 -25 25 -6 68
30 68 9 0 22 -9 28 -20z"/>
<path d="M8260 1658 c0 -80 3 -98 15 -98 10 0 15 10 15 33 0 32 1 33 34 29 27
-3 37 1 55 23 26 34 27 55 1 88 -18 22 -28 26 -70 25 l-50 -1 0 -99z m98 38
c4 -36 -10 -50 -42 -42 -19 4 -26 13 -26 29 0 53 62 65 68 13z"/>
<path d="M8410 1658 c0 -88 2 -98 18 -98 15 0 17 6 14 35 -4 34 -4 35 27 29
48 -10 81 17 81 66 0 50 -26 69 -92 68 l-48 -1 0 -99z m104 50 c15 -25 -4 -53
-35 -53 -25 0 -37 30 -25 61 8 20 46 14 60 -8z"/>
<path d="M8630 1689 c0 -54 3 -69 14 -69 11 0 16 15 18 53 3 48 5 52 28 52 23
0 25 -4 28 -52 2 -38 7 -53 18 -53 10 0 14 14 14 54 0 69 -15 86 -75 84 l-45
-1 0 -68z"/>
<path d="M8789 1739 c-25 -25 -24 -74 2 -100 17 -17 29 -20 56 -16 28 5 34 3
29 -9 -3 -9 -6 -18 -6 -20 0 -9 -41 -3 -60 8 -27 17 -37 2 -15 -22 23 -26 69
-26 95 0 17 17 20 33 20 98 l0 79 -51 1 c-37 1 -55 -4 -70 -19z m85 -31 c14
-23 -3 -52 -32 -56 -29 -4 -51 40 -32 63 16 20 49 16 64 -7z"/>
<path d="M7645 1450 c3 -5 19 -10 36 -10 35 0 36 -5 4 -75 -14 -32 -19 -55
-13 -53 9 3 68 128 68 145 0 1 -23 3 -51 3 -31 0 -48 -4 -44 -10z"/>
<path d="M7830 1385 c0 -80 17 -104 22 -32 3 38 6 42 31 45 26 3 27 2 27 -42
0 -25 5 -46 10 -46 6 0 10 20 10 44 0 51 -18 71 -55 62 -22 -6 -25 -3 -25 19
0 14 -4 25 -10 25 -6 0 -10 -32 -10 -75z"/>
<path d="M8270 1450 c0 -5 5 -10 10 -10 6 0 10 -28 10 -65 0 -37 4 -65 10 -65
6 0 10 32 10 75 0 68 -2 75 -20 75 -11 0 -20 -4 -20 -10z"/>
<path d="M8352 1448 c-7 -7 -12 -19 -12 -27 1 -13 3 -13 15 2 16 22 48 19 53
-5 2 -9 -13 -34 -32 -56 -20 -22 -36 -42 -36 -46 0 -3 20 -6 45 -6 25 0 45 4
45 9 0 4 -11 6 -25 3 -27 -5 -33 9 -11 27 25 21 39 67 26 90 -12 23 -49 28
-68 9z"/>
<path d="M8513 1453 c-7 -2 -13 -11 -13 -19 0 -11 4 -12 19 -3 20 13 51 6 51
-12 0 -6 -9 -13 -20 -16 -11 -3 -20 -9 -20 -13 0 -4 9 -10 20 -13 29 -8 27
-47 -3 -47 -13 0 -28 5 -35 12 -6 6 -14 9 -17 6 -12 -12 28 -39 53 -36 35 4
51 32 34 59 -10 15 -10 24 -2 34 26 32 -22 67 -67 48z"/>
<path d="M8631 1446 c-19 -22 -23 -78 -9 -106 15 -28 52 -38 74 -20 17 15 19
111 2 128 -16 16 -53 15 -67 -2z m59 -36 c13 -53 -27 -107 -51 -68 -10 15 -12
60 -3 83 10 25 47 14 54 -15z"/>
<path d="M7180 1380 c0 -40 4 -70 10 -70 6 0 10 19 11 43 l0 42 22 -42 c11
-24 24 -43 28 -43 3 0 16 21 27 48 l20 47 1 -47 c1 -27 6 -48 11 -48 6 0 10
30 10 70 0 42 -4 70 -11 70 -5 0 -19 -22 -31 -50 -11 -27 -24 -50 -28 -50 -4
0 -17 23 -29 50 -12 28 -26 50 -31 50 -6 0 -10 -31 -10 -70z"/>
<path d="M7759 1433 c-2 -46 4 -99 13 -110 12 -15 38 -17 38 -3 0 6 -7 10 -15
10 -22 0 -20 66 3 79 16 10 16 10 0 11 -10 0 -18 7 -18 15 0 21 -20 19 -21 -2z"/>
<path d="M8149 1433 c-2 -46 4 -99 13 -110 12 -15 38 -17 38 -3 0 6 -7 10 -15
10 -22 0 -20 66 3 79 16 10 16 10 0 11 -10 0 -18 7 -18 15 0 21 -20 19 -21 -2z"/>
<path d="M7353 1394 c-15 -24 -15 -29 -2 -53 13 -22 22 -26 62 -27 l47 -1 0
51 0 52 -45 2 c-38 1 -47 -2 -62 -24z m77 -9 c23 -28 -9 -72 -45 -59 -36 14
-24 74 15 74 10 0 23 -7 30 -15z"/>
<path d="M7494 1368 c16 -36 21 -60 15 -73 -10 -27 -11 -35 0 -35 5 0 13 12
19 28 5 15 19 51 31 80 11 28 17 52 12 52 -5 0 -17 -19 -26 -42 l-17 -43 -16
43 c-9 23 -22 42 -29 42 -8 0 -5 -17 11 -52z"/>
<path d="M8025 1404 c-17 -17 -19 -52 -5 -74 5 -9 27 -15 55 -16 l45 -2 0 52
0 52 -40 1 c-24 1 -46 -4 -55 -13z m73 -33 c5 -32 -23 -54 -49 -40 -19 10 -26
49 -12 63 4 4 19 6 33 4 18 -2 26 -10 28 -27z"/>
<path d="M8450 1410 c0 -5 5 -10 10 -10 6 0 10 5 10 10 0 6 -4 10 -10 10 -5 0
-10 -4 -10 -10z"/>
<path d="M8740 1338 c0 -45 4 -78 10 -78 6 0 10 13 10 30 0 27 2 29 28 24 36
-7 62 16 62 56 0 35 -21 49 -73 47 l-37 -1 0 -78z m85 27 c0 -27 -3 -30 -30
-30 -21 0 -31 5 -33 18 -6 33 6 49 35 45 24 -3 28 -8 28 -33z"/>
<path d="M8881 1360 l1 -55 9 44 c15 76 59 79 59 5 0 -24 5 -44 10 -44 6 0 10
15 10 34 0 38 23 68 45 60 10 -4 15 -21 15 -50 0 -24 5 -44 10 -44 6 0 10 20
10 44 0 56 -19 74 -61 59 -17 -7 -31 -7 -35 -2 -3 5 -21 8 -40 6 l-34 -2 1
-55z"/>
<path d="M8450 1320 c0 -5 5 -10 10 -10 6 0 10 5 10 10 0 6 -4 10 -10 10 -5 0
-10 -4 -10 -10z"/>
<path d="M8610 750 c0 -73 3 -90 15 -90 12 0 15 17 15 90 0 73 -3 90 -15 90
-12 0 -15 -17 -15 -90z"/>
<path d="M9190 816 c0 -22 -3 -24 -34 -19 -42 7 -76 -23 -76 -67 0 -47 30 -69
89 -68 l51 1 0 89 c0 72 -3 88 -15 88 -9 0 -15 -9 -15 -24z m-6 -68 c23 -38
-36 -77 -64 -43 -10 12 -10 21 -1 41 13 29 47 30 65 2z"/>
<path d="M9337 833 c-2 -4 -5 -45 -6 -90 -2 -79 -1 -83 19 -83 20 0 21 4 18
87 -2 54 -7 88 -15 90 -6 2 -13 0 -16 -4z"/>
<path d="M9490 816 c0 -22 -3 -24 -33 -19 -28 4 -37 1 -55 -22 -27 -35 -28
-55 -1 -88 17 -23 27 -26 70 -26 l49 2 0 88 c0 72 -3 89 -15 89 -9 0 -15 -9
-15 -24z m-10 -60 c6 -8 10 -25 8 -38 -2 -18 -9 -23 -33 -23 -24 0 -31 5 -33
23 -2 13 -1 30 2 38 7 18 40 18 56 0z"/>
<path d="M7120 745 c0 -69 3 -85 15 -85 11 0 15 12 16 48 l1 47 20 -47 c11
-27 26 -48 32 -48 7 0 22 19 33 43 l22 42 0 -42 c1 -31 5 -43 16 -43 12 0 15
16 15 85 0 106 -15 112 -55 23 l-29 -63 -28 63 c-41 91 -58 84 -58 -23z"/>
<path d="M7630 761 c0 -61 3 -72 22 -85 12 -9 32 -16 43 -16 11 0 31 7 43 16
19 13 22 24 22 85 0 54 -3 69 -15 69 -11 0 -15 -16 -17 -67 l-3 -68 -30 0 -30
0 -3 68 c-2 51 -6 67 -17 67 -12 0 -15 -15 -15 -69z"/>
<path d="M8160 745 c0 -77 2 -85 19 -85 16 0 20 8 23 38 l3 37 24 -37 c13 -22
31 -38 42 -38 17 0 17 2 -3 36 -20 33 -20 37 -5 46 24 13 22 65 -2 78 -11 5
-38 10 -60 10 l-41 0 0 -85z m85 35 c0 -8 -10 -16 -22 -18 -18 -3 -23 2 -23
18 0 16 5 21 23 18 12 -2 22 -10 22 -18z"/>
<path d="M8730 745 c0 -69 3 -85 15 -85 11 0 15 12 16 48 l1 47 20 -47 c11
-27 26 -48 32 -48 7 0 22 19 33 43 l22 42 0 -42 c1 -31 5 -43 16 -43 12 0 15
16 15 85 0 106 -15 112 -55 23 l-29 -63 -28 63 c-41 91 -58 84 -58 -23z"/>
<path d="M11794 809 c-3 -6 6 -23 20 -38 l26 -27 -25 -24 c-29 -27 -31 -38 -9
-47 8 -3 25 4 40 17 l24 23 24 -23 c15 -13 32 -20 40 -17 22 9 20 20 -9 47
l-25 24 26 27 c42 44 11 69 -33 27 l-23 -21 -23 21 c-26 24 -42 28 -53 11z"/>
<path d="M7334 775 c-29 -30 -30 -54 -3 -88 17 -23 27 -26 70 -26 l49 2 0 67
0 67 -46 1 c-36 0 -52 -5 -70 -23z m76 -19 c6 -8 10 -25 8 -38 -2 -18 -9 -23
-33 -23 -24 0 -31 5 -33 23 -2 13 -1 30 2 38 7 18 40 18 56 0z"/>
<path d="M7480 729 c0 -54 3 -69 14 -69 11 0 16 15 18 53 3 48 5 52 28 52 23
0 25 -4 28 -52 2 -38 7 -53 18 -53 10 0 14 14 14 54 0 69 -15 86 -75 84 l-45
-1 0 -68z"/>
<path d="M7851 748 c12 -29 24 -61 26 -70 3 -10 13 -18 22 -18 12 0 26 21 44
67 15 37 25 69 22 71 -12 12 -34 -11 -47 -50 l-15 -43 -17 39 c-9 21 -16 42
-16 47 0 5 -9 9 -20 9 -20 0 -19 -1 1 -52z"/>
<path d="M7986 781 c-22 -25 -11 -48 30 -61 35 -12 46 -30 19 -30 -8 0 -24 5
-35 12 -27 17 -37 2 -15 -22 37 -41 117 -7 89 37 -6 10 -21 20 -34 23 -13 3
-25 11 -28 18 -4 14 24 16 33 2 8 -13 35 -13 35 -1 0 18 -31 41 -54 41 -13 0
-30 -8 -40 -19z"/>
<path d="M8320 780 c-41 -41 -12 -120 44 -120 28 0 75 35 63 46 -4 5 -17 3
-27 -4 -27 -16 -57 -15 -64 3 -4 12 4 15 44 15 46 0 50 2 50 24 0 50 -73 73
-110 36z m75 -20 c4 -6 -8 -10 -30 -10 -22 0 -34 4 -30 10 3 6 17 10 30 10 13
0 27 -4 30 -10z"/>
<path d="M8464 775 c-29 -30 -30 -54 -3 -88 17 -23 27 -26 70 -26 l49 2 0 67
0 67 -46 1 c-36 0 -52 -5 -70 -23z m76 -19 c6 -8 10 -25 8 -38 -2 -18 -9 -23
-33 -23 -24 0 -31 5 -33 23 -2 13 -1 30 2 38 7 18 40 18 56 0z"/>
<path d="M8944 775 c-29 -30 -30 -54 -3 -88 17 -23 27 -26 70 -26 l49 2 0 67
0 67 -46 1 c-36 0 -52 -5 -70 -23z m76 -19 c6 -8 10 -25 8 -38 -2 -18 -9 -23
-33 -23 -24 0 -31 5 -33 23 -2 13 -1 30 2 38 7 18 40 18 56 0z"/>
<path d="M9250 729 c0 -55 3 -69 15 -69 11 0 15 12 15 51 0 42 3 52 20 56 34
9 23 31 -15 31 l-35 0 0 -69z"/>
<path d="M7886 478 c-33 -47 -9 -128 38 -128 31 0 48 22 44 57 -3 25 -7 28
-41 28 -38 0 -41 3 -31 29 7 18 39 22 49 6 12 -20 26 -10 15 10 -14 27 -55 26
-74 -2z m62 -81 c3 -23 0 -27 -23 -27 -30 0 -43 24 -25 46 19 22 45 13 48 -19z"/>
<path d="M8070 425 c0 -80 17 -104 22 -32 3 38 6 42 31 45 26 3 27 2 27 -42 0
-25 5 -46 10 -46 6 0 10 20 10 44 0 51 -18 71 -55 62 -22 -6 -25 -3 -25 19 0
14 -4 25 -10 25 -6 0 -10 -32 -10 -75z"/>
<path d="M8526 484 c-9 -8 -16 -20 -16 -25 0 -15 17 -10 24 6 3 8 15 15 26 15
34 0 26 -47 -15 -86 -19 -18 -35 -35 -35 -38 0 -3 24 -5 53 -4 35 1 42 2 20 5
-18 2 -33 7 -33 10 0 3 11 18 25 35 14 16 25 40 25 52 0 43 -44 61 -74 30z"/>
<path d="M8680 485 c-15 -19 -5 -34 12 -17 7 7 20 12 30 12 26 0 23 -36 -4
-45 -17 -5 -19 -8 -8 -12 27 -10 39 -24 33 -39 -6 -17 -50 -19 -56 -1 -2 6 -8
9 -12 5 -11 -11 14 -38 35 -38 36 0 50 12 50 41 0 16 -5 29 -10 29 -6 0 -5 8
2 20 26 41 -41 82 -72 45z"/>
<path d="M8800 481 c-5 -11 -10 -36 -10 -56 0 -49 16 -75 45 -75 30 0 55 34
55 75 0 62 -65 103 -90 56z m65 -56 c0 -47 -2 -50 -25 -50 -22 0 -25 5 -28 39
-4 52 3 68 30 64 20 -3 23 -9 23 -53z"/>
<path d="M7155 480 c-14 -22 -45 -124 -39 -129 3 -3 10 2 15 12 12 21 65 23
73 2 3 -8 10 -15 15 -15 8 0 -7 57 -34 123 -8 19 -21 22 -30 7z m29 -67 c6
-19 3 -23 -13 -23 -22 0 -25 10 -14 49 6 25 14 18 27 -26z"/>
<path d="M7748 473 c-3 -10 -2 -40 1 -68 5 -44 9 -50 31 -53 23 -2 24 -1 8 11
-10 8 -18 28 -18 45 0 19 7 35 18 41 16 10 16 10 0 11 -10 0 -18 7 -18 15 0
21 -17 19 -22 -2z"/>
<path d="M7998 473 c-2 -10 -1 -40 2 -68 4 -44 8 -50 30 -53 23 -2 24 -1 8 11
-10 8 -18 28 -18 45 0 19 7 35 18 41 16 10 16 10 0 11 -10 0 -18 7 -18 15 0
21 -18 19 -22 -2z"/>
<path d="M8388 473 c-2 -10 -1 -40 2 -68 4 -44 8 -50 30 -53 23 -2 24 -1 8 11
-10 8 -18 28 -18 45 0 19 7 35 18 41 16 10 16 10 0 11 -10 0 -18 7 -18 15 0
21 -18 19 -22 -2z"/>
<path d="M7250 416 c0 -52 14 -66 63 -64 l37 1 0 54 c0 29 -4 53 -10 53 -5 0
-10 -17 -10 -39 0 -22 -6 -44 -15 -51 -23 -19 -45 5 -45 51 0 22 -4 39 -10 39
-5 0 -10 -20 -10 -44z"/>
<path d="M7386 442 c-35 -40 -2 -99 49 -90 20 4 25 2 23 -11 -4 -20 -44 -27
-64 -11 -7 7 -14 8 -14 3 0 -17 24 -33 50 -33 40 0 50 18 50 90 l0 67 -39 1
c-26 1 -43 -4 -55 -16z m72 -40 c-2 -21 -9 -28 -30 -30 -23 -3 -29 2 -34 24
-5 20 -2 31 11 40 27 20 57 0 53 -34z"/>
<path d="M7510 421 c0 -49 20 -71 65 -69 l35 1 0 54 c0 29 -4 53 -10 53 -5 0
-10 -17 -10 -39 0 -46 -22 -70 -45 -51 -9 7 -15 29 -15 51 0 22 -4 39 -10 39
-5 0 -10 -18 -10 -39z"/>
<path d="M7644 445 c-9 -23 2 -43 27 -47 12 -2 25 -9 27 -17 4 -11 -2 -13 -27
-8 -34 7 -43 -8 -11 -18 55 -18 85 34 30 54 -41 14 -40 35 1 27 27 -5 30 -4
19 9 -16 19 -59 19 -66 0z"/>
<path d="M8268 449 c-24 -14 -24 -75 0 -88 9 -5 34 -9 55 -8 l37 1 0 51 0 51
-37 1 c-21 1 -46 -3 -55 -8z m66 -25 c9 -24 8 -31 -10 -48 -12 -12 -20 -13
-35 -6 -18 10 -26 50 -12 63 12 13 51 7 57 -9z"/>
<path d="M8625 450 c-3 -5 1 -10 9 -10 9 0 16 5 16 10 0 6 -4 10 -9 10 -6 0
-13 -4 -16 -10z"/>
<path d="M8922 375 c0 -44 3 -66 5 -48 4 30 6 31 38 26 28 -4 36 -1 51 22 16
25 16 30 3 54 -12 21 -22 26 -57 26 l-42 1 2 -81z m83 46 c9 -28 -5 -51 -31
-51 -29 0 -46 28 -33 52 13 24 56 23 64 -1z"/>
<path d="M9050 403 c0 -29 5 -53 10 -53 6 0 10 17 10 39 0 22 6 44 15 51 23
19 45 -5 45 -51 0 -22 5 -39 10 -39 6 0 10 17 10 39 0 46 22 70 45 51 9 -7 15
-29 15 -51 0 -22 5 -39 10 -39 16 0 12 77 -6 94 -18 18 -50 21 -59 6 -5 -8
-11 -8 -19 -1 -7 6 -29 10 -49 9 l-37 -1 0 -54z"/>
<path d="M8625 360 c3 -5 10 -10 16 -10 5 0 9 5 9 10 0 6 -7 10 -16 10 -8 0
-12 -4 -9 -10z"/>
</g>
</svg>
