<?xml version="1.0" standalone="no"?>
<!DOCTYPE svg PUBLIC "-//W3C//DTD SVG 20010904//EN"
 "http://www.w3.org/TR/2001/REC-SVG-20010904/DTD/svg10.dtd">
<svg version="1.0" xmlns="http://www.w3.org/2000/svg"
 width="1916.000000pt" height="975.000000pt" viewBox="0 0 1916.000000 975.000000"
 preserveAspectRatio="xMidYMid meet">

<g transform="translate(0.000000,975.000000) scale(0.100000,-0.100000)"
fill="#000000" stroke="none">
<path d="M8078 9233 c844 -2 2221 -2 3060 0 840 1 150 2 -1533 2 -1683 0
-2370 -1 -1527 -2z"/>
<path d="M6485 6015 c0 -1738 1 -2448 2 -1577 2 871 2 2293 0 3160 -1 867 -2
155 -2 -1583z"/>
<path d="M12725 6015 c0 -1738 1 -2448 2 -1577 2 871 2 2293 0 3160 -1 867 -2
155 -2 -1583z"/>
<path d="M11425 8765 c-25 -24 -25 -24 -25 -239 0 -226 5 -260 44 -270 11 -3
190 -6 396 -6 206 0 385 3 396 6 39 10 44 44 44 270 0 215 0 215 -25 239 l-24
25 -391 0 -391 0 -24 -25z m465 -240 l0 -75 -43 0 c-51 0 -67 13 -67 55 0 38
16 55 52 55 21 0 28 5 28 20 0 11 7 20 15 20 12 0 15 -15 15 -75z m120 2 l0
-74 -39 -1 c-31 -1 -44 3 -55 20 -9 12 -16 30 -16 39 0 26 36 52 65 47 21 -4
25 -1 25 18 0 13 5 24 10 24 6 0 10 -31 10 -73z m-269 8 c31 -82 32 -85 15
-85 -9 0 -16 5 -16 10 0 6 -13 10 -30 10 -16 0 -30 -4 -30 -10 0 -5 -7 -10
-16 -10 -9 0 -14 6 -11 13 2 6 13 38 23 70 22 71 39 71 65 2z"/>
<path d="M11811 8526 c-19 -23 -4 -58 22 -54 17 2 22 10 22 33 0 34 -24 45
-44 21z"/>
<path d="M11934 8526 c-9 -25 0 -51 20 -54 26 -5 40 12 32 42 -7 29 -43 36
-52 12z"/>
<path d="M11700 8531 c0 -5 -3 -16 -6 -25 -4 -11 -1 -16 10 -16 18 0 22 35 6
45 -5 3 -10 2 -10 -4z"/>
<path d="M7590 8535 l0 -155 25 0 c23 0 25 4 25 43 l1 42 37 -43 c33 -38 42
-43 72 -40 l35 3 -54 58 -55 58 52 52 c29 29 52 56 52 60 0 4 -14 7 -31 7 -24
0 -40 -10 -70 -42 l-38 -43 -1 78 c0 75 -1 77 -25 77 l-25 0 0 -155z"/>
<path d="M8780 8535 l0 -155 25 0 c22 0 25 4 25 35 0 44 12 44 47 0 24 -29 34
-35 68 -35 l39 0 -57 58 -58 59 50 55 c28 31 51 59 51 62 0 3 -12 6 -27 6 -19
0 -41 -14 -70 -42 l-43 -42 0 77 c0 75 0 77 -25 77 l-25 0 0 -155z"/>
<path d="M6880 8655 c0 -22 4 -25 35 -25 l35 0 0 -125 0 -125 30 0 30 0 0 125
0 125 35 0 c31 0 35 3 35 25 l0 25 -100 0 -100 0 0 -25z"/>
<path d="M7887 8673 c-4 -3 -7 -15 -7 -25 0 -14 8 -18 40 -18 l40 0 0 -125 0
-125 25 0 25 0 0 125 0 125 40 0 c36 0 40 3 40 25 0 25 0 25 -98 25 -54 0
-102 -3 -105 -7z"/>
<path d="M7163 8605 c-39 -17 -63 -61 -63 -114 0 -76 76 -128 150 -103 18 7
30 7 30 1 0 -5 14 -9 30 -9 l30 0 0 115 c0 98 -3 117 -16 122 -9 3 -25 1 -35
-5 -13 -8 -26 -9 -44 -2 -34 13 -43 12 -82 -5z m97 -55 c41 -41 15 -120 -40
-120 -60 0 -88 64 -50 113 26 32 62 35 90 7z"/>
<path d="M7423 8610 c-12 -5 -29 -20 -38 -33 -25 -39 -6 -71 57 -95 29 -11 53
-26 53 -33 0 -20 -49 -23 -65 -5 -13 17 -60 22 -60 7 0 -23 15 -43 41 -56 36
-19 72 -19 108 0 63 32 39 100 -43 123 -35 10 -46 18 -44 30 5 25 45 27 60 3
15 -25 58 -28 58 -5 0 28 -19 52 -51 63 -37 13 -46 13 -76 1z"/>
<path d="M8120 8500 l0 -120 25 0 c24 0 25 2 25 71 0 82 11 109 45 109 21 0
25 5 25 31 0 21 -4 30 -12 26 -42 -15 -58 -17 -58 -8 0 6 -11 11 -25 11 l-25
0 0 -120z"/>
<path d="M8324 8606 c-45 -20 -64 -52 -64 -109 0 -42 5 -54 34 -83 36 -36 78
-44 119 -23 16 9 22 9 25 0 2 -6 15 -11 28 -11 l24 0 0 120 0 120 -24 0 c-13
0 -26 -5 -28 -11 -2 -7 -12 -7 -31 0 -36 14 -45 13 -83 -3z m96 -56 c43 -43
11 -120 -49 -120 -55 0 -82 79 -41 120 11 11 31 20 45 20 14 0 34 -9 45 -20z"/>
<path d="M8594 8606 c-45 -20 -64 -52 -64 -109 0 -42 5 -54 34 -83 38 -38 85
-45 135 -20 22 12 51 52 51 71 0 14 -50 2 -65 -15 -23 -25 -67 -26 -88 -2 -39
42 -7 122 48 122 14 0 30 -9 37 -20 13 -21 68 -29 68 -10 0 5 -12 23 -27 39
-34 36 -85 47 -129 27z"/>
<path d="M9045 8606 c-66 -29 -91 -95 -60 -160 21 -43 59 -66 111 -66 28 0 44
8 70 34 19 19 34 39 34 45 0 20 -54 12 -68 -9 -15 -24 -64 -27 -86 -4 -29 28
-17 34 69 34 l85 0 0 33 c0 42 -24 75 -66 93 -40 17 -51 17 -89 0z m86 -56
l24 -19 -64 -1 c-63 0 -64 0 -46 20 23 25 56 26 86 0z"/>
<path d="M9237 8613 c-4 -3 -7 -57 -7 -120 l0 -113 30 0 30 0 0 78 c0 83 9
102 47 102 19 0 23 5 23 30 0 33 -5 35 -44 20 -16 -6 -27 -6 -31 0 -7 11 -38
13 -48 3z"/>
<path d="M6930 7490 l0 -450 30 0 30 0 0 450 0 450 -30 0 -30 0 0 -450z"/>
<path d="M8847 7723 c-2 -4 -5 -45 -6 -90 -2 -79 -1 -83 19 -83 20 0 21 4 18
87 -2 54 -7 88 -15 90 -6 2 -13 0 -16 -4z"/>
<path d="M7260 7635 l0 -85 44 0 c62 0 96 29 96 81 0 57 -34 89 -95 89 l-45 0
0 -85z m100 36 c14 -26 13 -64 -2 -79 -7 -7 -25 -12 -40 -12 -27 0 -28 1 -28
55 0 54 0 55 30 55 19 0 33 -7 40 -19z"/>
<path d="M7720 7705 c0 -8 -4 -15 -10 -15 -5 0 -10 -7 -10 -15 0 -8 5 -15 10
-15 6 0 10 -22 10 -49 0 -35 4 -51 16 -55 27 -10 44 -7 44 9 0 8 -7 15 -15 15
-11 0 -15 11 -15 40 0 29 4 40 15 40 8 0 15 7 15 15 0 8 -7 15 -15 15 -8 0
-15 7 -15 15 0 8 -7 15 -15 15 -8 0 -15 -7 -15 -15z"/>
<path d="M8259 7693 c-40 -105 -49 -129 -49 -135 0 -14 31 -8 36 7 4 9 19 15
39 15 20 0 35 -6 39 -15 3 -8 13 -15 21 -15 18 0 17 5 -20 105 -26 68 -49 82
-66 38z m40 -70 c1 -7 -8 -13 -18 -13 -18 0 -19 3 -9 32 10 28 12 30 19 12 4
-10 8 -25 8 -31z"/>
<path d="M9060 7705 c0 -8 -4 -15 -10 -15 -5 0 -10 -7 -10 -15 0 -8 4 -15 9
-15 6 0 11 -24 13 -52 3 -49 5 -53 31 -56 19 -2 27 1 27 12 0 9 -7 16 -15 16
-11 0 -15 11 -15 40 0 29 4 40 15 40 8 0 15 7 15 15 0 8 -7 15 -15 15 -8 0
-15 7 -15 15 0 8 -7 15 -15 15 -8 0 -15 -7 -15 -15z"/>
<path d="M9680 7705 c0 -8 -4 -15 -10 -15 -5 0 -10 -7 -10 -15 0 -8 4 -15 9
-15 6 0 11 -24 13 -52 3 -49 5 -53 31 -56 19 -2 27 1 27 12 0 9 -7 16 -15 16
-11 0 -15 11 -15 40 0 29 4 40 15 40 8 0 15 7 15 15 0 8 -7 15 -15 15 -8 0
-15 7 -15 15 0 8 -7 15 -15 15 -8 0 -15 -7 -15 -15z"/>
<path d="M11864 7709 c-3 -6 6 -24 22 -40 l28 -29 -28 -29 c-46 -48 -14 -72
34 -26 l26 25 24 -25 c13 -14 29 -25 36 -25 26 0 25 23 -2 51 l-28 29 28 29
c27 28 28 51 2 51 -7 0 -23 -11 -36 -25 l-24 -25 -26 25 c-28 27 -45 31 -56
14z"/>
<path d="M7435 7665 c-30 -30 -31 -54 -4 -89 40 -50 119 -21 119 44 0 64 -70
91 -115 45z m79 -27 c15 -25 -4 -53 -35 -53 -25 0 -37 30 -25 61 8 20 46 14
60 -8z"/>
<path d="M7581 7664 c-12 -15 -21 -34 -21 -44 0 -10 9 -29 21 -44 25 -32 68
-35 94 -6 23 26 12 37 -19 20 -35 -18 -56 -7 -56 30 0 35 23 49 51 32 37 -23
53 -8 23 22 -24 25 -69 20 -93 -10z"/>
<path d="M7812 7667 c-27 -29 -28 -71 -2 -97 42 -42 120 -10 120 50 0 63 -75
93 -118 47z m78 -22 c26 -32 -13 -81 -47 -59 -35 22 -23 74 17 74 10 0 23 -7
30 -15z"/>
<path d="M7950 7619 c0 -55 3 -69 15 -69 11 0 15 12 15 49 0 41 4 51 20 56 34
11 24 33 -15 33 l-35 0 0 -69z"/>
<path d="M8046 7674 c-26 -26 -18 -44 27 -63 34 -15 39 -20 24 -26 -10 -4 -23
-3 -30 4 -16 16 -37 14 -37 -4 0 -32 67 -46 94 -19 25 25 19 44 -19 60 -36 15
-47 34 -20 34 8 0 15 -4 15 -10 0 -5 9 -10 20 -10 25 0 26 12 2 33 -23 21 -56
22 -76 1z"/>
<path d="M8380 7588 c0 -80 3 -98 15 -98 10 0 15 11 15 35 0 33 1 34 30 28 24
-4 37 0 55 17 55 52 16 119 -67 118 l-48 -1 0 -99z m100 52 c22 -40 -26 -80
-58 -48 -25 25 -6 68 30 68 9 0 22 -9 28 -20z"/>
<path d="M8540 7588 c0 -80 3 -98 15 -98 10 0 15 10 15 33 0 32 1 33 34 29 27
-3 37 1 55 23 26 34 27 55 1 88 -18 22 -28 26 -70 25 l-50 -1 0 -99z m98 38
c4 -36 -10 -50 -42 -42 -19 4 -26 13 -26 29 0 53 62 65 68 13z"/>
<path d="M8712 7674 c-16 -11 -22 -25 -22 -54 0 -29 6 -43 22 -54 49 -35 111
-4 111 54 0 58 -62 89 -111 54z m73 -54 c0 -32 -2 -35 -30 -35 -24 0 -31 5
-33 23 -6 38 5 54 35 50 25 -3 28 -7 28 -38z"/>
<path d="M8900 7619 c0 -55 3 -69 15 -69 11 0 15 11 15 39 0 55 8 71 36 71 22
0 24 -4 24 -55 0 -49 2 -55 21 -55 20 0 21 4 17 56 -6 68 -22 84 -84 82 l-44
-1 0 -68z"/>
<path d="M9140 7619 c0 -54 3 -69 14 -69 11 0 16 15 18 53 3 48 5 52 28 52 23
0 25 -4 28 -52 2 -37 7 -53 17 -53 10 0 15 16 17 53 3 48 5 52 28 52 23 0 25
-4 28 -52 2 -38 7 -53 18 -53 10 0 14 13 14 53 0 79 -4 82 -115 83 l-95 2 0
-69z"/>
<path d="M9390 7670 c-41 -41 -12 -120 44 -120 28 0 75 35 63 46 -4 5 -17 3
-27 -4 -27 -16 -57 -15 -64 3 -4 12 4 15 44 15 46 0 50 2 50 24 0 50 -73 73
-110 36z m75 -20 c4 -6 -8 -10 -30 -10 -22 0 -34 4 -30 10 3 6 17 10 30 10 13
0 27 -4 30 -10z"/>
<path d="M9520 7619 c0 -55 3 -69 15 -69 11 0 15 11 15 39 0 55 8 71 36 71 22
0 24 -4 24 -55 0 -49 2 -55 21 -55 20 0 21 4 17 56 -6 68 -22 84 -84 82 l-44
-1 0 -68z"/>
<path d="M7730 7345 c0 -49 1 -51 30 -33 16 10 23 10 35 -3 9 -9 13 -23 9 -32
-7 -20 -44 -23 -62 -5 -7 7 -12 8 -12 2 0 -17 23 -34 45 -34 29 0 45 19 45 52
0 30 -28 52 -54 42 -12 -4 -16 0 -16 15 0 17 6 21 29 21 17 0 33 5 36 10 4 6
-12 10 -39 10 l-46 0 0 -45z"/>
<path d="M7932 7315 c0 -83 2 -87 13 -22 5 31 10 37 30 37 25 0 28 -7 38 -70
3 -14 5 -4 6 21 1 54 -16 74 -53 65 -21 -5 -25 -2 -29 21 -2 16 -4 -8 -5 -52z"/>
<path d="M8382 7378 c-7 -7 -12 -19 -12 -27 0 -12 3 -11 13 3 16 22 50 18 55
-6 2 -9 -16 -38 -39 -63 l-42 -45 54 2 c36 1 43 3 22 5 -40 5 -40 9 -7 44 41
43 32 98 -16 99 -9 0 -21 -5 -28 -12z"/>
<path d="M8535 7374 c-21 -21 -13 -29 13 -13 24 15 54 5 46 -15 -3 -8 -15 -17
-27 -21 -21 -6 -21 -7 6 -17 15 -5 27 -16 27 -24 0 -21 -29 -29 -52 -15 -27
16 -38 3 -14 -15 44 -32 100 0 77 44 -5 9 -7 30 -4 46 9 44 -38 63 -72 30z"/>
<path d="M8660 7380 c-10 -6 -15 -26 -15 -65 0 -57 11 -75 47 -75 29 0 48 29
48 75 0 62 -37 92 -80 65z m55 -65 c0 -47 -2 -50 -25 -50 -22 0 -25 5 -28 39
-4 52 3 68 30 64 20 -3 23 -9 23 -53z"/>
<path d="M7250 7310 c0 -40 4 -70 10 -70 6 0 10 21 10 48 l1 47 25 -47 c13
-27 27 -48 30 -48 3 0 15 21 27 48 l22 47 3 -47 c5 -74 22 -56 22 22 0 88 -17
93 -50 13 l-24 -58 -25 57 c-36 79 -51 76 -51 -12z"/>
<path d="M7860 7365 c0 -8 -5 -15 -12 -15 -9 0 -9 -3 0 -12 7 -7 12 -29 12
-50 0 -37 21 -61 38 -43 4 4 1 10 -5 12 -8 3 -13 21 -13 43 0 21 6 41 13 43
10 4 10 6 0 6 -7 1 -13 8 -13 16 0 8 -4 15 -10 15 -5 0 -10 -7 -10 -15z"/>
<path d="M8239 7363 c-2 -46 4 -99 13 -110 12 -15 38 -17 38 -3 0 6 -7 10 -15
10 -22 0 -20 66 3 79 16 10 16 10 0 11 -10 0 -18 7 -18 15 0 21 -20 19 -21 -2z"/>
<path d="M7435 7334 c-17 -17 -19 -52 -5 -74 5 -9 27 -15 55 -16 l45 -2 0 52
0 52 -40 1 c-24 1 -46 -4 -55 -13z m73 -33 c5 -32 -23 -54 -49 -40 -19 10 -26
49 -12 63 4 4 19 6 33 4 18 -2 26 -10 28 -27z"/>
<path d="M7550 7346 c0 -2 9 -26 20 -52 17 -38 19 -53 11 -76 -7 -21 -7 -28 0
-26 10 3 69 130 69 149 0 23 -17 5 -32 -33 l-16 -43 -17 43 c-9 23 -21 42 -26
42 -5 0 -9 -2 -9 -4z"/>
<path d="M8115 7334 c-17 -17 -19 -52 -5 -74 5 -9 27 -15 55 -16 l45 -2 0 52
0 52 -40 1 c-24 1 -46 -4 -55 -13z m73 -33 c5 -32 -23 -54 -49 -40 -19 10 -26
49 -12 63 4 4 19 6 33 4 18 -2 26 -10 28 -27z"/>
<path d="M8480 7340 c0 -5 5 -10 10 -10 6 0 10 5 10 10 0 6 -4 10 -10 10 -5 0
-10 -4 -10 -10z"/>
<path d="M8770 7269 c0 -46 4 -79 10 -79 6 0 10 14 10 30 0 28 2 30 25 24 47
-12 82 44 55 86 -5 9 -27 15 -55 16 l-45 2 0 -79z m85 26 c0 -27 -3 -30 -30
-30 -21 0 -31 5 -33 18 -6 33 6 49 35 45 24 -3 28 -8 28 -33z"/>
<path d="M8900 7293 c0 -29 5 -53 10 -53 6 0 10 17 10 39 0 42 18 65 44 55 11
-4 16 -19 16 -50 0 -24 5 -44 10 -44 6 0 10 17 10 39 0 22 6 44 15 51 23 19
45 -5 45 -51 0 -22 5 -39 10 -39 14 0 12 84 -2 98 -15 15 -55 16 -63 2 -5 -8
-11 -8 -19 -1 -7 6 -29 10 -49 9 l-37 -1 0 -54z"/>
<path d="M8480 7250 c0 -5 5 -10 10 -10 6 0 10 5 10 10 0 6 -4 10 -10 10 -5 0
-10 -4 -10 -10z"/>
<path d="M6930 6520 l0 -450 30 0 30 0 0 450 0 450 -30 0 -30 0 0 -450z"/>
<path d="M7837 6763 c-2 -4 -5 -45 -6 -90 -2 -79 -1 -83 19 -83 20 0 21 4 18
87 -2 54 -7 88 -15 90 -6 2 -13 0 -16 -4z"/>
<path d="M8850 6680 c0 -72 3 -90 14 -90 11 0 16 15 18 53 3 48 5 52 28 52 23
0 25 -4 28 -52 2 -38 7 -53 18 -53 10 0 14 13 14 53 0 63 -23 93 -65 85 -21
-4 -25 -1 -25 18 0 15 -6 24 -15 24 -12 0 -15 -17 -15 -90z"/>
<path d="M9290 6681 c0 -85 1 -91 20 -91 20 0 21 5 18 87 -3 74 -6 88 -20 91
-16 3 -18 -6 -18 -87z"/>
<path d="M7260 6675 c0 -69 3 -85 15 -85 11 0 15 12 16 43 l0 42 22 -42 c11
-24 26 -43 33 -43 6 0 21 21 32 48 l20 47 1 -47 c1 -36 5 -48 16 -48 12 0 15
16 15 85 0 107 -17 114 -58 24 l-27 -62 -29 62 c-42 87 -56 81 -56 -24z"/>
<path d="M7747 6741 c-7 -27 4 -124 15 -138 14 -18 58 -17 58 1 0 7 -9 16 -20
19 -15 4 -20 14 -20 41 0 29 4 36 20 36 11 0 20 7 20 15 0 8 -9 15 -20 15 -11
0 -20 7 -20 15 0 21 -27 19 -33 -4z"/>
<path d="M8417 6741 c-7 -27 4 -124 15 -138 14 -18 58 -17 58 1 0 7 -9 16 -20
19 -15 4 -20 14 -20 41 0 29 4 36 20 36 11 0 20 7 20 15 0 8 -9 15 -20 15 -11
0 -20 7 -20 15 0 21 -27 19 -33 -4z"/>
<path d="M8577 6742 c-32 -35 -19 -61 38 -79 35 -11 40 -37 8 -41 -13 -2 -23
1 -23 7 0 6 -9 11 -20 11 -11 0 -20 -4 -20 -8 0 -17 37 -42 61 -42 66 0 79 62
20 92 -19 9 -38 21 -44 27 -17 17 21 25 49 11 31 -17 42 -6 19 20 -23 25 -67
26 -88 2z"/>
<path d="M11864 6739 c-3 -6 5 -23 20 -38 l26 -27 -26 -26 c-26 -25 -26 -48 0
-48 7 0 21 9 31 20 10 11 23 20 30 20 7 0 20 -9 30 -20 10 -11 24 -20 31 -20
26 0 26 23 0 48 l-26 26 26 27 c26 27 26 49 0 49 -7 0 -21 -9 -31 -20 -10 -11
-23 -20 -30 -20 -7 0 -20 9 -30 20 -20 22 -40 26 -51 9z"/>
<path d="M7470 6710 c-43 -43 -11 -120 48 -120 16 0 37 9 47 20 22 24 12 39
-15 22 -26 -16 -45 -15 -60 3 -11 13 -5 15 44 15 63 0 70 10 35 54 -25 32 -70
35 -99 6z m75 -20 c4 -6 -7 -10 -25 -10 -18 0 -29 4 -25 10 3 6 15 10 25 10
10 0 22 -4 25 -10z"/>
<path d="M7622 6714 c-16 -11 -22 -25 -22 -54 0 -65 67 -93 112 -48 21 21 22
23 4 26 -10 2 -22 -1 -26 -8 -9 -15 -52 -9 -58 8 -2 8 11 12 47 12 44 0 51 3
51 20 0 27 -35 60 -63 60 -12 0 -33 -7 -45 -16z m73 -24 c4 -6 -8 -10 -30 -10
-22 0 -34 4 -30 10 3 6 17 10 30 10 13 0 27 -4 30 -10z"/>
<path d="M7890 6659 c0 -55 3 -69 15 -69 11 0 15 11 15 39 0 55 8 71 36 71 22
0 24 -4 24 -55 0 -49 2 -55 21 -55 20 0 21 4 17 56 -6 68 -22 84 -84 82 l-44
-1 0 -68z"/>
<path d="M8054 6705 c-30 -30 -30 -54 -2 -90 18 -23 26 -26 55 -22 28 5 34 3
31 -11 -4 -22 -34 -27 -64 -11 -33 17 -44 1 -15 -22 28 -23 59 -24 89 -3 20
14 22 24 22 98 l0 83 -46 1 c-36 0 -52 -5 -70 -23z m81 -39 c0 -16 -7 -33 -16
-39 -26 -16 -49 -1 -49 31 0 36 8 44 40 40 20 -2 25 -8 25 -32z"/>
<path d="M8274 6705 c-29 -30 -30 -54 -3 -88 17 -23 27 -26 70 -26 l49 2 0 67
0 67 -46 1 c-36 0 -52 -5 -70 -23z m76 -19 c6 -8 10 -25 8 -38 -2 -18 -9 -23
-33 -23 -24 0 -31 5 -33 23 -2 13 -1 30 2 38 7 18 40 18 56 0z"/>
<path d="M8722 6714 c-16 -11 -22 -25 -22 -54 0 -65 67 -93 112 -48 21 21 22
23 4 26 -10 2 -22 -1 -26 -8 -4 -6 -18 -10 -31 -8 -19 2 -25 10 -27 36 -4 38
17 51 53 32 36 -19 53 -8 27 18 -26 26 -59 28 -90 6z"/>
<path d="M9010 6710 c-41 -41 -12 -120 45 -120 31 0 75 41 75 70 0 29 -44 70
-75 70 -14 0 -34 -9 -45 -20z m80 -30 c22 -40 -26 -80 -58 -48 -25 25 -6 68
30 68 9 0 22 -9 28 -20z"/>
<path d="M9160 6710 c-41 -41 -12 -120 45 -120 31 0 75 41 75 70 0 29 -44 70
-75 70 -14 0 -34 -9 -45 -20z m80 -30 c22 -40 -26 -80 -58 -48 -25 25 -6 68
30 68 9 0 22 -9 28 -20z"/>
<path d="M7740 6415 c-16 -19 -16 -100 0 -120 13 -16 48 -20 66 -7 18 12 24
43 13 64 -8 15 -18 19 -45 16 -35 -4 -38 -1 -28 26 7 19 50 21 57 4 2 -7 8
-10 12 -6 12 12 -15 38 -40 38 -12 0 -28 -7 -35 -15z m60 -70 c17 -21 5 -45
-24 -45 -27 0 -42 26 -25 46 15 18 33 18 49 -1z"/>
<path d="M7932 6355 c0 -83 2 -87 13 -22 5 31 10 37 30 37 25 0 28 -7 38 -70
3 -14 5 -4 6 21 1 54 -16 74 -53 65 -21 -5 -25 -2 -29 21 -2 16 -4 -8 -5 -52z"/>
<path d="M8382 6418 c-7 -7 -12 -19 -12 -27 0 -12 3 -11 13 3 16 22 50 18 55
-6 2 -9 -16 -38 -39 -63 l-42 -45 54 2 c36 1 43 3 22 5 -40 5 -40 9 -7 44 41
43 32 98 -16 99 -9 0 -21 -5 -28 -12z"/>
<path d="M8535 6414 c-21 -21 -13 -29 13 -13 24 15 54 5 46 -15 -3 -8 -15 -17
-27 -21 -21 -6 -21 -7 6 -17 15 -5 27 -16 27 -24 0 -21 -29 -29 -52 -15 -27
16 -38 3 -14 -15 44 -32 100 0 77 44 -5 9 -7 30 -4 46 9 44 -38 63 -72 30z"/>
<path d="M8661 6416 c-19 -22 -23 -78 -9 -106 15 -28 52 -38 74 -20 17 15 19
111 2 128 -16 16 -53 15 -67 -2z m59 -36 c13 -53 -27 -107 -51 -68 -10 15 -12
60 -3 83 10 25 47 14 54 -15z"/>
<path d="M7250 6350 c0 -40 4 -70 10 -70 6 0 10 21 10 48 l1 47 25 -47 c13
-27 27 -48 30 -48 3 0 15 21 27 48 l22 47 3 -47 c5 -74 22 -56 22 22 0 88 -17
93 -50 13 l-24 -58 -25 57 c-36 79 -51 76 -51 -12z"/>
<path d="M7860 6405 c0 -8 -5 -15 -12 -15 -9 0 -9 -3 0 -12 7 -7 12 -29 12
-50 0 -37 21 -61 38 -43 4 4 1 10 -5 12 -8 3 -13 21 -13 43 0 21 6 41 13 43
10 4 10 6 0 6 -7 1 -13 8 -13 16 0 8 -4 15 -10 15 -5 0 -10 -7 -10 -15z"/>
<path d="M8250 6405 c0 -8 -5 -15 -12 -15 -9 0 -9 -3 0 -12 7 -7 12 -29 12
-50 0 -37 21 -61 38 -43 4 4 1 10 -5 12 -8 3 -13 21 -13 43 0 21 6 41 13 43
10 4 10 6 0 6 -7 1 -13 8 -13 16 0 8 -4 15 -10 15 -5 0 -10 -7 -10 -15z"/>
<path d="M7435 6374 c-17 -17 -19 -52 -5 -74 5 -9 27 -15 55 -16 l45 -2 0 52
0 52 -40 1 c-24 1 -46 -4 -55 -13z m73 -33 c5 -32 -23 -54 -49 -40 -19 10 -26
49 -12 63 4 4 19 6 33 4 18 -2 26 -10 28 -27z"/>
<path d="M7550 6386 c0 -2 9 -26 20 -52 17 -38 19 -53 11 -76 -7 -21 -7 -28 0
-26 10 3 69 130 69 149 0 23 -17 5 -32 -33 l-16 -43 -17 43 c-9 23 -21 42 -26
42 -5 0 -9 -2 -9 -4z"/>
<path d="M8116 6372 c-37 -42 -6 -93 57 -90 l37 1 0 52 0 52 -39 1 c-26 1 -43
-4 -55 -16z m72 -34 c4 -35 -29 -56 -52 -32 -18 17 -19 24 -10 49 4 10 16 15
33 13 20 -2 27 -9 29 -30z"/>
<path d="M8480 6380 c0 -5 5 -10 10 -10 6 0 10 5 10 10 0 6 -4 10 -10 10 -5 0
-10 -4 -10 -10z"/>
<path d="M8770 6308 c0 -45 4 -78 10 -78 6 0 10 13 10 30 0 27 2 29 28 24 36
-7 62 16 62 56 0 35 -21 49 -73 47 l-37 -1 0 -78z m85 27 c0 -27 -3 -30 -30
-30 -21 0 -31 5 -33 18 -6 33 6 49 35 45 24 -3 28 -8 28 -33z"/>
<path d="M8911 6330 l1 -55 9 44 c15 76 59 79 59 5 0 -24 5 -44 10 -44 6 0 10
15 10 34 0 38 23 68 45 60 10 -4 15 -21 15 -50 0 -24 5 -44 10 -44 6 0 10 20
10 44 0 56 -19 74 -61 59 -17 -7 -31 -7 -35 -2 -3 5 -21 8 -40 6 l-34 -2 1
-55z"/>
<path d="M8480 6290 c0 -5 5 -10 10 -10 6 0 10 5 10 10 0 6 -4 10 -10 10 -5 0
-10 -4 -10 -10z"/>
<path d="M6930 5560 l0 -450 30 0 30 0 0 450 0 450 -30 0 -30 0 0 -450z"/>
<path d="M7770 5786 c0 -19 -4 -22 -25 -18 -14 2 -36 -3 -50 -12 -20 -13 -25
-25 -25 -56 0 -50 26 -69 93 -68 l47 0 0 89 c0 82 -1 89 -20 89 -14 0 -20 -7
-20 -24z m-5 -86 c0 -32 -2 -35 -30 -35 -24 0 -31 5 -33 23 -6 38 5 54 35 50
25 -3 28 -7 28 -38z"/>
<path d="M8030 5720 c0 -73 3 -90 15 -90 11 0 15 11 15 43 0 51 11 70 36 65
15 -2 20 -14 22 -56 3 -45 6 -52 24 -52 19 0 20 5 16 56 -6 65 -26 89 -70 80
-25 -5 -28 -2 -28 19 0 16 -6 25 -15 25 -12 0 -15 -17 -15 -90z"/>
<path d="M8648 5803 c-2 -4 -2 -45 0 -90 3 -65 7 -83 18 -83 13 0 15 15 12 87
-2 54 -7 88 -15 90 -6 2 -13 0 -15 -4z"/>
<path d="M7260 5715 c0 -69 3 -85 15 -85 10 0 15 10 15 34 0 30 4 35 27 38 39
4 42 28 4 28 -24 0 -31 4 -31 20 0 16 7 20 35 20 24 0 35 5 35 15 0 11 -12 15
-50 15 l-50 0 0 -85z"/>
<path d="M7906 5784 c-32 -32 -18 -63 38 -81 17 -5 32 -15 34 -21 6 -18 -28
-27 -49 -14 -37 23 -53 8 -23 -22 21 -22 67 -20 87 2 32 35 16 66 -40 81 -34
9 -37 35 -5 39 12 2 22 -1 22 -7 0 -6 9 -11 20 -11 25 0 26 12 2 33 -23 21
-66 22 -86 1z"/>
<path d="M11864 5779 c-3 -6 5 -23 20 -38 l26 -27 -26 -26 c-26 -25 -26 -48 0
-48 7 0 21 9 31 20 10 11 23 20 30 20 7 0 20 -9 30 -20 10 -11 24 -20 31 -20
26 0 26 23 0 48 l-26 26 26 27 c26 27 26 49 0 49 -7 0 -21 -9 -31 -20 -10 -11
-23 -20 -30 -20 -7 0 -20 9 -30 20 -20 22 -40 26 -51 9z"/>
<path d="M7392 5754 c-16 -11 -22 -25 -22 -54 0 -29 6 -43 22 -54 49 -35 111
-4 111 54 0 58 -62 89 -111 54z m73 -54 c0 -32 -2 -35 -30 -35 -24 0 -31 5
-33 23 -6 38 5 54 35 50 25 -3 28 -7 28 -38z"/>
<path d="M7542 5754 c-16 -11 -22 -25 -22 -54 0 -29 6 -43 22 -54 49 -35 111
-4 111 54 0 58 -62 89 -111 54z m73 -54 c0 -32 -2 -35 -30 -35 -24 0 -31 5
-33 23 -6 38 5 54 35 50 25 -3 28 -7 28 -38z"/>
<path d="M8195 5745 c-30 -30 -31 -54 -4 -89 40 -50 119 -21 119 44 0 64 -70
91 -115 45z m79 -27 c15 -25 -4 -53 -35 -53 -25 0 -37 30 -25 61 8 20 46 14
60 -8z"/>
<path d="M8330 5668 c0 -80 3 -98 15 -98 10 0 15 10 15 34 0 34 1 35 34 29 42
-7 76 23 76 67 0 47 -30 69 -89 68 l-51 -1 0 -99z m100 57 c26 -32 -13 -81
-47 -59 -35 22 -23 74 17 74 10 0 23 -7 30 -15z"/>
<path d="M8490 5668 c0 -80 3 -98 15 -98 10 0 15 11 15 35 0 33 1 34 30 28 24
-4 37 0 55 17 55 52 16 119 -67 118 l-48 -1 0 -99z m100 52 c22 -40 -26 -80
-58 -48 -25 25 -6 68 30 68 9 0 22 -9 28 -20z"/>
<path d="M8700 5698 c0 -61 2 -68 20 -68 18 0 20 7 20 55 0 51 2 55 24 55 28
0 36 -16 36 -71 0 -28 4 -39 15 -39 21 0 20 88 0 117 -13 18 -25 22 -65 21
l-50 -1 0 -69z"/>
<path d="M8871 5754 c-32 -23 -30 -88 4 -110 14 -9 36 -14 50 -12 17 4 25 1
25 -9 0 -20 -28 -27 -55 -13 -36 19 -53 8 -27 -18 31 -31 75 -29 101 4 17 22
21 41 21 99 l0 73 -49 0 c-27 1 -57 -6 -70 -14z m74 -54 c0 -32 -2 -35 -30
-35 -24 0 -31 5 -33 23 -6 38 5 54 35 50 25 -3 28 -7 28 -38z"/>
<path d="M7720 5460 c0 -5 16 -10 35 -10 19 0 35 -2 35 -4 0 -2 -11 -29 -25
-60 -28 -63 -29 -66 -16 -66 9 0 61 120 61 140 0 6 -20 10 -45 10 -25 0 -45
-4 -45 -10z"/>
<path d="M7910 5395 c0 -80 17 -104 22 -32 3 37 6 42 28 42 22 0 25 -5 28 -42
4 -54 22 -57 22 -4 0 47 -23 75 -57 68 -19 -3 -23 0 -23 19 0 13 -4 24 -10 24
-6 0 -10 -32 -10 -75z"/>
<path d="M8348 5458 c7 -7 12 -39 12 -75 0 -35 4 -63 10 -63 6 0 10 32 10 75
0 71 -1 75 -22 75 -17 0 -19 -3 -10 -12z"/>
<path d="M8426 5454 c-9 -8 -16 -20 -16 -25 0 -15 17 -10 24 6 3 8 15 15 26
15 34 0 26 -47 -15 -86 -19 -18 -35 -35 -35 -38 0 -3 24 -5 53 -4 35 1 42 2
20 5 -18 2 -33 7 -33 10 0 3 11 18 25 35 14 16 25 40 25 52 0 43 -44 61 -74
30z"/>
<path d="M8580 5455 c-15 -19 -5 -34 12 -17 7 7 20 12 30 12 26 0 23 -36 -4
-45 -17 -5 -19 -8 -8 -12 27 -10 39 -24 33 -39 -6 -17 -50 -19 -56 -1 -2 6 -8
9 -12 5 -11 -11 14 -38 35 -38 36 0 50 12 50 41 0 16 -5 29 -10 29 -6 0 -5 8
2 20 26 41 -41 82 -72 45z"/>
<path d="M8700 5451 c-5 -11 -10 -36 -10 -56 0 -49 16 -75 45 -75 30 0 55 34
55 75 0 62 -65 103 -90 56z m65 -56 c0 -47 -2 -50 -25 -50 -22 0 -25 5 -28 39
-4 52 3 68 30 64 20 -3 23 -9 23 -53z"/>
<path d="M7250 5390 c0 -40 4 -70 10 -70 6 0 10 21 10 48 l1 47 25 -47 c13
-27 27 -48 30 -48 3 0 15 21 27 48 l22 47 3 -47 c5 -74 22 -56 22 22 0 88 -17
93 -50 13 l-24 -58 -25 57 c-36 79 -51 76 -51 -12z"/>
<path d="M7838 5443 c-3 -10 -2 -40 1 -68 5 -44 9 -50 31 -53 23 -2 24 -1 8
11 -10 8 -18 28 -18 45 0 19 7 35 18 41 16 10 16 10 0 11 -10 0 -18 7 -18 15
0 21 -17 19 -22 -2z"/>
<path d="M8228 5443 c-3 -10 -2 -40 1 -68 5 -44 9 -50 31 -53 23 -2 24 -1 8
11 -10 8 -18 28 -18 45 0 19 7 35 18 41 16 10 16 10 0 11 -10 0 -18 7 -18 15
0 21 -17 19 -22 -2z"/>
<path d="M7435 5414 c-17 -17 -19 -52 -5 -74 5 -9 27 -15 55 -16 l45 -2 0 52
0 52 -40 1 c-24 1 -46 -4 -55 -13z m73 -33 c5 -32 -23 -54 -49 -40 -19 10 -26
49 -12 63 4 4 19 6 33 4 18 -2 26 -10 28 -27z"/>
<path d="M7550 5426 c0 -2 9 -26 20 -52 17 -38 19 -53 11 -76 -7 -21 -7 -28 0
-26 10 3 69 130 69 149 0 23 -17 5 -32 -33 l-16 -43 -17 43 c-9 23 -21 42 -26
42 -5 0 -9 -2 -9 -4z"/>
<path d="M8093 5404 c-15 -24 -15 -29 -2 -53 13 -22 22 -26 62 -27 l47 -1 0
51 0 52 -45 2 c-38 1 -47 -2 -62 -24z m77 -9 c23 -28 -9 -72 -45 -59 -36 14
-24 74 15 74 10 0 23 -7 30 -15z"/>
<path d="M8525 5420 c-3 -5 1 -10 9 -10 9 0 16 5 16 10 0 6 -4 10 -9 10 -6 0
-13 -4 -16 -10z"/>
<path d="M8822 5345 c0 -44 3 -66 5 -48 4 30 6 31 38 26 28 -4 36 -1 51 22 16
25 16 30 3 54 -12 21 -22 26 -57 26 l-42 1 2 -81z m83 46 c9 -28 -5 -51 -31
-51 -29 0 -46 28 -33 52 13 24 56 23 64 -1z"/>
<path d="M8950 5373 c0 -29 5 -53 10 -53 6 0 10 17 10 39 0 22 6 44 15 51 23
19 45 -5 45 -51 0 -22 5 -39 10 -39 6 0 10 17 10 39 0 22 6 44 15 51 23 19 45
-5 45 -51 0 -22 5 -39 10 -39 16 0 12 77 -6 94 -18 18 -50 21 -59 6 -5 -8 -11
-8 -19 -1 -7 6 -29 10 -49 9 l-37 -1 0 -54z"/>
<path d="M8525 5330 c3 -5 10 -10 16 -10 5 0 9 5 9 10 0 6 -7 10 -16 10 -8 0
-12 -4 -9 -10z"/>
<path d="M8680 4751 c0 -85 1 -91 20 -91 20 0 21 5 18 87 -3 74 -6 88 -20 91
-16 3 -18 -6 -18 -87z"/>
<path d="M9260 4816 c0 -19 -4 -22 -25 -18 -14 2 -36 -3 -50 -12 -20 -13 -25
-25 -25 -56 0 -50 26 -69 93 -68 l47 0 0 89 c0 82 -1 89 -20 89 -14 0 -20 -7
-20 -24z m-5 -86 c0 -32 -2 -35 -30 -35 -24 0 -31 5 -33 23 -6 38 5 54 35 50
25 -3 28 -7 28 -38z"/>
<path d="M9410 4750 c0 -73 3 -90 15 -90 12 0 15 17 15 90 0 73 -3 90 -15 90
-12 0 -15 -17 -15 -90z"/>
<path d="M9570 4816 c0 -22 -3 -24 -34 -19 -42 7 -76 -23 -76 -67 0 -47 30
-69 89 -68 l51 1 0 89 c0 72 -3 88 -15 88 -9 0 -15 -9 -15 -24z m-10 -66 c15
-28 -4 -60 -35 -60 -18 0 -26 7 -31 25 -12 48 44 77 66 35z"/>
<path d="M7190 4745 c0 -78 2 -85 20 -85 17 0 20 7 21 43 l0 42 19 -42 c11
-24 24 -43 29 -43 6 0 22 21 35 48 l25 47 1 -47 c0 -36 4 -48 15 -48 12 0 15
16 15 85 0 107 -17 114 -60 23 l-30 -62 -26 62 c-19 44 -33 62 -46 62 -16 0
-18 -9 -18 -85z"/>
<path d="M7700 4776 c0 -71 13 -104 45 -112 65 -16 95 19 95 111 0 48 -3 55
-20 55 -17 0 -19 -8 -22 -67 -3 -58 -6 -68 -22 -71 -29 -6 -46 25 -46 85 0 40
-4 53 -15 53 -11 0 -15 -13 -15 -54z"/>
<path d="M8240 4745 c0 -69 3 -85 15 -85 10 0 15 11 15 35 0 19 5 35 10 35 6
0 18 -16 27 -35 10 -22 24 -35 36 -35 10 0 17 3 15 8 -2 4 -10 19 -17 34 -12
24 -12 30 2 46 37 40 5 82 -61 82 l-42 0 0 -85z m80 35 c0 -15 -7 -20 -25 -20
-18 0 -25 5 -25 20 0 15 7 20 25 20 18 0 25 -5 25 -20z"/>
<path d="M8800 4745 c0 -78 2 -85 20 -85 17 0 20 7 21 43 l0 42 19 -42 c11
-24 24 -43 29 -43 6 0 22 21 35 48 l25 47 1 -47 c0 -36 4 -48 15 -48 12 0 15
16 15 85 0 107 -17 114 -60 23 l-30 -62 -26 62 c-19 44 -33 62 -46 62 -16 0
-18 -9 -18 -85z"/>
<path d="M11864 4819 c-3 -6 5 -23 20 -38 l26 -27 -26 -26 c-26 -25 -26 -48 0
-48 7 0 21 9 31 20 10 11 23 20 30 20 7 0 20 -9 30 -20 10 -11 24 -20 31 -20
26 0 26 23 0 48 l-26 26 26 27 c26 27 26 49 0 49 -7 0 -21 -9 -31 -20 -10 -11
-23 -20 -30 -20 -7 0 -20 9 -30 20 -20 22 -40 26 -51 9z"/>
<path d="M7409 4779 c-10 -10 -19 -32 -19 -49 0 -47 30 -69 89 -68 l51 1 0 67
0 67 -51 1 c-37 1 -55 -4 -70 -19z m81 -29 c15 -28 -4 -60 -35 -60 -18 0 -26
7 -31 25 -12 48 44 77 66 35z"/>
<path d="M7550 4728 c0 -61 2 -68 20 -68 18 0 20 7 20 55 0 51 2 55 24 55 28
0 36 -16 36 -71 0 -28 4 -39 15 -39 21 0 20 88 0 117 -13 18 -25 22 -65 21
l-50 -1 0 -69z"/>
<path d="M7915 4778 c40 -126 64 -145 95 -73 30 70 35 95 18 95 -8 0 -23 -21
-34 -47 l-20 -48 -15 45 c-10 27 -23 46 -33 48 -15 3 -17 -1 -11 -20z"/>
<path d="M8066 4787 c-26 -19 -16 -50 22 -66 36 -16 42 -31 12 -31 -11 0 -20
5 -20 10 0 6 -7 10 -15 10 -22 0 -19 -27 4 -40 29 -15 56 -12 75 9 22 25 11
48 -30 61 -37 13 -46 30 -14 30 11 0 20 -4 20 -10 0 -5 7 -10 15 -10 18 0 20
21 3 38 -16 16 -50 15 -72 -1z"/>
<path d="M8391 4774 c-12 -15 -21 -34 -21 -44 0 -10 9 -29 21 -44 24 -30 69
-35 93 -10 30 30 14 45 -23 22 -20 -12 -51 -5 -51 12 0 5 22 10 50 10 43 0 50
3 50 20 0 57 -83 80 -119 34z m74 -14 c4 -6 -7 -10 -25 -10 -18 0 -29 4 -25
10 3 6 15 10 25 10 10 0 22 -4 25 -10z"/>
<path d="M8539 4779 c-10 -10 -19 -32 -19 -49 0 -47 30 -69 89 -68 l51 1 0 67
0 67 -51 1 c-37 1 -55 -4 -70 -19z m81 -29 c15 -28 -4 -60 -35 -60 -18 0 -26
7 -31 25 -12 48 44 77 66 35z"/>
<path d="M9019 4779 c-10 -10 -19 -32 -19 -49 0 -47 30 -69 89 -68 l51 1 0 67
0 67 -51 1 c-37 1 -55 -4 -70 -19z m81 -29 c15 -28 -4 -60 -35 -60 -18 0 -26
7 -31 25 -12 48 44 77 66 35z"/>
<path d="M9320 4729 c0 -55 3 -69 15 -69 11 0 15 12 15 45 0 34 5 48 20 57 30
19 24 34 -15 35 l-35 1 0 -69z"/>
<path d="M7966 4484 c-10 -9 -16 -33 -16 -59 0 -47 19 -75 50 -75 24 0 50 26
50 49 0 27 -26 44 -59 39 -26 -4 -28 -2 -21 16 9 25 39 33 51 15 4 -7 11 -10
15 -6 10 10 -16 37 -37 37 -9 0 -25 -7 -33 -16z m59 -84 c0 -20 -6 -26 -27
-28 -24 -3 -28 0 -28 21 0 30 9 39 35 35 14 -2 20 -10 20 -28z"/>
<path d="M8150 4425 c0 -80 17 -104 22 -32 3 37 6 42 28 42 22 0 25 -5 28 -42
4 -54 22 -57 22 -4 0 47 -23 75 -57 68 -19 -3 -23 0 -23 19 0 13 -4 24 -10 24
-6 0 -10 -32 -10 -75z"/>
<path d="M8602 4488 c-7 -7 -12 -19 -12 -27 1 -13 3 -13 15 2 16 22 48 19 53
-5 2 -9 -13 -34 -32 -56 -20 -22 -36 -42 -36 -46 0 -3 20 -6 45 -6 25 0 45 4
45 9 0 4 -11 6 -25 3 -27 -5 -33 9 -11 27 25 21 39 67 26 90 -12 23 -49 28
-68 9z"/>
<path d="M8763 4493 c-7 -2 -13 -11 -13 -19 0 -11 4 -12 19 -3 20 13 51 6 51
-12 0 -6 -9 -13 -20 -16 -11 -3 -20 -9 -20 -13 0 -4 9 -10 20 -13 29 -8 27
-47 -3 -47 -13 0 -28 5 -35 12 -6 6 -14 9 -17 6 -12 -12 28 -39 53 -36 35 4
51 32 34 59 -10 15 -10 24 -2 34 26 32 -22 67 -67 48z"/>
<path d="M8881 4486 c-19 -22 -23 -78 -9 -106 15 -28 52 -38 74 -20 17 15 19
111 2 128 -16 16 -53 15 -67 -2z m59 -36 c13 -53 -27 -107 -51 -68 -10 15 -12
60 -3 83 10 25 47 14 54 -15z"/>
<path d="M7208 4423 c-26 -69 -27 -92 -4 -60 17 22 62 22 75 0 5 -10 12 -15
16 -11 9 9 -38 138 -51 138 -6 0 -22 -30 -36 -67z m40 -31 c-28 -5 -30 0 -16
39 l11 33 12 -34 c11 -32 10 -35 -7 -38z"/>
<path d="M7819 4473 c-2 -46 4 -99 13 -110 12 -15 38 -17 38 -3 0 6 -7 10 -15
10 -22 0 -20 66 3 79 16 10 16 10 0 11 -10 0 -18 7 -18 15 0 21 -20 19 -21 -2z"/>
<path d="M8080 4475 c0 -8 -5 -15 -12 -15 -9 0 -9 -3 0 -12 7 -7 12 -29 12
-50 0 -37 21 -61 38 -43 4 4 1 10 -5 12 -8 3 -13 21 -13 43 0 21 6 41 13 43
10 4 10 6 0 6 -7 1 -13 8 -13 16 0 8 -4 15 -10 15 -5 0 -10 -7 -10 -15z"/>
<path d="M8470 4475 c0 -8 -5 -15 -12 -15 -9 0 -9 -3 0 -12 7 -7 12 -29 12
-50 0 -37 21 -61 38 -43 4 4 1 10 -5 12 -8 3 -13 21 -13 43 0 21 6 41 13 43
10 4 10 6 0 6 -7 1 -13 8 -13 16 0 8 -4 15 -10 15 -5 0 -10 -7 -10 -15z"/>
<path d="M7323 4414 c5 -52 18 -64 64 -62 33 1 33 1 33 55 0 29 -4 53 -10 53
-5 0 -10 -20 -10 -44 0 -29 -5 -46 -15 -50 -22 -8 -45 22 -45 60 0 19 -5 34
-11 34 -8 0 -10 -15 -6 -46z"/>
<path d="M7468 4449 c-12 -7 -18 -22 -18 -44 0 -40 27 -60 67 -50 20 5 24 2
21 -12 -4 -22 -43 -29 -64 -13 -11 10 -14 9 -14 -3 0 -29 59 -37 84 -11 11 11
16 34 16 78 l0 62 -37 1 c-21 1 -46 -3 -55 -8z m72 -37 c0 -29 -16 -44 -41
-40 -30 4 -39 46 -14 65 22 15 55 0 55 -25z"/>
<path d="M7590 4416 c0 -52 12 -65 63 -63 l37 1 0 53 c0 29 -4 53 -10 53 -5 0
-10 -15 -10 -34 0 -38 -23 -68 -45 -60 -10 4 -15 21 -15 50 0 24 -4 44 -10 44
-5 0 -10 -20 -10 -44z"/>
<path d="M7720 4446 c-16 -20 -1 -41 36 -50 35 -9 18 -29 -18 -22 -27 5 -29 4
-18 -10 20 -23 64 -14 68 14 3 18 -3 25 -27 33 -41 14 -41 33 0 25 22 -4 29
-2 27 7 -7 18 -53 20 -68 3z"/>
<path d="M8336 4442 c-37 -42 -6 -93 57 -90 l37 1 0 52 0 52 -39 1 c-26 1 -43
-4 -55 -16z m72 -34 c4 -35 -29 -56 -52 -32 -18 17 -19 24 -10 49 4 10 16 15
33 13 20 -2 27 -9 29 -30z"/>
<path d="M8700 4450 c0 -5 5 -10 10 -10 6 0 10 5 10 10 0 6 -4 10 -10 10 -5 0
-10 -4 -10 -10z"/>
<path d="M8990 4378 c0 -45 4 -78 10 -78 6 0 10 13 10 30 0 27 2 29 28 24 36
-7 62 16 62 56 0 35 -21 49 -73 47 l-37 -1 0 -78z m85 27 c0 -27 -3 -30 -30
-30 -21 0 -31 5 -33 18 -6 33 6 49 35 45 24 -3 28 -8 28 -33z"/>
<path d="M9131 4400 l1 -55 9 44 c15 76 59 79 59 5 0 -24 5 -44 10 -44 6 0 10
15 10 34 0 38 23 68 45 60 10 -4 15 -21 15 -50 0 -24 5 -44 10 -44 6 0 10 20
10 44 0 56 -19 74 -61 59 -17 -7 -31 -7 -35 -2 -3 5 -21 8 -40 6 l-34 -2 1
-55z"/>
<path d="M8700 4360 c0 -5 5 -10 10 -10 6 0 10 5 10 10 0 6 -4 10 -10 10 -5 0
-10 -4 -10 -10z"/>
<path d="M9015 3690 c-3 -5 1 -10 10 -10 9 0 13 5 10 10 -3 6 -8 10 -10 10 -2
0 -7 -4 -10 -10z"/>
<path d="M9200 3625 c0 -80 17 -104 22 -32 3 37 6 42 28 42 22 0 25 -5 28 -42
4 -56 22 -55 22 1 0 50 -18 71 -55 64 -21 -4 -25 -1 -25 18 0 13 -4 24 -10 24
-6 0 -10 -32 -10 -75z"/>
<path d="M9990 3625 c0 -43 4 -75 10 -75 6 0 10 10 10 22 l0 21 23 -21 c35
-33 56 -27 24 6 l-27 28 22 22 c30 30 14 41 -17 12 l-25 -23 0 41 c0 23 -4 42
-10 42 -6 0 -10 -32 -10 -75z"/>
<path d="M10362 3688 c-7 -7 -12 -19 -12 -27 0 -12 3 -11 13 3 16 22 50 18 55
-6 2 -9 -16 -38 -39 -63 l-42 -45 54 2 c36 1 43 3 22 5 -40 5 -40 9 -7 44 41
43 32 98 -16 99 -9 0 -21 -5 -28 -12z"/>
<path d="M10474 3675 c-19 -29 -14 -102 8 -116 41 -27 78 5 78 66 0 71 -52
101 -86 50z m61 -50 c0 -47 -2 -50 -25 -50 -22 0 -25 5 -28 39 -4 52 3 68 30
64 20 -3 23 -9 23 -53z"/>
<path d="M10602 3688 c-7 -7 -12 -19 -12 -27 1 -13 3 -13 15 2 16 22 48 19 53
-5 2 -9 -13 -34 -32 -56 -20 -22 -36 -42 -36 -46 0 -3 21 -5 48 -4 36 1 39 2
15 5 -35 4 -43 17 -19 26 8 3 22 20 31 38 13 25 15 37 6 55 -12 26 -49 32 -69
12z"/>
<path d="M10716 3684 c-9 -8 -16 -20 -16 -25 0 -15 17 -10 24 6 3 8 15 15 26
15 33 0 26 -46 -15 -87 -19 -19 -35 -37 -35 -39 0 -2 24 -3 53 -2 35 1 42 2
20 5 -18 2 -33 7 -33 10 0 3 11 18 25 35 14 16 25 40 25 52 0 43 -44 61 -74
30z"/>
<path d="M8429 3672 c-47 -39 -16 -122 46 -122 28 0 80 39 53 40 -9 0 -20 -4
-23 -10 -3 -5 -20 -10 -36 -10 -22 0 -32 6 -39 25 -15 40 3 75 39 75 16 0 33
-4 36 -10 3 -5 14 -10 23 -10 14 1 13 4 -7 20 -29 25 -62 25 -92 2z"/>
<path d="M9328 3673 c-2 -10 -1 -40 2 -68 4 -44 8 -50 30 -53 23 -2 24 -1 8
11 -10 8 -18 28 -18 45 0 19 7 35 18 41 16 10 16 10 0 11 -10 0 -18 7 -18 15
0 21 -18 19 -22 -2z"/>
<path d="M9508 3683 c6 -2 18 -2 25 0 6 3 1 5 -13 5 -14 0 -19 -2 -12 -5z"/>
<path d="M9675 3674 c-22 -22 -15 -36 28 -57 20 -10 37 -23 37 -28 0 -17 -32
-23 -52 -10 -27 16 -38 3 -14 -15 26 -18 51 -18 71 2 22 22 15 36 -28 57 -20
10 -37 23 -37 28 0 16 32 23 51 10 15 -9 19 -8 19 3 0 28 -50 34 -75 10z"/>
<path d="M9467 3662 c-24 -26 -21 -65 6 -88 22 -19 22 -19 5 2 -23 26 -23 62
-1 86 9 10 14 18 11 18 -3 0 -12 -8 -21 -18z"/>
<path d="M9563 3664 c9 -11 17 -31 17 -44 0 -13 -8 -33 -17 -44 -18 -21 -18
-21 5 -2 13 11 22 30 22 46 0 16 -9 35 -22 46 -23 19 -23 19 -5 -2z"/>
<path d="M9496 3657 c-12 -9 -17 -23 -14 -42 2 -25 8 -31 32 -33 16 -2 33 1
39 7 17 17 1 24 -22 9 -18 -11 -23 -11 -31 2 -18 28 -7 45 30 43 33 -1 34 0
16 13 -24 17 -28 17 -50 1z"/>
<path d="M8577 3642 c-33 -37 -11 -92 37 -92 48 0 73 62 38 93 -24 22 -55 21
-75 -1z m68 -37 c0 -27 -3 -30 -30 -30 -21 0 -31 5 -33 18 -6 33 6 49 35 45
24 -3 28 -8 28 -33z"/>
<path d="M8690 3580 c0 -47 4 -80 10 -80 6 0 11 16 11 35 1 19 2 50 3 68 2 38
-3 57 -15 57 -5 0 -9 -36 -9 -80z"/>
<path d="M8725 3650 c-3 -6 5 -10 19 -10 30 0 49 -28 35 -53 -6 -9 -21 -17
-35 -17 -14 0 -22 -4 -19 -10 19 -30 78 4 78 45 0 41 -59 75 -78 45z"/>
<path d="M8820 3655 c0 -2 9 -27 20 -55 15 -38 17 -56 10 -70 -12 -23 -13 -30
-1 -30 7 0 24 36 68 148 3 6 1 12 -5 12 -6 0 -17 -19 -25 -42 l-15 -43 -18 43
c-9 23 -21 42 -26 42 -4 0 -8 -2 -8 -5z"/>
<path d="M8940 3604 c0 -30 5 -54 10 -54 6 0 10 18 10 40 0 27 5 43 15 46 23
9 18 22 -10 22 -24 0 -25 -4 -25 -54z"/>
<path d="M9023 3605 c0 -33 2 -45 4 -27 2 18 2 45 0 60 -2 15 -4 0 -4 -33z"/>
<path d="M9075 3644 c-37 -38 -4 -100 47 -90 24 5 29 3 26 -12 -4 -21 -44 -28
-64 -12 -17 15 -19 -1 -2 -18 17 -17 54 -15 72 4 11 11 16 34 16 78 l0 62 -40
1 c-24 1 -46 -4 -55 -13z m73 -42 c-2 -23 -8 -27 -33 -27 -24 0 -31 5 -33 24
-5 32 23 54 50 40 13 -7 18 -19 16 -37z"/>
<path d="M9798 3649 c-24 -14 -24 -75 0 -88 9 -5 34 -9 55 -8 l37 1 0 51 0 51
-37 1 c-21 1 -46 -3 -55 -8z m66 -25 c11 -28 7 -43 -15 -54 -15 -9 -24 -8 -35
1 -14 12 -19 51 -7 62 12 13 51 7 57 -9z"/>
<path d="M9920 3604 c0 -30 5 -54 10 -54 6 0 10 18 10 40 0 27 5 43 15 46 23
9 18 22 -10 22 -24 0 -25 -4 -25 -54z"/>
<path d="M10107 3642 c-43 -47 6 -109 67 -86 28 11 17 21 -20 20 -22 -1 -39 4
-41 12 -3 8 9 12 41 12 50 0 60 15 28 43 -24 22 -55 21 -75 -1z m71 -19 c2 -9
-8 -13 -32 -13 -34 0 -44 8 -29 24 11 11 56 2 61 -11z"/>
<path d="M10220 3604 c0 -30 5 -54 10 -54 6 0 10 18 10 40 0 27 5 43 15 46 23
9 18 22 -10 22 -24 0 -25 -4 -25 -54z"/>
<path d="M9508 3553 c6 -2 18 -2 25 0 6 3 1 5 -13 5 -14 0 -19 -2 -12 -5z"/>
<path d="M9450 3326 l0 -74 45 2 c49 1 65 15 65 53 0 33 -28 56 -62 49 -25 -5
-28 -3 -28 19 0 14 -4 25 -10 25 -6 0 -10 -31 -10 -74z m85 -21 c0 -27 -3 -30
-30 -30 -21 0 -31 5 -33 18 -6 33 6 49 35 45 24 -3 28 -8 28 -33z"/>
<path d="M9349 3363 c-29 -74 -39 -107 -33 -112 3 -3 10 2 15 12 13 22 58 22
75 0 7 -10 15 -16 17 -13 7 8 -44 140 -54 140 -5 0 -14 -12 -20 -27z m36 -45
c6 -25 4 -28 -18 -28 -24 0 -25 1 -14 35 11 38 22 36 32 -7z"/>
<path d="M9850 3375 c0 -8 -5 -15 -11 -15 -8 0 -8 -4 -1 -13 6 -7 12 -30 14
-52 2 -31 8 -41 23 -43 16 -3 18 -1 8 9 -7 7 -13 30 -13 50 0 21 6 40 13 42
10 4 10 6 0 6 -7 1 -13 8 -13 16 0 8 -4 15 -10 15 -5 0 -10 -7 -10 -15z"/>
<path d="M9597 3342 c-33 -36 -8 -92 40 -92 25 0 53 30 53 57 0 46 -62 69 -93
35z m68 -37 c0 -27 -3 -30 -30 -30 -21 0 -31 5 -33 18 -6 33 6 49 35 45 24 -3
28 -8 28 -33z"/>
<path d="M9710 3321 c0 -49 20 -71 65 -69 l35 1 0 54 c0 29 -4 53 -10 53 -5 0
-10 -20 -10 -44 0 -31 -5 -46 -16 -50 -26 -10 -44 13 -44 55 0 22 -4 39 -10
39 -5 0 -10 -18 -10 -39z"/>
<path d="M9300 3230 c0 -6 107 -10 300 -10 193 0 300 4 300 10 0 6 -107 10
-300 10 -193 0 -300 -4 -300 -10z"/>
<path d="M8078 2793 c844 -2 2221 -2 3060 0 840 1 150 2 -1533 2 -1683 0
-2370 -1 -1527 -2z"/>
</g>
</svg>
